{"glyphs":{"0":{"ha":917,"x_min":49,"x_max":868,"o":"m 762 115 q 709 49 762 115 q 458 -17 656 -17 q 155 115 261 -17 q 49 493 49 247 q 155 871 49 739 q 458 1003 261 1003 q 762 871 656 1003 q 868 493 868 739 q 762 115 868 247 m 340 285 q 360 249 340 285 q 458 213 381 213 q 577 285 536 213 q 618 493 618 358 q 577 701 618 628 q 458 774 536 774 q 340 701 381 774 q 299 493 299 628 q 340 285 299 358 z "},"1":{"ha":583,"x_min":28,"x_max":500,"o":"m 500 986 l 500 0 l 264 0 l 264 625 l 28 625 l 28 806 l 42 806 q 205 853 142 807 q 285 986 268 900 l 500 986 z "},"2":{"ha":796,"x_min":35,"x_max":754,"o":"m 368 288 q 311 208 311 250 l 754 208 l 754 0 l 35 0 l 35 36 q 79 282 35 190 q 232 446 124 374 l 442 583 q 504 681 504 625 q 474 748 504 722 q 397 774 444 774 q 308 742 342 774 q 271 660 274 711 l 42 694 q 156 918 60 833 q 393 1003 253 1003 q 655 919 556 1003 q 754 696 754 835 q 574 422 754 540 l 368 288 z "},"3":{"ha":804,"x_min":35,"x_max":763,"o":"m 624 500 q 726 413 689 472 q 763 276 763 354 q 663 64 763 144 q 401 -17 564 -17 q 151 68 253 -17 q 35 292 50 153 l 243 325 q 289 228 246 265 q 400 192 332 192 q 496 222 460 192 q 532 301 532 253 q 494 377 532 349 q 393 406 456 406 l 329 406 l 329 597 l 375 597 q 480 624 440 597 q 519 694 519 651 q 485 767 519 739 q 394 794 450 794 q 286 758 328 794 q 243 663 244 722 l 35 694 q 153 918 53 833 q 399 1003 253 1003 q 652 919 556 1003 q 749 696 749 835 q 715 576 749 628 q 624 500 682 525 z "},"4":{"ha":850,"x_min":28,"x_max":822,"o":"m 822 396 l 822 194 l 678 194 l 678 0 l 449 0 l 449 194 l 28 194 l 28 403 l 442 986 l 678 986 l 678 396 l 822 396 m 254 396 l 449 396 l 449 669 l 254 396 z "},"5":{"ha":813,"x_min":42,"x_max":771,"o":"m 465 665 q 687 573 603 665 q 771 329 771 481 q 668 79 771 174 q 397 -15 565 -15 q 147 71 244 -15 q 42 299 50 157 l 243 331 q 288 226 244 265 q 399 186 331 186 q 508 226 467 186 q 549 332 549 267 q 506 436 549 397 q 394 475 464 475 q 317 458 353 475 q 265 411 282 440 l 265 410 l 46 460 l 144 986 l 704 986 l 704 778 l 308 778 l 274 596 q 465 665 347 665 z "},"6":{"ha":844,"x_min":49,"x_max":803,"o":"m 482 657 q 715 565 626 657 q 803 324 803 474 q 702 77 803 171 q 436 -17 601 -17 q 156 118 263 -17 q 49 474 49 253 q 157 858 49 713 q 443 1003 265 1003 q 667 933 574 1003 q 779 747 760 863 l 578 717 q 537 779 571 756 q 451 803 503 803 q 309 734 361 803 q 254 543 257 665 q 353 626 293 596 q 482 657 414 657 m 444 182 q 543 221 506 182 q 581 324 581 260 q 543 428 581 389 q 444 468 506 468 q 344 428 382 468 q 306 324 306 389 q 344 221 306 260 q 444 182 382 182 z "},"7":{"ha":764,"x_min":14,"x_max":750,"o":"m 14 986 l 750 986 l 750 785 q 494 471 579 661 q 403 0 410 281 l 167 0 q 485 778 181 533 l 14 778 l 14 986 z "},"8":{"ha":849,"x_min":49,"x_max":800,"o":"m 656 529 q 800 283 800 447 q 697 66 800 149 q 425 -17 594 -17 q 152 66 256 -17 q 49 283 49 149 q 194 529 49 447 q 82 724 82 600 q 176 926 82 850 q 425 1003 271 1003 q 673 926 579 1003 q 767 724 767 850 q 656 529 767 599 m 517 773 q 499 787 517 773 q 425 801 482 801 q 333 773 368 801 q 297 697 297 744 q 333 627 297 654 q 425 600 368 600 q 517 626 482 600 q 551 697 551 653 q 517 773 551 744 m 313 219 q 334 202 313 219 q 425 185 356 185 q 536 219 494 185 q 578 311 578 254 q 536 401 578 367 q 425 436 494 436 q 313 402 356 436 q 271 311 271 368 q 313 219 271 254 z "},"9":{"ha":844,"x_min":42,"x_max":796,"o":"m 408 1003 q 689 868 582 1003 q 796 513 796 733 q 688 128 796 274 q 401 -17 579 -17 q 178 53 271 -17 q 65 239 85 124 l 267 269 q 307 207 272 231 q 393 183 342 183 q 535 253 483 183 q 590 443 588 322 q 491 360 551 390 q 363 329 431 329 q 130 421 218 329 q 42 663 42 513 q 142 909 42 815 q 408 1003 243 1003 m 400 518 q 501 558 463 518 q 539 663 539 597 q 501 765 539 726 q 400 804 463 804 q 301 765 339 804 q 264 663 264 726 q 301 558 264 597 q 400 518 339 518 z "}," ":{"ha":250,"x_min":0,"x_max":0,"o":""},"!":{"ha":361,"x_min":69,"x_max":292,"o":"m 97 319 l 69 713 l 69 1028 l 292 1028 l 292 713 l 264 319 l 97 319 m 83 0 l 83 194 l 278 194 l 278 0 l 83 0 z "},"\"":{"ha":514,"x_min":56,"x_max":458,"o":"m 86 694 l 56 850 l 56 1028 l 222 1028 l 222 850 l 194 694 l 86 694 m 319 694 l 292 850 l 292 1028 l 458 1028 l 458 850 l 431 694 l 319 694 z "},"#":{"ha":1110,"x_min":21,"x_max":1089,"o":"m 219 0 l 257 236 l 21 236 l 47 403 l 283 403 l 313 583 l 76 583 l 103 750 l 339 750 l 376 986 l 543 986 l 506 750 l 686 750 l 724 986 l 890 986 l 853 750 l 1089 750 l 1063 583 l 826 583 l 797 403 l 1033 403 l 1007 236 l 771 236 l 733 0 l 567 0 l 604 236 l 424 236 l 386 0 l 219 0 m 450 403 l 631 403 l 660 583 l 479 583 l 450 403 z "},"$":{"ha":750,"x_min":35,"x_max":708,"o":"m 708 318 q 643 158 708 222 q 465 75 578 93 l 465 -79 l 311 -79 l 311 75 q 131 155 206 93 q 35 307 57 217 l 215 363 q 276 275 228 308 q 392 242 325 242 q 460 263 435 242 q 486 318 486 283 q 415 388 486 372 l 289 417 q 119 506 179 442 q 60 664 60 569 q 124 825 60 760 q 297 910 188 890 l 297 1065 l 451 1065 l 451 911 q 606 841 542 894 q 692 708 669 788 l 511 654 q 464 719 500 694 q 379 743 428 743 q 282 668 282 743 q 358 603 282 622 l 485 574 q 651 483 593 549 q 708 318 708 417 z "},"%":{"ha":1111,"x_min":56,"x_max":1056,"o":"m 439 617 q 408 586 439 617 q 278 556 378 556 q 117 617 178 556 q 56 776 56 678 q 117 940 56 878 q 278 1003 178 1003 q 439 940 378 1003 q 500 776 500 878 q 439 617 500 678 m 185 0 l 61 122 l 926 986 l 1050 863 l 185 0 m 219 718 q 230 707 219 718 q 278 696 242 696 q 337 718 314 696 q 360 776 360 740 q 337 839 360 815 q 278 863 314 863 q 219 839 242 863 q 196 776 196 815 q 219 718 196 740 m 994 44 q 964 14 994 44 q 833 -17 933 -17 q 672 44 733 -17 q 611 204 611 106 q 673 367 611 304 q 833 431 735 431 q 994 368 933 431 q 1056 204 1056 306 q 994 44 1056 106 m 774 146 q 786 135 774 146 q 833 124 797 124 q 892 146 869 124 q 915 204 915 168 q 892 267 915 243 q 833 290 869 290 q 774 267 797 290 q 751 204 751 243 q 774 146 751 168 z "},"&":{"ha":1007,"x_min":56,"x_max":993,"o":"m 993 0 l 711 0 l 638 76 q 381 -14 535 -14 q 140 55 224 -14 q 56 250 56 124 q 217 515 56 422 q 133 732 133 624 q 212 928 133 854 q 418 1003 290 1003 q 622 938 544 1003 q 699 765 699 872 q 656 613 699 682 q 533 500 613 543 l 518 492 l 607 399 q 608 403 608 400 q 697 567 638 518 q 868 615 756 615 l 938 615 l 938 421 l 875 421 q 815 403 836 421 q 783 340 794 385 l 778 318 q 754 247 765 272 l 993 0 m 486 805 q 474 816 486 805 q 422 828 461 828 q 359 801 383 828 q 335 732 335 775 q 390 624 335 682 l 399 615 l 411 622 q 511 746 511 676 q 486 805 511 782 m 408 174 q 507 211 464 174 l 333 390 q 271 283 271 351 q 408 174 271 174 z "},"'":{"ha":278,"x_min":56,"x_max":222,"o":"m 86 694 l 56 850 l 56 1028 l 222 1028 l 222 850 l 194 694 l 86 694 z "},"(":{"ha":368,"x_min":56,"x_max":368,"o":"m 222 -222 q 101 124 147 -71 q 56 489 56 319 q 101 852 56 658 q 222 1194 147 1046 l 368 1194 q 272 858 308 1053 q 235 489 235 664 q 272 118 235 314 q 368 -222 308 -78 l 222 -222 z "},")":{"ha":368,"x_min":0,"x_max":313,"o":"m 0 -222 q 97 118 60 -78 q 133 489 133 314 q 97 858 133 664 q 0 1194 60 1053 l 146 1194 q 267 852 221 1046 q 313 489 313 658 q 267 124 313 319 q 146 -222 221 -71 l 0 -222 z "},"*":{"ha":532,"x_min":28,"x_max":504,"o":"m 211 544 q 221 708 211 631 q 83 618 165 665 l 28 715 q 174 788 106 760 q 28 861 100 819 l 83 958 q 221 867 157 915 q 211 1031 211 947 l 322 1031 q 313 868 322 932 q 449 958 372 914 l 504 861 q 358 789 426 817 q 504 715 432 757 l 449 618 q 313 708 372 663 q 322 544 322 628 l 211 544 z "},"+":{"ha":722,"x_min":83,"x_max":639,"o":"m 639 518 l 639 344 l 449 344 l 449 153 l 275 153 l 275 344 l 83 344 l 83 518 l 275 518 l 275 708 l 449 708 l 449 518 l 639 518 z "},",":{"ha":347,"x_min":56,"x_max":292,"o":"m 56 -169 l 56 -68 l 132 -68 q 174 -28 174 -68 l 174 0 l 56 0 l 56 236 l 292 236 l 292 -15 q 251 -130 292 -90 q 135 -169 210 -169 l 56 -169 z "},"-":{"ha":639,"x_min":42,"x_max":597,"o":"m 42 344 l 42 518 l 597 518 l 597 344 l 42 344 z "},".":{"ha":347,"x_min":56,"x_max":292,"o":"m 56 236 l 292 236 l 292 0 l 56 0 l 56 236 z "},"/":{"ha":456,"x_min":0,"x_max":456,"o":"m 0 0 l 289 1028 l 456 1028 l 167 0 l 0 0 z "},":":{"ha":361,"x_min":56,"x_max":306,"o":"m 56 443 l 56 693 l 306 693 l 306 443 l 56 443 m 56 0 l 56 250 l 306 250 l 306 0 l 56 0 z "},";":{"ha":347,"x_min":56,"x_max":292,"o":"m 57 472 l 57 694 l 292 694 l 292 472 l 57 472 m 56 -169 l 56 -68 l 132 -68 q 174 -28 174 -68 l 174 0 l 56 0 l 56 222 l 292 222 l 292 -15 q 251 -130 292 -90 q 135 -169 210 -169 l 56 -169 z "},"<":{"ha":722,"x_min":83,"x_max":639,"o":"m 639 708 l 639 549 l 275 431 l 639 313 l 639 153 l 83 333 l 83 528 l 639 708 z "},"=":{"ha":722,"x_min":83,"x_max":639,"o":"m 83 486 l 83 646 l 639 646 l 639 486 l 83 486 m 83 215 l 83 375 l 639 375 l 639 215 l 83 215 z "},">":{"ha":722,"x_min":83,"x_max":639,"o":"m 83 708 l 639 528 l 639 333 l 83 153 l 83 313 l 447 431 l 83 549 l 83 708 z "},"?":{"ha":697,"x_min":35,"x_max":663,"o":"m 232 319 l 232 383 q 244 526 232 483 q 296 600 257 568 l 378 665 q 440 767 440 714 q 413 838 440 811 q 343 864 386 864 q 270 834 300 864 q 235 756 240 804 l 35 786 q 139 974 49 903 q 363 1044 229 1044 q 580 968 497 1044 q 663 767 663 892 q 568 592 663 665 l 486 526 q 432 465 446 494 q 418 383 418 435 l 418 319 l 232 319 m 228 0 l 228 194 l 422 194 l 422 0 l 228 0 z "},"@":{"ha":1122,"x_min":42,"x_max":1081,"o":"m 650 1003 q 965 888 850 1003 q 1081 581 1081 772 q 995 275 1081 399 q 786 151 910 151 q 677 188 721 151 q 628 283 633 224 l 624 324 q 565 268 606 289 q 475 247 524 247 q 352 299 397 247 q 307 440 307 351 q 378 647 307 565 q 558 729 450 729 q 641 708 607 729 q 681 650 675 686 l 710 717 l 824 717 l 760 343 q 768 291 754 311 q 811 271 782 271 q 918 358 874 271 q 963 561 963 444 q 873 797 963 708 q 631 885 783 885 q 296 755 429 885 q 163 426 163 625 q 251 190 163 278 q 496 101 340 101 q 638 129 571 101 l 674 24 q 474 -17 565 -17 q 158 99 274 -17 q 42 406 42 214 q 215 834 42 665 q 650 1003 388 1003 m 535 375 q 607 399 576 375 q 649 464 638 424 l 654 496 l 654 510 q 633 576 654 551 q 574 601 611 601 q 480 564 517 601 q 443 467 443 526 q 467 400 443 425 q 535 375 492 375 z "},"A":{"ha":994,"x_min":11,"x_max":983,"o":"m 733 0 l 685 150 l 310 150 l 261 0 l 11 0 l 358 986 l 636 986 l 983 0 l 733 0 m 378 358 l 617 358 l 497 729 l 378 358 z "},"B":{"ha":914,"x_min":83,"x_max":876,"o":"m 729 504 q 836 429 796 489 q 876 288 876 369 q 794 79 876 158 q 576 0 711 0 l 83 0 l 83 986 l 533 986 q 753 913 669 986 q 838 718 838 839 q 808 588 838 644 q 729 510 778 531 l 729 504 m 494 797 l 319 797 l 319 588 l 494 588 q 573 617 543 588 q 603 694 603 646 q 573 769 603 740 q 494 797 543 797 m 517 189 q 606 219 572 189 q 639 301 639 250 q 606 382 639 351 q 517 413 572 413 l 319 413 l 319 189 l 517 189 z "},"C":{"ha":1011,"x_min":42,"x_max":983,"o":"m 533 -17 q 177 124 313 -17 q 42 493 42 264 q 177 863 42 722 q 533 1003 313 1003 q 829 915 706 1003 q 983 682 953 826 l 768 604 q 685 727 747 681 q 540 774 622 774 q 360 697 429 774 q 292 493 292 619 q 360 290 292 367 q 540 213 429 213 q 685 259 622 213 q 768 382 747 306 l 983 304 q 829 72 953 160 q 533 -17 706 -17 z "},"D":{"ha":996,"x_min":83,"x_max":954,"o":"m 463 986 q 819 851 683 986 q 954 494 954 715 q 814 136 954 272 q 443 0 674 0 l 83 0 l 83 986 l 463 986 m 438 222 q 631 297 557 222 q 704 494 704 372 q 631 690 704 615 q 439 764 558 764 l 319 764 l 319 222 l 438 222 z "},"E":{"ha":815,"x_min":83,"x_max":774,"o":"m 319 222 l 774 222 l 774 0 l 83 0 l 83 986 l 760 986 l 760 764 l 319 764 l 319 597 l 690 597 l 690 389 l 319 389 l 319 222 z "},"F":{"ha":781,"x_min":83,"x_max":746,"o":"m 746 764 l 319 764 l 319 568 l 676 568 l 676 360 l 319 360 l 319 0 l 83 0 l 83 986 l 746 986 l 746 764 z "},"G":{"ha":1072,"x_min":42,"x_max":996,"o":"m 511 574 l 996 574 l 996 0 l 836 0 l 783 113 q 499 -17 689 -17 q 167 124 293 -17 q 42 493 42 264 q 177 863 42 722 q 533 1003 313 1003 q 819 921 697 1003 q 978 704 942 839 l 763 626 q 677 733 738 693 q 543 774 617 774 q 360 697 429 774 q 292 493 292 619 q 364 290 292 367 q 554 213 436 213 q 693 258 638 213 q 756 379 749 304 l 511 379 l 511 574 z "},"H":{"ha":1000,"x_min":83,"x_max":917,"o":"m 681 986 l 917 986 l 917 0 l 681 0 l 681 382 l 319 382 l 319 0 l 83 0 l 83 986 l 319 986 l 319 604 l 681 604 l 681 986 z "},"I":{"ha":403,"x_min":83,"x_max":319,"o":"m 83 0 l 83 986 l 319 986 l 319 0 l 83 0 z "},"J":{"ha":875,"x_min":21,"x_max":806,"o":"m 417 -17 q 153 81 261 -17 q 21 340 44 179 l 232 410 q 297 262 244 318 q 422 206 349 206 q 531 251 493 206 q 569 381 569 296 l 569 986 l 806 986 l 806 381 q 699 92 806 201 q 417 -17 592 -17 z "},"K":{"ha":990,"x_min":83,"x_max":976,"o":"m 686 0 l 431 388 l 319 261 l 319 0 l 83 0 l 83 986 l 319 986 l 319 585 l 669 986 l 953 986 l 589 569 l 976 0 l 686 0 z "},"L":{"ha":760,"x_min":83,"x_max":718,"o":"m 319 222 l 718 222 l 718 0 l 83 0 l 83 986 l 319 986 l 319 222 z "},"M":{"ha":1264,"x_min":83,"x_max":1181,"o":"m 865 986 l 1181 986 l 1181 0 l 944 0 l 944 618 l 736 0 l 524 0 l 319 606 l 319 0 l 83 0 l 83 986 l 399 986 l 632 297 l 865 986 z "},"N":{"ha":1014,"x_min":83,"x_max":931,"o":"m 694 986 l 931 986 l 931 0 l 653 0 l 319 624 l 319 0 l 83 0 l 83 986 l 361 986 l 694 363 l 694 986 z "},"O":{"ha":1089,"x_min":42,"x_max":1047,"o":"m 909 123 q 840 53 909 123 q 544 -17 771 -17 q 180 124 318 -17 q 42 493 42 264 q 180 863 42 722 q 544 1003 318 1003 q 909 863 771 1003 q 1047 492 1047 722 q 909 123 1047 263 m 361 290 q 396 251 361 290 q 544 213 431 213 q 728 289 658 213 q 797 492 797 365 q 728 696 797 618 q 544 774 658 774 q 361 697 431 774 q 292 493 292 619 q 361 290 292 367 z "},"P":{"ha":903,"x_min":83,"x_max":861,"o":"m 513 986 q 765 887 669 986 q 861 625 861 788 q 765 363 861 463 q 513 264 669 264 l 319 264 l 319 0 l 83 0 l 83 986 l 513 986 m 476 486 q 579 524 540 486 q 618 625 618 563 q 579 726 618 688 q 476 764 540 764 l 319 764 l 319 486 l 476 486 z "},"Q":{"ha":1113,"x_min":42,"x_max":1071,"o":"m 1071 69 l 925 -74 l 808 44 q 549 -17 697 -17 q 181 124 321 -17 q 42 493 42 264 q 181 863 42 722 q 549 1003 321 1003 q 916 863 776 1003 q 1056 493 1056 722 q 963 179 1056 308 l 1071 69 m 549 213 q 631 225 593 213 l 503 354 l 647 499 l 781 363 q 806 493 806 421 q 735 697 806 619 q 549 774 664 774 q 363 697 433 774 q 292 493 292 619 q 363 290 292 367 q 549 213 433 213 z "},"R":{"ha":932,"x_min":83,"x_max":883,"o":"m 621 0 l 481 319 l 319 319 l 319 0 l 83 0 l 83 986 l 513 986 q 765 894 669 986 q 861 653 861 803 q 820 483 861 557 q 706 367 779 408 l 883 0 l 621 0 m 319 764 l 319 542 l 490 542 q 583 572 547 542 q 618 653 618 603 q 583 733 618 703 q 490 764 547 764 l 319 764 z "},"S":{"ha":872,"x_min":35,"x_max":831,"o":"m 435 -17 q 156 69 267 -17 q 35 294 46 154 l 254 328 q 312 224 258 264 q 449 185 365 185 q 549 212 511 185 q 588 282 588 239 q 506 364 588 347 l 313 410 q 125 513 190 439 q 60 699 60 588 q 167 919 60 835 q 449 1003 274 1003 q 678 932 581 1003 q 803 744 776 861 l 592 681 q 542 768 585 735 q 435 801 499 801 q 339 773 375 801 q 303 699 303 744 q 393 621 303 642 l 585 572 q 831 282 831 510 q 722 65 831 147 q 435 -17 613 -17 z "},"T":{"ha":875,"x_min":28,"x_max":847,"o":"m 847 986 l 847 764 l 556 764 l 556 0 l 319 0 l 319 764 l 28 764 l 28 986 l 847 986 z "},"U":{"ha":975,"x_min":69,"x_max":906,"o":"m 792 96 q 735 40 792 96 q 488 -17 678 -17 q 183 96 297 -17 q 69 394 69 208 l 69 986 l 306 986 l 306 394 q 354 257 306 308 q 488 206 403 206 q 621 257 572 206 q 669 394 669 308 l 669 986 l 906 986 l 906 394 q 792 96 906 208 z "},"V":{"ha":983,"x_min":11,"x_max":972,"o":"m 711 986 l 972 986 l 653 0 l 331 0 l 11 986 l 276 986 l 494 251 l 711 986 z "},"W":{"ha":1449,"x_min":11,"x_max":1438,"o":"m 1176 986 l 1438 986 l 1151 0 l 894 0 l 725 592 l 554 0 l 297 0 l 11 986 l 276 986 l 440 328 l 590 986 l 858 986 l 1011 319 l 1176 986 z "},"X":{"ha":985,"x_min":21,"x_max":964,"o":"m 964 0 l 693 0 l 493 329 l 292 0 l 21 0 l 322 494 l 24 986 l 286 986 l 489 651 l 692 986 l 954 986 l 660 500 l 964 0 z "},"Y":{"ha":925,"x_min":0,"x_max":925,"o":"m 925 986 l 581 322 l 581 0 l 344 0 l 344 322 l 0 986 l 278 986 l 463 581 l 647 986 l 925 986 z "},"Z":{"ha":844,"x_min":49,"x_max":796,"o":"m 796 986 l 796 778 l 340 222 l 796 222 l 796 0 l 49 0 l 49 208 l 506 764 l 60 764 l 60 986 l 796 986 z "},"[":{"ha":472,"x_min":83,"x_max":417,"o":"m 417 1028 l 250 1028 l 250 -56 l 417 -56 l 417 -222 l 83 -222 l 83 1194 l 417 1194 l 417 1028 z "},"\\":{"ha":457,"x_min":0,"x_max":457,"o":"m 290 0 l 0 1028 l 167 1028 l 457 0 l 290 0 z "},"]":{"ha":472,"x_min":56,"x_max":389,"o":"m 389 1194 l 389 -222 l 56 -222 l 56 -56 l 222 -56 l 222 1028 l 56 1028 l 56 1194 l 389 1194 z "},"^":{"ha":667,"x_min":56,"x_max":611,"o":"m 611 431 l 451 431 l 333 794 l 215 431 l 56 431 l 236 986 l 431 986 l 611 431 z "},"_":{"ha":583,"x_min":14,"x_max":569,"o":"m 14 0 l 14 174 l 569 174 l 569 0 l 14 0 z "},"`":{"ha":451,"x_min":69,"x_max":382,"o":"m 306 1035 l 382 804 l 215 804 l 69 1035 l 306 1035 z "},"a":{"ha":779,"x_min":42,"x_max":751,"o":"m 717 181 l 751 181 l 751 0 l 633 0 q 485 75 524 0 q 271 -17 418 -17 q 101 36 160 -17 q 42 188 42 89 q 96 320 42 268 q 253 388 150 372 l 414 413 q 467 468 467 421 l 467 471 q 379 531 467 531 q 265 438 285 531 l 69 486 q 179 653 99 594 q 382 711 260 711 q 609 646 529 711 q 689 460 689 581 l 689 219 q 717 181 689 181 m 349 140 q 434 176 401 140 q 467 269 467 211 l 467 285 l 333 264 q 264 200 264 253 q 349 140 264 140 z "},"b":{"ha":858,"x_min":69,"x_max":810,"o":"m 494 711 q 723 611 636 711 q 810 347 810 511 q 723 83 810 183 q 494 -17 636 -17 q 365 16 419 -17 q 297 101 311 49 l 292 101 l 264 0 l 69 0 l 69 1028 l 292 1028 l 292 594 l 297 594 q 365 679 311 647 q 494 711 419 711 m 439 185 q 544 230 504 185 q 583 347 583 275 q 544 464 583 419 q 439 508 504 508 q 332 465 372 508 q 292 347 292 421 q 332 229 292 274 q 439 185 372 185 z "},"c":{"ha":775,"x_min":49,"x_max":747,"o":"m 431 -17 q 153 83 258 -17 q 49 347 49 183 q 153 611 49 511 q 431 711 258 711 q 620 655 533 711 q 747 506 707 599 l 556 424 q 506 481 540 460 q 429 503 472 503 q 317 460 360 503 q 275 347 275 417 q 317 235 275 278 q 429 192 360 192 q 506 213 472 192 q 556 271 540 235 l 747 189 q 620 40 707 96 q 431 -17 533 -17 z "},"d":{"ha":858,"x_min":49,"x_max":789,"o":"m 567 1028 l 789 1028 l 789 0 l 594 0 l 567 101 l 561 101 q 493 16 547 49 q 364 -17 439 -17 q 135 83 222 -17 q 49 347 49 183 q 135 611 49 511 q 364 711 222 711 q 493 679 439 711 q 561 594 547 647 l 567 594 l 567 1028 m 419 185 q 526 229 486 185 q 567 347 567 274 q 526 465 567 421 q 419 508 486 508 q 315 464 354 508 q 275 347 275 419 q 315 230 275 275 q 419 185 354 185 z "},"e":{"ha":788,"x_min":49,"x_max":739,"o":"m 739 347 l 739 281 l 260 281 q 413 172 289 172 q 544 236 515 172 l 718 163 q 596 33 681 82 q 411 -17 511 -17 q 148 83 247 -17 q 49 347 49 183 q 144 611 49 511 q 397 711 240 711 q 645 611 551 711 q 739 347 739 511 m 390 522 q 257 406 281 522 l 529 406 q 390 522 514 522 z "},"f":{"ha":610,"x_min":21,"x_max":582,"o":"m 478 833 q 381 753 381 833 l 381 694 l 582 694 l 582 500 l 381 500 l 381 0 l 158 0 l 158 500 l 21 500 l 21 694 l 158 694 l 158 769 q 226 961 158 894 q 422 1028 294 1028 l 582 1028 l 582 833 l 478 833 z "},"g":{"ha":854,"x_min":49,"x_max":785,"o":"m 590 694 l 785 694 l 785 68 q 680 -195 785 -96 q 401 -294 575 -294 q 192 -238 289 -294 q 49 -89 94 -182 l 232 13 q 297 -69 251 -39 q 396 -100 342 -100 q 517 -52 471 -100 q 563 75 563 -4 l 563 138 l 557 138 q 490 58 544 89 q 360 28 436 28 q 134 122 219 28 q 49 369 49 215 q 134 617 49 524 q 360 711 219 711 q 490 681 436 711 q 557 600 544 650 l 563 600 l 590 694 m 415 218 q 522 260 482 218 q 563 369 563 301 q 522 481 563 439 q 415 522 482 522 q 310 480 350 522 q 271 369 271 438 q 310 260 271 301 q 415 218 350 218 z "},"h":{"ha":813,"x_min":69,"x_max":750,"o":"m 503 711 q 682 640 614 711 q 750 453 750 569 l 750 0 l 528 0 l 528 375 q 496 467 528 432 q 411 503 464 503 q 324 467 357 503 q 292 375 292 432 l 292 0 l 69 0 l 69 1028 l 292 1028 l 292 592 l 297 592 q 370 678 314 646 q 503 711 426 711 z "},"i":{"ha":361,"x_min":69,"x_max":292,"o":"m 69 806 l 69 1028 l 292 1028 l 292 806 l 69 806 m 69 0 l 69 694 l 292 694 l 292 0 l 69 0 z "},"j":{"ha":361,"x_min":-104,"x_max":292,"o":"m 69 806 l 69 1028 l 292 1028 l 292 806 l 69 806 m -104 -278 l -104 -83 l 0 -83 q 69 -17 69 -83 l 69 694 l 292 694 l 292 -19 q 224 -211 292 -144 q 28 -278 156 -278 l -104 -278 z "},"k":{"ha":821,"x_min":69,"x_max":814,"o":"m 549 0 l 375 256 l 292 169 l 292 0 l 69 0 l 69 1028 l 292 1028 l 292 450 l 533 694 l 800 694 l 531 417 l 814 0 l 549 0 z "},"l":{"ha":471,"x_min":56,"x_max":443,"o":"m 443 0 l 319 0 q 124 67 192 0 q 56 258 56 133 l 56 1028 l 278 1028 l 278 275 q 347 208 278 208 l 443 208 l 443 0 z "},"m":{"ha":1243,"x_min":69,"x_max":1181,"o":"m 919 711 q 1109 640 1038 711 q 1181 453 1181 569 l 1181 0 l 958 0 l 958 382 q 928 469 958 436 q 849 503 897 503 q 767 469 797 503 q 736 382 736 436 l 736 0 l 514 0 l 514 382 q 483 469 514 436 q 404 503 453 503 q 322 469 353 503 q 292 382 292 436 l 292 0 l 69 0 l 69 694 l 264 694 l 292 592 l 297 592 q 368 678 314 646 q 496 711 422 711 q 704 592 642 711 l 708 592 q 789 678 731 646 q 919 711 847 711 z "},"n":{"ha":813,"x_min":69,"x_max":750,"o":"m 503 711 q 682 640 614 711 q 750 453 750 569 l 750 0 l 528 0 l 528 375 q 496 467 528 432 q 411 503 464 503 q 324 467 357 503 q 292 375 292 432 l 292 0 l 69 0 l 69 694 l 264 694 l 292 592 l 297 592 q 370 678 314 646 q 503 711 426 711 z "},"o":{"ha":843,"x_min":49,"x_max":794,"o":"m 692 85 q 641 35 692 85 q 422 -15 590 -15 q 151 85 254 -15 q 49 349 49 185 q 151 613 49 513 q 422 714 254 714 q 692 613 590 714 q 794 349 794 513 q 692 85 794 185 m 422 193 q 528 236 488 193 q 568 349 568 279 q 528 463 568 419 q 422 506 488 506 q 315 463 356 506 q 275 349 275 419 q 315 236 275 279 q 422 193 356 193 z "},"p":{"ha":858,"x_min":69,"x_max":810,"o":"m 494 711 q 723 611 636 711 q 810 347 810 511 q 723 83 810 183 q 494 -17 636 -17 q 365 15 419 -17 q 297 100 311 47 l 292 100 l 292 -278 l 69 -278 l 69 694 l 264 694 l 292 593 l 297 593 q 365 678 311 646 q 494 711 419 711 m 439 186 q 544 231 504 186 q 583 347 583 275 q 544 465 583 419 q 439 510 504 510 q 332 465 372 510 q 292 347 292 421 q 332 230 292 274 q 439 186 372 186 z "},"q":{"ha":858,"x_min":49,"x_max":789,"o":"m 594 694 l 789 694 l 789 -278 l 567 -278 l 567 100 l 561 100 q 493 15 547 47 q 364 -17 439 -17 q 135 83 222 -17 q 49 347 49 183 q 135 611 49 511 q 364 711 222 711 q 493 678 439 711 q 561 593 547 646 l 567 593 l 594 694 m 419 186 q 526 230 486 186 q 567 347 567 274 q 526 465 567 421 q 419 510 486 510 q 315 465 354 510 q 275 347 275 419 q 315 231 275 275 q 419 186 354 186 z "},"r":{"ha":563,"x_min":69,"x_max":542,"o":"m 463 694 l 542 694 l 542 472 l 435 472 q 331 424 371 472 q 292 296 292 375 l 292 0 l 69 0 l 69 694 l 264 694 l 292 561 l 294 561 q 355 658 308 621 q 463 694 401 694 z "},"s":{"ha":672,"x_min":28,"x_max":644,"o":"m 217 232 q 252 176 218 197 q 339 154 286 154 q 399 168 376 154 q 422 206 422 182 q 386 244 422 238 l 268 268 q 103 344 160 290 q 46 479 46 399 q 129 647 46 583 q 347 711 213 711 q 524 660 447 711 q 626 528 600 610 l 440 472 q 407 522 433 503 q 342 540 381 540 q 288 526 308 540 q 268 489 268 513 q 319 444 268 454 l 438 421 q 591 349 538 401 q 644 219 644 297 q 562 49 644 114 q 343 -17 479 -17 q 128 44 215 -17 q 28 203 42 104 l 217 232 z "},"t":{"ha":622,"x_min":7,"x_max":581,"o":"m 581 500 l 379 500 l 379 275 q 476 194 379 194 l 581 194 l 581 0 l 421 0 q 225 67 293 0 q 157 258 157 133 l 157 500 l 7 500 l 7 694 l 157 694 l 157 908 l 379 908 l 379 694 l 581 694 l 581 500 z "},"u":{"ha":813,"x_min":63,"x_max":743,"o":"m 521 694 l 743 694 l 743 0 l 549 0 l 521 101 l 515 101 q 442 16 499 49 q 310 -17 386 -17 q 131 54 199 -17 q 63 242 63 125 l 63 694 l 285 694 l 285 319 q 317 227 285 263 q 401 192 349 192 q 488 227 456 192 q 521 319 521 263 l 521 694 z "},"v":{"ha":764,"x_min":7,"x_max":757,"o":"m 506 694 l 757 694 l 528 0 l 236 0 l 7 694 l 263 694 l 385 224 l 506 694 z "},"w":{"ha":1132,"x_min":7,"x_max":1125,"o":"m 878 694 l 1125 694 l 926 0 l 644 0 l 567 371 l 488 0 l 206 0 l 7 694 l 258 694 l 356 221 l 468 694 l 664 694 l 778 211 l 878 694 z "},"x":{"ha":785,"x_min":14,"x_max":771,"o":"m 771 694 l 546 343 l 767 0 l 507 0 l 392 179 l 278 0 l 18 0 l 239 342 l 14 694 l 274 694 l 393 506 l 511 694 l 771 694 z "},"y":{"ha":753,"x_min":7,"x_max":746,"o":"m 500 694 l 746 694 l 518 0 l 499 -58 q 394 -224 461 -171 q 221 -278 326 -278 l 36 -278 l 36 -83 l 203 -83 q 249 -54 249 -83 q 244 -33 249 -46 l 7 694 l 257 694 l 378 185 l 500 694 z "},"z":{"ha":719,"x_min":49,"x_max":671,"o":"m 671 694 l 671 554 l 361 194 l 671 194 l 671 0 l 49 0 l 49 140 l 360 500 l 57 500 l 57 694 l 671 694 z "},"{":{"ha":493,"x_min":21,"x_max":451,"o":"m 285 557 q 229 486 285 503 q 285 415 285 469 l 285 -6 q 338 -56 285 -56 l 451 -56 l 451 -222 l 317 -222 q 169 -172 221 -222 q 118 -28 118 -122 l 118 318 q 92 390 118 363 q 21 417 65 417 l 21 556 q 92 583 65 556 q 118 654 118 610 l 118 1000 q 169 1144 118 1094 q 317 1194 221 1194 l 451 1194 l 451 1028 l 338 1028 q 285 978 285 1028 l 285 557 z "},"|":{"ha":278,"x_min":56,"x_max":222,"o":"m 56 -278 l 56 986 l 222 986 l 222 -278 l 56 -278 z "},"}":{"ha":493,"x_min":42,"x_max":472,"o":"m 375 654 q 401 583 375 610 q 472 556 428 556 l 472 417 q 401 390 428 417 q 375 318 375 363 l 375 -28 q 324 -172 375 -122 q 176 -222 272 -222 l 42 -222 l 42 -56 l 156 -56 q 208 -6 208 -56 l 208 415 q 264 486 208 469 q 208 557 208 503 l 208 978 q 156 1028 208 1028 l 42 1028 l 42 1194 l 176 1194 q 324 1144 272 1194 q 375 1000 375 1094 l 375 654 z "},"~":{"ha":839,"x_min":56,"x_max":783,"o":"m 56 344 l 226 344 q 246 410 226 385 q 294 435 265 435 q 422 390 344 435 q 563 344 499 344 q 722 410 661 344 q 783 582 783 475 l 783 642 l 613 642 q 593 577 613 601 q 543 553 574 553 q 416 597 493 553 q 275 642 339 642 q 116 576 176 642 q 56 404 56 511 l 56 344 z "},"¡":{"ha":361,"x_min":69,"x_max":292,"o":"m 83 554 l 83 749 l 278 749 l 278 554 l 83 554 m 69 -279 l 69 36 l 97 429 l 264 429 l 292 36 l 292 -279 l 69 -279 z "},"¢":{"ha":851,"x_min":42,"x_max":824,"o":"m 453 278 q 569 313 521 278 q 628 407 617 349 l 824 336 q 724 164 803 233 q 528 75 644 94 l 528 -79 l 374 -79 l 374 75 q 132 211 222 99 q 42 493 42 324 q 127 769 42 658 q 360 908 213 881 l 360 1065 l 514 1065 l 514 913 q 719 826 635 897 q 824 650 803 756 l 628 579 q 569 673 617 638 q 453 708 521 708 q 316 649 368 708 q 264 493 264 590 q 316 337 264 396 q 453 278 368 278 z "},"£":{"ha":813,"x_min":83,"x_max":757,"o":"m 458 357 q 421 257 458 299 l 725 257 l 725 76 l 97 76 l 97 257 q 208 280 167 257 q 250 343 250 303 q 244 390 250 372 l 83 390 l 83 501 l 188 501 q 156 547 167 529 q 135 597 146 564 q 125 665 125 629 q 214 849 125 779 q 447 918 303 918 q 646 861 561 918 q 757 710 731 804 l 576 656 q 529 720 565 696 q 444 744 493 744 q 374 724 400 744 q 347 668 347 703 q 349 638 347 651 q 355 609 350 624 q 363 585 360 594 q 374 561 365 576 q 385 542 382 546 q 399 520 388 538 q 411 501 410 503 l 638 501 l 638 390 l 456 390 q 458 357 458 371 z "},"¤":{"ha":814,"x_min":56,"x_max":758,"o":"m 758 250 l 642 132 l 543 231 q 407 197 479 197 q 272 229 333 197 l 174 131 l 56 250 l 153 347 q 121 482 121 408 q 154 618 121 554 l 56 715 l 174 835 l 272 736 q 407 769 336 769 q 542 736 478 769 l 640 835 l 757 717 l 660 618 q 694 482 694 556 q 661 347 694 411 l 758 250 m 286 483 q 322 397 286 432 q 407 361 358 361 q 494 397 458 361 q 529 483 529 432 q 494 569 529 533 q 407 606 458 606 q 321 571 356 606 q 286 483 286 536 z "},"¥":{"ha":772,"x_min":0,"x_max":772,"o":"m 772 910 l 506 457 l 710 457 l 710 353 l 490 353 l 490 300 l 710 300 l 710 196 l 490 196 l 490 76 l 282 76 l 282 196 l 63 196 l 63 300 l 282 300 l 282 353 l 63 353 l 63 457 l 267 457 l 0 910 l 243 910 l 386 618 l 529 910 l 772 910 z "},"¦":{"ha":278,"x_min":56,"x_max":222,"o":"m 56 486 l 56 986 l 222 986 l 222 486 l 56 486 m 56 -278 l 56 222 l 222 222 l 222 -278 l 56 -278 z "},"§":{"ha":699,"x_min":35,"x_max":657,"o":"m 597 357 q 657 221 657 301 q 573 49 657 114 q 353 -17 489 -17 q 137 44 225 -17 q 35 204 49 104 l 225 233 q 265 177 231 199 q 349 156 299 156 q 409 170 386 156 q 432 207 432 185 q 396 246 432 239 l 278 269 q 111 348 169 293 q 53 483 53 403 q 113 632 53 572 q 53 768 53 685 q 137 938 53 874 q 357 1003 221 1003 q 535 952 458 1003 q 639 818 611 901 l 450 761 q 414 812 442 792 q 351 832 386 832 q 298 817 318 832 q 278 778 278 801 q 329 733 278 744 l 447 710 q 603 638 549 690 q 657 507 657 585 q 597 357 657 417 m 278 493 q 329 449 278 457 l 361 442 q 413 459 393 444 q 432 493 432 474 q 396 532 432 525 l 338 543 q 294 527 310 540 q 278 493 278 514 z "},"¨":{"ha":750,"x_min":69,"x_max":681,"o":"m 69 804 l 69 999 l 292 999 l 292 804 l 69 804 m 458 804 l 458 999 l 681 999 l 681 804 l 458 804 z "},"©":{"ha":1103,"x_min":42,"x_max":1061,"o":"m 911 133 q 836 58 911 133 q 551 -17 761 -17 q 192 133 342 -17 q 42 493 42 283 q 192 853 42 703 q 551 1003 342 1003 q 911 853 761 1003 q 1061 493 1061 703 q 911 133 1061 283 m 553 101 q 829 217 714 101 q 944 493 944 332 q 829 769 944 654 q 553 885 714 885 q 275 769 390 885 q 160 493 160 654 q 275 217 160 332 q 553 101 390 101 m 574 228 q 372 301 449 228 q 296 493 296 374 q 372 685 296 613 q 574 758 449 758 q 712 717 649 758 q 804 608 775 676 l 682 557 q 636 607 667 588 q 572 626 606 626 q 478 590 514 626 q 442 493 442 553 q 478 397 442 433 q 572 360 514 360 q 636 379 606 360 q 682 429 667 399 l 804 378 q 712 269 775 310 q 574 228 649 228 z "},"ª":{"ha":542,"x_min":42,"x_max":514,"o":"m 492 649 l 514 649 l 514 529 l 436 529 q 336 579 361 529 q 194 518 293 518 q 81 553 121 518 q 42 654 42 588 q 182 788 42 765 l 289 804 q 325 840 325 810 l 325 843 q 267 882 325 882 q 190 821 203 882 l 60 853 q 268 1003 101 1003 q 419 960 367 1003 q 472 835 472 917 l 472 675 q 492 649 472 649 m 246 622 q 303 646 282 622 q 325 708 325 669 l 325 718 l 236 704 q 189 663 189 697 q 246 622 189 622 z "},"«":{"ha":844,"x_min":42,"x_max":803,"o":"m 458 694 l 247 347 l 458 0 l 253 0 l 42 347 l 253 694 l 458 694 m 803 694 l 592 347 l 803 0 l 597 0 l 386 347 l 597 694 l 803 694 z "},"¬":{"ha":708,"x_min":56,"x_max":653,"o":"m 56 518 l 653 518 l 653 153 l 479 153 l 479 344 l 56 344 l 56 518 z "},"®":{"ha":663,"x_min":56,"x_max":607,"o":"m 332 454 q 137 535 218 454 q 56 728 56 615 q 137 922 56 842 q 332 1003 218 1003 q 526 922 444 1003 q 607 728 607 842 q 526 535 607 615 q 332 454 444 454 m 183 580 q 214 549 183 580 q 332 518 244 518 q 481 580 419 518 q 542 728 542 642 q 481 877 542 815 q 332 939 419 939 q 183 877 244 939 q 121 728 121 815 q 183 580 121 642 m 232 588 l 232 865 l 353 865 q 423 840 397 865 q 450 769 449 814 q 418 703 453 725 q 447 654 444 693 l 449 621 q 457 588 451 589 l 388 588 q 383 619 386 592 l 381 656 q 360 676 379 676 l 297 676 l 297 588 l 232 588 m 297 736 l 347 736 q 383 769 383 736 q 347 801 383 801 l 297 801 l 297 736 z "},"¯":{"ha":603,"x_min":69,"x_max":533,"o":"m 69 804 l 69 971 l 533 971 l 533 804 l 69 804 z "},"°":{"ha":556,"x_min":56,"x_max":500,"o":"m 439 617 q 408 586 439 617 q 278 556 378 556 q 117 617 178 556 q 56 776 56 678 q 117 940 56 878 q 278 1003 178 1003 q 439 940 378 1003 q 500 776 500 878 q 439 617 500 678 m 219 718 q 230 707 219 718 q 278 696 242 696 q 337 718 314 696 q 360 776 360 740 q 337 839 360 815 q 278 863 314 863 q 219 839 242 863 q 196 776 196 815 q 219 718 196 740 z "},"±":{"ha":722,"x_min":83,"x_max":639,"o":"m 449 639 l 639 639 l 639 465 l 449 465 l 449 354 l 275 354 l 275 465 l 83 465 l 83 639 l 275 639 l 275 750 l 449 750 l 449 639 m 83 146 l 83 319 l 639 319 l 639 146 l 83 146 z "},"²":{"ha":556,"x_min":35,"x_max":514,"o":"m 257 846 q 218 793 218 821 l 514 793 l 514 654 l 35 654 l 35 678 q 64 842 35 781 q 165 951 93 904 l 306 1043 q 347 1107 347 1071 q 328 1152 347 1135 q 276 1169 308 1169 q 216 1149 239 1169 q 192 1093 193 1128 l 39 1117 q 115 1266 50 1210 q 274 1322 179 1322 q 448 1266 382 1322 q 514 1118 514 1210 q 393 935 514 1014 l 257 846 z "},"³":{"ha":561,"x_min":35,"x_max":519,"o":"m 426 986 q 519 838 519 949 q 453 697 519 750 q 279 643 388 643 q 113 699 181 643 q 35 849 44 756 l 174 871 q 204 806 175 831 q 278 782 233 782 q 342 802 318 782 q 367 854 367 822 q 341 904 367 885 q 274 924 315 924 l 231 924 l 231 1051 l 261 1051 q 331 1069 304 1051 q 358 1117 358 1088 q 335 1165 358 1147 q 275 1183 313 1183 q 203 1159 231 1183 q 174 1096 175 1135 l 35 1117 q 113 1266 46 1210 q 278 1322 179 1322 q 447 1266 382 1322 q 511 1118 511 1210 q 426 986 511 1022 z "},"´":{"ha":451,"x_min":69,"x_max":382,"o":"m 146 1035 l 382 1035 l 236 804 l 69 804 l 146 1035 z "},"¶":{"ha":968,"x_min":56,"x_max":913,"o":"m 913 1028 l 913 889 l 825 889 l 825 -111 l 686 -111 l 686 889 l 560 889 l 560 57 q 514 -65 560 -19 q 393 -111 468 -111 l 247 -111 l 247 28 l 351 28 q 402 47 383 28 q 421 99 421 67 l 421 408 l 367 408 q 147 499 238 408 q 56 719 56 590 q 147 938 56 847 q 367 1028 238 1028 l 913 1028 z "},"·":{"ha":417,"x_min":83,"x_max":333,"o":"m 83 556 l 333 556 l 333 306 l 83 306 l 83 556 z "},"¸":{"ha":474,"x_min":69,"x_max":404,"o":"m 314 -44 q 404 -164 404 -76 q 360 -258 404 -222 q 243 -294 315 -294 q 145 -272 193 -294 q 69 -211 97 -249 l 157 -149 q 242 -192 189 -192 q 292 -156 292 -192 q 281 -131 292 -140 q 251 -121 269 -121 l 197 -121 l 168 -81 l 236 31 l 363 31 l 314 -44 z "},"¹":{"ha":425,"x_min":28,"x_max":342,"o":"m 342 1311 l 342 654 l 185 654 l 185 1071 l 28 1071 l 28 1190 l 36 1190 q 199 1311 175 1193 l 342 1311 z "},"º":{"ha":600,"x_min":49,"x_max":551,"o":"m 483 583 q 448 550 483 583 q 300 517 414 517 q 117 583 186 517 q 49 760 49 650 q 117 936 49 869 q 300 1003 186 1003 q 483 936 414 1003 q 551 760 551 869 q 483 583 551 650 m 227 684 q 241 670 227 684 q 300 656 256 656 q 372 684 344 656 q 400 760 400 713 q 372 835 400 807 q 300 864 344 864 q 227 835 256 864 q 199 760 199 807 q 227 684 199 713 z "},"»":{"ha":844,"x_min":42,"x_max":803,"o":"m 247 694 l 458 347 l 247 0 l 42 0 l 253 347 l 42 694 l 247 694 m 592 694 l 803 347 l 592 0 l 386 0 l 597 347 l 386 694 l 592 694 z "},"¼":{"ha":1351,"x_min":28,"x_max":1268,"o":"m 342 376 l 185 376 l 185 793 l 28 793 l 28 913 l 36 913 q 199 1033 175 915 l 342 1033 l 342 376 m 900 1028 l 1074 1028 l 368 0 l 194 0 l 900 1028 m 1268 258 l 1268 124 l 1171 124 l 1171 -6 l 1018 -6 l 1018 124 l 738 124 l 738 263 l 1014 651 l 1171 651 l 1171 258 l 1268 258 m 889 258 l 1018 258 l 1018 440 l 889 258 z "},"½":{"ha":1408,"x_min":28,"x_max":1325,"o":"m 342 376 l 185 376 l 185 793 l 28 793 l 28 913 l 36 913 q 199 1033 175 915 l 342 1033 l 342 376 m 900 1028 l 1074 1028 l 368 0 l 194 0 l 900 1028 m 1068 186 q 1029 133 1029 161 l 1325 133 l 1325 -6 l 846 -6 l 846 18 q 875 183 846 121 q 976 292 904 244 l 1117 383 q 1158 447 1158 411 q 1139 492 1158 475 q 1088 510 1119 510 q 1027 489 1050 510 q 1003 433 1004 468 l 850 457 q 926 606 861 550 q 1085 663 990 663 q 1259 606 1193 663 q 1325 458 1325 550 q 1204 275 1325 354 l 1068 186 z "},"¾":{"ha":1418,"x_min":35,"x_max":1376,"o":"m 519 560 q 453 419 519 472 q 279 365 388 365 q 113 422 181 365 q 35 571 44 478 l 174 593 q 204 528 175 553 q 278 504 233 504 q 342 524 318 504 q 367 576 367 544 q 341 626 367 607 q 274 646 315 646 l 231 646 l 231 774 l 261 774 q 331 792 304 774 q 358 839 358 810 q 335 888 358 869 q 275 906 313 906 q 203 881 231 906 q 174 818 175 857 l 35 839 q 113 988 46 932 q 278 1044 179 1044 q 447 988 382 1044 q 511 840 511 932 q 426 708 511 744 q 519 560 519 671 m 1019 1028 l 1193 1028 l 488 0 l 314 0 l 1019 1028 m 1376 258 l 1376 124 l 1279 124 l 1279 -6 l 1126 -6 l 1126 124 l 846 124 l 846 263 l 1122 651 l 1279 651 l 1279 258 l 1376 258 m 997 258 l 1126 258 l 1126 440 l 997 258 z "},"¿":{"ha":697,"x_min":35,"x_max":663,"o":"m 275 558 l 275 753 l 469 753 l 469 558 l 275 558 m 335 -292 q 117 -215 200 -292 q 35 -14 35 -139 q 129 161 35 88 l 211 226 q 265 288 251 258 q 279 369 279 318 l 279 433 l 465 433 l 465 369 q 453 227 465 269 q 401 153 440 185 l 319 88 q 257 -14 257 39 q 284 -85 257 -58 q 354 -111 311 -111 q 427 -81 397 -111 q 463 -3 457 -51 l 663 -33 q 558 -221 649 -150 q 335 -292 468 -292 z "},"À":{"ha":994,"x_min":11,"x_max":983,"o":"m 590 1096 l 424 1096 l 278 1326 l 514 1326 l 590 1096 m 733 0 l 685 150 l 310 150 l 261 0 l 11 0 l 358 986 l 636 986 l 983 0 l 733 0 m 378 358 l 617 358 l 497 729 l 378 358 z "},"Á":{"ha":994,"x_min":11,"x_max":983,"o":"m 706 1326 l 560 1096 l 393 1096 l 469 1326 l 706 1326 m 733 0 l 685 150 l 310 150 l 261 0 l 11 0 l 358 986 l 636 986 l 983 0 l 733 0 m 378 358 l 617 358 l 497 729 l 378 358 z "},"Â":{"ha":994,"x_min":11,"x_max":983,"o":"m 501 1204 l 444 1096 l 224 1096 l 393 1339 l 610 1339 l 779 1096 l 557 1096 l 501 1204 m 733 0 l 685 150 l 310 150 l 261 0 l 11 0 l 358 986 l 636 986 l 983 0 l 733 0 m 378 358 l 617 358 l 497 729 l 378 358 z "},"Ã":{"ha":994,"x_min":11,"x_max":983,"o":"m 411 1158 q 377 1141 390 1158 q 364 1096 364 1124 l 244 1096 l 244 1138 q 287 1257 244 1211 q 397 1303 329 1303 q 495 1272 442 1303 q 583 1240 549 1240 q 619 1258 606 1240 q 632 1303 632 1275 l 750 1303 l 750 1261 q 708 1142 750 1188 q 597 1096 665 1096 q 494 1127 544 1096 q 411 1158 444 1158 m 733 0 l 685 150 l 310 150 l 261 0 l 11 0 l 358 986 l 636 986 l 983 0 l 733 0 m 378 358 l 617 358 l 497 729 l 378 358 z "},"Ä":{"ha":994,"x_min":11,"x_max":983,"o":"m 414 1290 l 414 1096 l 192 1096 l 192 1290 l 414 1290 m 803 1290 l 803 1096 l 581 1096 l 581 1290 l 803 1290 m 733 0 l 685 150 l 310 150 l 261 0 l 11 0 l 358 986 l 636 986 l 983 0 l 733 0 m 378 358 l 617 358 l 497 729 l 378 358 z "},"Å":{"ha":994,"x_min":11,"x_max":983,"o":"m 499 1082 q 388 1122 429 1082 q 346 1229 346 1163 q 388 1341 346 1299 q 499 1383 429 1383 q 608 1341 567 1383 q 649 1229 649 1299 q 608 1122 649 1163 q 499 1082 567 1082 m 531 1263 q 524 1269 531 1263 q 497 1275 518 1275 q 464 1263 476 1275 q 451 1229 451 1250 q 464 1196 451 1208 q 497 1183 476 1183 q 531 1196 518 1183 q 543 1229 543 1208 q 531 1263 543 1250 m 733 0 l 685 150 l 310 150 l 261 0 l 11 0 l 358 986 l 636 986 l 983 0 l 733 0 m 378 358 l 617 358 l 497 729 l 378 358 z "},"Æ":{"ha":1344,"x_min":11,"x_max":1303,"o":"m 849 222 l 1303 222 l 1303 0 l 613 0 l 613 164 l 335 164 l 265 0 l 11 0 l 456 986 l 1289 986 l 1289 764 l 849 764 l 849 597 l 1219 597 l 1219 389 l 849 389 l 849 222 m 422 372 l 613 372 l 613 764 l 588 764 l 422 372 z "},"Ç":{"ha":1011,"x_min":42,"x_max":983,"o":"m 540 213 q 685 259 622 213 q 768 382 747 306 l 983 304 q 861 97 957 181 q 626 -10 765 13 l 603 -44 q 693 -164 693 -76 q 649 -258 693 -222 q 532 -294 604 -294 q 434 -272 482 -294 q 358 -211 386 -249 l 446 -149 q 531 -192 478 -192 q 581 -156 581 -192 q 569 -131 581 -140 q 540 -121 558 -121 l 486 -121 l 457 -81 l 497 -15 q 166 135 290 -4 q 42 493 42 274 q 177 863 42 722 q 533 1003 313 1003 q 829 915 706 1003 q 983 682 953 826 l 768 604 q 685 727 747 681 q 540 774 622 774 q 360 697 429 774 q 292 493 292 619 q 360 290 292 367 q 540 213 429 213 z "},"È":{"ha":815,"x_min":83,"x_max":774,"o":"m 508 1096 l 342 1096 l 196 1326 l 432 1326 l 508 1096 m 319 222 l 774 222 l 774 0 l 83 0 l 83 986 l 760 986 l 760 764 l 319 764 l 319 597 l 690 597 l 690 389 l 319 389 l 319 222 z "},"É":{"ha":815,"x_min":83,"x_max":774,"o":"m 624 1326 l 478 1096 l 311 1096 l 388 1326 l 624 1326 m 319 222 l 774 222 l 774 0 l 83 0 l 83 986 l 760 986 l 760 764 l 319 764 l 319 597 l 690 597 l 690 389 l 319 389 l 319 222 z "},"Ê":{"ha":815,"x_min":83,"x_max":774,"o":"m 419 1204 l 363 1096 l 142 1096 l 311 1339 l 528 1339 l 697 1096 l 475 1096 l 419 1204 m 319 222 l 774 222 l 774 0 l 83 0 l 83 986 l 760 986 l 760 764 l 319 764 l 319 597 l 690 597 l 690 389 l 319 389 l 319 222 z "},"Ë":{"ha":815,"x_min":83,"x_max":774,"o":"m 332 1290 l 332 1096 l 110 1096 l 110 1290 l 332 1290 m 721 1290 l 721 1096 l 499 1096 l 499 1290 l 721 1290 m 319 222 l 774 222 l 774 0 l 83 0 l 83 986 l 760 986 l 760 764 l 319 764 l 319 597 l 690 597 l 690 389 l 319 389 l 319 222 z "},"Ì":{"ha":403,"x_min":-21,"x_max":319,"o":"m 215 1326 l 292 1096 l 125 1096 l -21 1326 l 215 1326 m 83 0 l 83 986 l 319 986 l 319 0 l 83 0 z "},"Í":{"ha":403,"x_min":83,"x_max":407,"o":"m 171 1326 l 407 1326 l 261 1096 l 94 1096 l 171 1326 m 83 0 l 83 986 l 319 986 l 319 0 l 83 0 z "},"Î":{"ha":403,"x_min":-75,"x_max":481,"o":"m 203 1204 l 146 1096 l -75 1096 l 94 1339 l 311 1339 l 481 1096 l 258 1096 l 203 1204 m 83 0 l 83 986 l 319 986 l 319 0 l 83 0 z "},"Ï":{"ha":403,"x_min":-107,"x_max":504,"o":"m -107 1096 l -107 1290 l 115 1290 l 115 1096 l -107 1096 m 282 1096 l 282 1290 l 504 1290 l 504 1096 l 282 1096 m 83 0 l 83 986 l 319 986 l 319 0 l 83 0 z "},"Ð":{"ha":996,"x_min":-78,"x_max":954,"o":"m 463 986 q 819 851 683 986 q 954 494 954 715 q 814 136 954 272 q 443 0 674 0 l 83 0 l 83 449 l -78 449 l -78 547 l 83 547 l 83 986 l 463 986 m 438 222 q 631 297 557 222 q 704 494 704 372 q 631 690 704 615 q 439 764 558 764 l 319 764 l 319 547 l 496 547 l 496 449 l 319 449 l 319 222 l 438 222 z "},"Ñ":{"ha":1014,"x_min":83,"x_max":931,"o":"m 442 1158 q 408 1141 421 1158 q 394 1096 394 1124 l 275 1096 l 275 1138 q 317 1257 275 1211 q 428 1303 360 1303 q 526 1272 472 1303 q 614 1240 579 1240 q 649 1258 636 1240 q 663 1303 663 1275 l 781 1303 l 781 1261 q 738 1142 781 1188 q 628 1096 696 1096 q 525 1127 575 1096 q 442 1158 475 1158 m 694 986 l 931 986 l 931 0 l 653 0 l 319 624 l 319 0 l 83 0 l 83 986 l 361 986 l 694 363 l 694 986 z "},"Ò":{"ha":1089,"x_min":42,"x_max":1047,"o":"m 561 1326 l 638 1096 l 471 1096 l 325 1326 l 561 1326 m 909 123 q 840 53 909 123 q 544 -17 771 -17 q 180 124 318 -17 q 42 493 42 264 q 180 863 42 722 q 544 1003 318 1003 q 909 863 771 1003 q 1047 492 1047 722 q 909 123 1047 263 m 361 290 q 396 251 361 290 q 544 213 431 213 q 728 289 658 213 q 797 492 797 365 q 728 696 797 618 q 544 774 658 774 q 361 697 431 774 q 292 493 292 619 q 361 290 292 367 z "},"Ó":{"ha":1089,"x_min":42,"x_max":1047,"o":"m 517 1326 l 753 1326 l 607 1096 l 440 1096 l 517 1326 m 909 123 q 840 53 909 123 q 544 -17 771 -17 q 180 124 318 -17 q 42 493 42 264 q 180 863 42 722 q 544 1003 318 1003 q 909 863 771 1003 q 1047 492 1047 722 q 909 123 1047 263 m 361 290 q 396 251 361 290 q 544 213 431 213 q 728 289 658 213 q 797 492 797 365 q 728 696 797 618 q 544 774 658 774 q 361 697 431 774 q 292 493 292 619 q 361 290 292 367 z "},"Ô":{"ha":1089,"x_min":42,"x_max":1047,"o":"m 549 1204 l 492 1096 l 271 1096 l 440 1339 l 657 1339 l 826 1096 l 604 1096 l 549 1204 m 180 863 q 249 933 180 863 q 544 1003 318 1003 q 909 863 771 1003 q 1047 492 1047 722 q 909 123 1047 263 q 544 -17 771 -17 q 180 124 318 -17 q 42 493 42 264 q 180 863 42 722 m 361 290 q 396 251 361 290 q 544 213 431 213 q 728 289 658 213 q 797 492 797 365 q 728 696 797 618 q 544 774 658 774 q 361 697 431 774 q 292 493 292 619 q 361 290 292 367 z "},"Õ":{"ha":1089,"x_min":42,"x_max":1047,"o":"m 292 1096 l 411 1096 q 424 1141 411 1124 q 458 1158 438 1158 q 542 1127 492 1158 q 644 1096 592 1096 q 755 1142 713 1096 q 797 1261 797 1188 l 797 1303 l 679 1303 q 666 1258 679 1275 q 631 1240 653 1240 q 542 1272 596 1240 q 444 1303 489 1303 q 334 1257 376 1303 q 292 1138 292 1211 l 292 1096 m 909 123 q 840 53 909 123 q 544 -17 771 -17 q 180 124 318 -17 q 42 493 42 264 q 180 863 42 722 q 544 1003 318 1003 q 909 863 771 1003 q 1047 492 1047 722 q 909 123 1047 263 m 361 290 q 396 251 361 290 q 544 213 431 213 q 728 289 658 213 q 797 492 797 365 q 728 696 797 618 q 544 774 658 774 q 361 697 431 774 q 292 493 292 619 q 361 290 292 367 z "},"Ö":{"ha":1089,"x_min":42,"x_max":1047,"o":"m 239 1096 l 239 1290 l 461 1290 l 461 1096 l 239 1096 m 628 1096 l 628 1290 l 850 1290 l 850 1096 l 628 1096 m 909 123 q 840 53 909 123 q 544 -17 771 -17 q 180 124 318 -17 q 42 493 42 264 q 180 863 42 722 q 544 1003 318 1003 q 909 863 771 1003 q 1047 492 1047 722 q 909 123 1047 263 m 361 290 q 396 251 361 290 q 544 213 431 213 q 728 289 658 213 q 797 492 797 365 q 728 696 797 618 q 544 774 658 774 q 361 697 431 774 q 292 493 292 619 q 361 290 292 367 z "},"×":{"ha":682,"x_min":83,"x_max":599,"o":"m 599 565 l 464 431 l 599 296 l 476 174 l 342 308 l 207 172 l 83 294 l 219 431 l 83 565 l 207 689 l 342 553 l 476 688 l 599 565 z "},"Ø":{"ha":1089,"x_min":42,"x_max":1047,"o":"m 944 822 q 1047 492 1047 686 q 909 123 1047 263 q 544 -17 771 -17 q 214 93 344 -17 l 117 -4 l 47 65 l 146 164 q 42 493 42 296 q 180 863 42 722 q 544 1003 318 1003 q 875 893 744 1003 l 971 989 l 1040 918 l 944 822 m 292 493 q 325 343 292 406 l 703 721 q 544 774 636 774 q 361 697 431 774 q 292 493 292 619 m 544 213 q 728 289 658 213 q 797 492 797 365 q 764 643 797 578 l 386 265 q 544 213 454 213 z "},"Ù":{"ha":975,"x_min":69,"x_max":906,"o":"m 501 1326 l 578 1096 l 411 1096 l 265 1326 l 501 1326 m 792 96 q 735 40 792 96 q 488 -17 678 -17 q 183 96 297 -17 q 69 394 69 208 l 69 986 l 306 986 l 306 394 q 354 257 306 308 q 488 206 403 206 q 621 257 572 206 q 669 394 669 308 l 669 986 l 906 986 l 906 394 q 792 96 906 208 z "},"Ú":{"ha":975,"x_min":69,"x_max":906,"o":"m 457 1326 l 693 1326 l 547 1096 l 381 1096 l 457 1326 m 792 96 q 735 40 792 96 q 488 -17 678 -17 q 183 96 297 -17 q 69 394 69 208 l 69 986 l 306 986 l 306 394 q 354 257 306 308 q 488 206 403 206 q 621 257 572 206 q 669 394 669 308 l 669 986 l 906 986 l 906 394 q 792 96 906 208 z "},"Û":{"ha":975,"x_min":69,"x_max":906,"o":"m 489 1204 l 432 1096 l 211 1096 l 381 1339 l 597 1339 l 767 1096 l 544 1096 l 489 1204 m 669 986 l 906 986 l 906 394 q 792 96 906 208 q 488 -17 678 -17 q 183 96 297 -17 q 69 394 69 208 l 69 986 l 306 986 l 306 394 q 354 257 306 308 q 488 206 403 206 q 621 257 572 206 q 669 394 669 308 l 669 986 z "},"Ü":{"ha":975,"x_min":69,"x_max":906,"o":"m 179 1096 l 179 1290 l 401 1290 l 401 1096 l 179 1096 m 568 1096 l 568 1290 l 790 1290 l 790 1096 l 568 1096 m 792 96 q 735 40 792 96 q 488 -17 678 -17 q 183 96 297 -17 q 69 394 69 208 l 69 986 l 306 986 l 306 394 q 354 257 306 308 q 488 206 403 206 q 621 257 572 206 q 669 394 669 308 l 669 986 l 906 986 l 906 394 q 792 96 906 208 z "},"Ý":{"ha":925,"x_min":0,"x_max":925,"o":"m 671 1326 l 525 1096 l 358 1096 l 435 1326 l 671 1326 m 925 986 l 581 322 l 581 0 l 344 0 l 344 322 l 0 986 l 278 986 l 463 581 l 647 986 l 925 986 z "},"Þ":{"ha":903,"x_min":83,"x_max":861,"o":"m 513 854 q 765 755 669 854 q 861 493 861 656 q 765 231 861 331 q 513 132 669 132 l 319 132 l 319 0 l 83 0 l 83 986 l 319 986 l 319 854 l 513 854 m 476 354 q 579 392 540 354 q 618 493 618 431 q 579 594 618 556 q 476 632 540 632 l 319 632 l 319 354 l 476 354 z "},"ß":{"ha":844,"x_min":83,"x_max":807,"o":"m 646 513 q 764 435 721 494 q 807 288 807 375 q 724 79 807 158 q 507 0 642 0 l 417 0 l 417 189 l 447 189 q 536 219 503 189 q 569 301 569 250 q 536 382 569 351 q 447 413 503 413 l 417 413 l 417 604 l 425 604 q 503 633 474 604 q 533 711 533 663 q 503 785 533 757 q 425 814 474 814 q 349 785 378 814 q 319 711 319 757 l 319 0 l 83 0 l 83 724 q 176 926 83 850 q 422 1003 269 1003 q 673 930 578 1003 q 768 738 768 857 q 735 601 768 661 q 646 513 703 542 z "},"à":{"ha":779,"x_min":42,"x_max":751,"o":"m 500 814 l 333 814 l 188 1044 l 424 1044 l 500 814 m 717 181 l 751 181 l 751 0 l 633 0 q 485 75 524 0 q 271 -17 418 -17 q 101 36 160 -17 q 42 188 42 89 q 96 320 42 268 q 253 388 150 372 l 414 413 q 467 468 467 421 l 467 471 q 379 531 467 531 q 265 438 285 531 l 69 486 q 179 653 99 594 q 382 711 260 711 q 609 646 529 711 q 689 460 689 581 l 689 219 q 717 181 689 181 m 349 140 q 434 176 401 140 q 467 269 467 211 l 467 285 l 333 264 q 264 200 264 253 q 349 140 264 140 z "},"á":{"ha":779,"x_min":42,"x_max":751,"o":"m 615 1044 l 469 814 l 303 814 l 379 1044 l 615 1044 m 717 181 l 751 181 l 751 0 l 633 0 q 485 75 524 0 q 271 -17 418 -17 q 101 36 160 -17 q 42 188 42 89 q 96 320 42 268 q 253 388 150 372 l 414 413 q 467 468 467 421 l 467 471 q 379 531 467 531 q 265 438 285 531 l 69 486 q 179 653 99 594 q 382 711 260 711 q 609 646 529 711 q 689 460 689 581 l 689 219 q 717 181 689 181 m 349 140 q 434 176 401 140 q 467 269 467 211 l 467 285 l 333 264 q 264 200 264 253 q 349 140 264 140 z "},"â":{"ha":779,"x_min":42,"x_max":751,"o":"m 411 922 l 354 814 l 133 814 l 303 1057 l 519 1057 l 689 814 l 467 814 l 411 922 m 717 181 l 751 181 l 751 0 l 633 0 q 485 75 524 0 q 271 -17 418 -17 q 101 36 160 -17 q 42 188 42 89 q 96 320 42 268 q 253 388 150 372 l 414 413 q 467 468 467 421 l 467 471 q 379 531 467 531 q 265 438 285 531 l 69 486 q 179 653 99 594 q 382 711 260 711 q 609 646 529 711 q 689 460 689 581 l 689 219 q 717 181 689 181 m 349 140 q 434 176 401 140 q 467 269 467 211 l 467 285 l 333 264 q 264 200 264 253 q 349 140 264 140 z "},"ã":{"ha":779,"x_min":42,"x_max":751,"o":"m 321 876 q 287 859 300 876 q 274 814 274 842 l 154 814 l 154 856 q 197 975 154 929 q 307 1021 239 1021 q 405 990 351 1021 q 493 958 458 958 q 528 976 515 958 q 542 1021 542 993 l 660 1021 l 660 979 q 617 860 660 906 q 507 814 575 814 q 403 845 453 814 q 321 876 353 876 m 717 181 l 751 181 l 751 0 l 633 0 q 485 75 524 0 q 271 -17 418 -17 q 101 36 160 -17 q 42 188 42 89 q 96 320 42 268 q 253 388 150 372 l 414 413 q 467 468 467 421 l 467 471 q 379 531 467 531 q 265 438 285 531 l 69 486 q 179 653 99 594 q 382 711 260 711 q 609 646 529 711 q 689 460 689 581 l 689 219 q 717 181 689 181 m 349 140 q 434 176 401 140 q 467 269 467 211 l 467 285 l 333 264 q 264 200 264 253 q 349 140 264 140 z "},"ä":{"ha":779,"x_min":42,"x_max":751,"o":"m 324 1008 l 324 814 l 101 814 l 101 1008 l 324 1008 m 713 1008 l 713 814 l 490 814 l 490 1008 l 713 1008 m 717 181 l 751 181 l 751 0 l 633 0 q 485 75 524 0 q 271 -17 418 -17 q 101 36 160 -17 q 42 188 42 89 q 96 320 42 268 q 253 388 150 372 l 414 413 q 467 468 467 421 l 467 471 q 379 531 467 531 q 265 438 285 531 l 69 486 q 179 653 99 594 q 382 711 260 711 q 609 646 529 711 q 689 460 689 581 l 689 219 q 717 181 689 181 m 349 140 q 434 176 401 140 q 467 269 467 211 l 467 285 l 333 264 q 264 200 264 253 q 349 140 264 140 z "},"å":{"ha":779,"x_min":42,"x_max":751,"o":"m 408 800 q 297 840 339 800 q 256 947 256 881 q 297 1059 256 1017 q 408 1101 339 1101 q 517 1059 476 1101 q 558 947 558 1017 q 517 840 558 881 q 408 800 476 800 m 440 981 q 434 987 440 981 q 407 993 428 993 q 374 981 386 993 q 361 947 361 968 q 374 914 361 926 q 407 901 386 901 q 440 914 428 901 q 453 947 453 926 q 440 981 453 968 m 717 181 l 751 181 l 751 0 l 633 0 q 485 75 524 0 q 271 -17 418 -17 q 101 36 160 -17 q 42 188 42 89 q 96 320 42 268 q 253 388 150 372 l 414 413 q 467 468 467 421 l 467 471 q 379 531 467 531 q 265 438 285 531 l 69 486 q 179 653 99 594 q 382 711 260 711 q 609 646 529 711 q 689 460 689 581 l 689 219 q 717 181 689 181 m 349 140 q 434 176 401 140 q 467 269 467 211 l 467 285 l 333 264 q 264 200 264 253 q 349 140 264 140 z "},"æ":{"ha":1225,"x_min":42,"x_max":1176,"o":"m 1176 347 l 1176 281 l 697 281 q 850 172 726 172 q 982 236 953 172 l 1156 163 q 1034 33 1118 82 q 851 -17 950 -17 q 565 107 667 -17 q 453 16 526 49 q 285 -17 379 -17 q 104 36 167 -17 q 42 188 42 89 q 96 320 42 268 q 253 388 150 372 l 414 413 q 467 468 467 421 l 467 469 q 379 531 467 531 q 265 438 285 531 l 69 486 q 179 653 99 594 q 382 711 260 711 q 615 642 535 711 q 832 711 704 711 q 1082 611 988 711 q 1176 347 1176 511 m 828 522 q 694 406 718 522 l 967 406 q 828 522 951 522 m 349 140 q 434 176 401 140 q 467 269 467 211 l 467 285 l 333 264 q 264 200 264 253 q 349 140 264 140 z "},"ç":{"ha":775,"x_min":49,"x_max":747,"o":"m 429 192 q 506 213 472 192 q 556 271 540 235 l 747 189 q 650 63 714 114 q 507 -8 586 11 l 483 -44 q 574 -164 574 -76 q 529 -258 574 -222 q 413 -294 485 -294 q 315 -272 363 -294 q 239 -211 267 -249 l 326 -149 q 411 -192 358 -192 q 461 -156 461 -192 q 450 -131 461 -140 q 421 -121 439 -121 l 367 -121 l 338 -81 l 378 -14 q 138 99 228 1 q 49 347 49 197 q 153 611 49 511 q 431 711 258 711 q 620 655 533 711 q 747 506 707 599 l 556 424 q 506 481 540 460 q 429 503 472 503 q 317 460 360 503 q 275 347 275 417 q 317 235 275 278 q 429 192 360 192 z "},"è":{"ha":788,"x_min":49,"x_max":739,"o":"m 488 814 l 321 814 l 175 1044 l 411 1044 l 488 814 m 739 347 l 739 281 l 260 281 q 413 172 289 172 q 544 236 515 172 l 718 163 q 596 33 681 82 q 411 -17 511 -17 q 148 83 247 -17 q 49 347 49 183 q 144 611 49 511 q 397 711 240 711 q 645 611 551 711 q 739 347 739 511 m 390 522 q 257 406 281 522 l 529 406 q 390 522 514 522 z "},"é":{"ha":788,"x_min":49,"x_max":739,"o":"m 603 1044 l 457 814 l 290 814 l 367 1044 l 603 1044 m 739 347 l 739 281 l 260 281 q 413 172 289 172 q 544 236 515 172 l 718 163 q 596 33 681 82 q 411 -17 511 -17 q 148 83 247 -17 q 49 347 49 183 q 144 611 49 511 q 397 711 240 711 q 645 611 551 711 q 739 347 739 511 m 390 522 q 257 406 281 522 l 529 406 q 390 522 514 522 z "},"ê":{"ha":788,"x_min":49,"x_max":739,"o":"m 399 922 l 342 814 l 121 814 l 290 1057 l 507 1057 l 676 814 l 454 814 l 399 922 m 739 347 l 739 281 l 260 281 q 413 172 289 172 q 544 236 515 172 l 718 163 q 596 33 681 82 q 411 -17 511 -17 q 148 83 247 -17 q 49 347 49 183 q 144 611 49 511 q 397 711 240 711 q 645 611 551 711 q 739 347 739 511 m 390 522 q 257 406 281 522 l 529 406 q 390 522 514 522 z "},"ë":{"ha":788,"x_min":49,"x_max":739,"o":"m 311 1008 l 311 814 l 89 814 l 89 1008 l 311 1008 m 700 1008 l 700 814 l 478 814 l 478 1008 l 700 1008 m 739 347 l 739 281 l 260 281 q 413 172 289 172 q 544 236 515 172 l 718 163 q 596 33 681 82 q 411 -17 511 -17 q 148 83 247 -17 q 49 347 49 183 q 144 611 49 511 q 397 711 240 711 q 645 611 551 711 q 739 347 739 511 m 390 522 q 257 406 281 522 l 529 406 q 390 522 514 522 z "},"ì":{"ha":361,"x_min":-36,"x_max":292,"o":"m 200 1044 l 276 814 l 110 814 l -36 1044 l 200 1044 m 69 0 l 69 694 l 292 694 l 292 0 l 69 0 z "},"í":{"ha":361,"x_min":69,"x_max":392,"o":"m 156 1044 l 392 1044 l 246 814 l 79 814 l 156 1044 m 69 0 l 69 694 l 292 694 l 292 0 l 69 0 z "},"î":{"ha":361,"x_min":-90,"x_max":465,"o":"m 188 922 l 131 814 l -90 814 l 79 1057 l 296 1057 l 465 814 l 243 814 l 188 922 m 69 0 l 69 694 l 292 694 l 292 0 l 69 0 z "},"ï":{"ha":361,"x_min":-122,"x_max":489,"o":"m -122 814 l -122 1008 l 100 1008 l 100 814 l -122 814 m 267 814 l 267 1008 l 489 1008 l 489 814 l 267 814 m 69 0 l 69 694 l 292 694 l 292 0 l 69 0 z "},"ð":{"ha":829,"x_min":56,"x_max":774,"o":"m 719 525 q 774 324 774 433 q 674 77 774 171 q 413 -17 575 -17 q 153 77 251 -17 q 56 324 56 171 q 145 565 56 474 q 382 657 235 657 l 385 657 l 322 764 l 133 699 l 101 790 l 272 849 l 192 986 l 450 986 l 486 924 l 668 986 l 700 894 l 536 838 l 719 525 m 315 221 q 334 201 315 221 q 414 182 353 182 q 513 221 475 182 q 551 324 551 260 q 513 428 551 388 q 414 468 475 468 q 315 428 353 468 q 278 324 278 389 q 315 221 278 260 z "},"ñ":{"ha":813,"x_min":69,"x_max":750,"o":"m 322 876 q 288 859 301 876 q 275 814 275 842 l 156 814 l 156 856 q 198 975 156 929 q 308 1021 240 1021 q 406 990 353 1021 q 494 958 460 958 q 530 976 517 958 q 543 1021 543 993 l 661 1021 l 661 979 q 619 860 661 906 q 508 814 576 814 q 406 845 456 814 q 322 876 356 876 m 503 711 q 682 640 614 711 q 750 453 750 569 l 750 0 l 528 0 l 528 375 q 496 467 528 432 q 411 503 464 503 q 324 467 357 503 q 292 375 292 432 l 292 0 l 69 0 l 69 694 l 264 694 l 292 592 l 297 592 q 370 678 314 646 q 503 711 426 711 z "},"ò":{"ha":843,"x_min":49,"x_max":794,"o":"m 439 1044 l 515 814 l 349 814 l 203 1044 l 439 1044 m 692 85 q 641 35 692 85 q 422 -15 590 -15 q 151 85 254 -15 q 49 349 49 185 q 151 613 49 513 q 422 714 254 714 q 692 613 590 714 q 794 349 794 513 q 692 85 794 185 m 422 193 q 528 236 488 193 q 568 349 568 279 q 528 463 568 419 q 422 506 488 506 q 315 463 356 506 q 275 349 275 419 q 315 236 275 279 q 422 193 356 193 z "},"ó":{"ha":843,"x_min":49,"x_max":794,"o":"m 394 1044 l 631 1044 l 485 814 l 318 814 l 394 1044 m 692 85 q 641 35 692 85 q 422 -15 590 -15 q 151 85 254 -15 q 49 349 49 185 q 151 613 49 513 q 422 714 254 714 q 692 613 590 714 q 794 349 794 513 q 692 85 794 185 m 422 193 q 528 236 488 193 q 568 349 568 279 q 528 463 568 419 q 422 506 488 506 q 315 463 356 506 q 275 349 275 419 q 315 236 275 279 q 422 193 356 193 z "},"ô":{"ha":843,"x_min":49,"x_max":794,"o":"m 426 922 l 369 814 l 149 814 l 318 1057 l 535 1057 l 704 814 l 482 814 l 426 922 m 151 613 q 203 664 151 613 q 422 714 254 714 q 692 613 590 714 q 794 349 794 513 q 692 85 794 185 q 422 -15 590 -15 q 151 85 254 -15 q 49 349 49 185 q 151 613 49 513 m 422 193 q 528 236 488 193 q 568 349 568 279 q 528 463 568 419 q 422 506 488 506 q 315 463 356 506 q 275 349 275 419 q 315 236 275 279 q 422 193 356 193 z "},"õ":{"ha":843,"x_min":49,"x_max":794,"o":"m 169 814 l 289 814 q 302 859 289 842 q 336 876 315 876 q 419 845 369 876 q 522 814 469 814 q 633 860 590 814 q 675 979 675 906 l 675 1021 l 557 1021 q 544 976 557 993 q 508 958 531 958 q 420 990 474 958 q 322 1021 367 1021 q 212 975 254 1021 q 169 856 169 929 l 169 814 m 692 85 q 641 35 692 85 q 422 -15 590 -15 q 151 85 254 -15 q 49 349 49 185 q 151 613 49 513 q 422 714 254 714 q 692 613 590 714 q 794 349 794 513 q 692 85 794 185 m 422 193 q 528 236 488 193 q 568 349 568 279 q 528 463 568 419 q 422 506 488 506 q 315 463 356 506 q 275 349 275 419 q 315 236 275 279 q 422 193 356 193 z "},"ö":{"ha":843,"x_min":49,"x_max":794,"o":"m 117 814 l 117 1008 l 339 1008 l 339 814 l 117 814 m 506 814 l 506 1008 l 728 1008 l 728 814 l 506 814 m 692 85 q 641 35 692 85 q 422 -15 590 -15 q 151 85 254 -15 q 49 349 49 185 q 151 613 49 513 q 422 714 254 714 q 692 613 590 714 q 794 349 794 513 q 692 85 794 185 m 422 193 q 528 236 488 193 q 568 349 568 279 q 528 463 568 419 q 422 506 488 506 q 315 463 356 506 q 275 349 275 419 q 315 236 275 279 q 422 193 356 193 z "},"÷":{"ha":722,"x_min":83,"x_max":639,"o":"m 438 605 q 422 589 438 605 q 363 574 407 574 q 287 605 318 574 q 256 681 256 636 q 287 756 256 725 q 363 786 318 786 q 437 756 406 786 q 468 681 468 725 q 438 605 468 636 m 83 344 l 83 518 l 639 518 l 639 344 l 83 344 m 438 108 q 422 92 438 108 q 363 76 407 76 q 287 108 318 76 q 256 183 256 139 q 287 258 256 228 q 363 289 318 289 q 437 258 406 289 q 468 183 468 228 q 438 108 468 139 z "},"ø":{"ha":843,"x_min":49,"x_max":796,"o":"m 796 651 l 724 579 q 794 349 794 485 q 692 85 794 185 q 422 -15 590 -15 q 194 50 290 -15 l 118 -26 l 49 43 l 122 117 q 49 349 49 213 q 151 613 49 513 q 422 714 254 714 q 653 647 558 714 l 726 721 l 796 651 m 275 349 q 288 282 275 311 l 494 489 q 422 506 464 506 q 315 463 356 506 q 275 349 275 419 m 568 349 q 557 413 568 383 l 353 208 q 422 193 383 193 q 528 236 488 193 q 568 349 568 279 z "},"ù":{"ha":813,"x_min":63,"x_max":743,"o":"m 496 814 l 329 814 l 183 1044 l 419 1044 l 496 814 m 521 694 l 743 694 l 743 0 l 549 0 l 521 101 l 515 101 q 442 16 499 49 q 310 -17 386 -17 q 131 54 199 -17 q 63 242 63 125 l 63 694 l 285 694 l 285 319 q 317 227 285 263 q 401 192 349 192 q 488 227 456 192 q 521 319 521 263 l 521 694 z "},"ú":{"ha":813,"x_min":63,"x_max":743,"o":"m 611 1044 l 465 814 l 299 814 l 375 1044 l 611 1044 m 521 694 l 743 694 l 743 0 l 549 0 l 521 101 l 515 101 q 442 16 499 49 q 310 -17 386 -17 q 131 54 199 -17 q 63 242 63 125 l 63 694 l 285 694 l 285 319 q 317 227 285 263 q 401 192 349 192 q 488 227 456 192 q 521 319 521 263 l 521 694 z "},"û":{"ha":813,"x_min":63,"x_max":743,"o":"m 407 922 l 350 814 l 129 814 l 299 1057 l 515 1057 l 685 814 l 463 814 l 407 922 m 521 694 l 743 694 l 743 0 l 549 0 l 521 101 l 515 101 q 442 16 499 49 q 310 -17 386 -17 q 131 54 199 -17 q 63 242 63 125 l 63 694 l 285 694 l 285 319 q 317 227 285 263 q 401 192 349 192 q 488 227 456 192 q 521 319 521 263 l 521 694 z "},"ü":{"ha":813,"x_min":63,"x_max":743,"o":"m 319 1008 l 319 814 l 97 814 l 97 1008 l 319 1008 m 708 1008 l 708 814 l 486 814 l 486 1008 l 708 1008 m 521 694 l 743 694 l 743 0 l 549 0 l 521 101 l 515 101 q 442 16 499 49 q 310 -17 386 -17 q 131 54 199 -17 q 63 242 63 125 l 63 694 l 285 694 l 285 319 q 317 227 285 263 q 401 192 349 192 q 488 227 456 192 q 521 319 521 263 l 521 694 z "},"ý":{"ha":753,"x_min":7,"x_max":746,"o":"m 585 1044 l 439 814 l 272 814 l 349 1044 l 585 1044 m 500 694 l 746 694 l 518 0 l 499 -58 q 394 -224 461 -171 q 221 -278 326 -278 l 36 -278 l 36 -83 l 203 -83 q 249 -54 249 -83 q 244 -33 249 -46 l 7 694 l 257 694 l 378 185 l 500 694 z "},"þ":{"ha":858,"x_min":69,"x_max":810,"o":"m 494 711 q 723 611 636 711 q 810 347 810 511 q 723 83 810 183 q 494 -17 636 -17 q 365 15 419 -17 q 297 100 311 47 l 292 100 l 292 -278 l 69 -278 l 69 1028 l 292 1028 l 292 593 l 297 593 q 365 678 311 646 q 494 711 419 711 m 439 186 q 544 231 504 186 q 583 347 583 275 q 544 465 583 419 q 439 510 504 510 q 332 465 372 510 q 292 347 292 421 q 332 230 292 274 q 439 186 372 186 z "},"ÿ":{"ha":753,"x_min":7,"x_max":746,"o":"m 293 1008 l 293 814 l 71 814 l 71 1008 l 293 1008 m 682 1008 l 682 814 l 460 814 l 460 1008 l 682 1008 m 500 694 l 746 694 l 518 0 l 499 -58 q 394 -224 461 -171 q 221 -278 326 -278 l 36 -278 l 36 -83 l 203 -83 q 249 -54 249 -83 q 244 -33 249 -46 l 7 694 l 257 694 l 378 185 l 500 694 z "},"Ā":{"ha":994,"x_min":11,"x_max":983,"o":"m 729 1263 l 729 1096 l 265 1096 l 265 1263 l 729 1263 m 733 0 l 685 150 l 310 150 l 261 0 l 11 0 l 358 986 l 636 986 l 983 0 l 733 0 m 378 358 l 617 358 l 497 729 l 378 358 z "},"ā":{"ha":779,"x_min":42,"x_max":751,"o":"m 639 981 l 639 814 l 175 814 l 175 981 l 639 981 m 717 181 l 751 181 l 751 0 l 633 0 q 485 75 524 0 q 271 -17 418 -17 q 101 36 160 -17 q 42 188 42 89 q 96 320 42 268 q 253 388 150 372 l 414 413 q 467 468 467 421 l 467 471 q 379 531 467 531 q 265 438 285 531 l 69 486 q 179 653 99 594 q 382 711 260 711 q 609 646 529 711 q 689 460 689 581 l 689 219 q 717 181 689 181 m 349 140 q 434 176 401 140 q 467 269 467 211 l 467 285 l 333 264 q 264 200 264 253 q 349 140 264 140 z "},"Ă":{"ha":994,"x_min":11,"x_max":983,"o":"m 674 1149 q 640 1115 674 1149 q 497 1082 607 1082 q 321 1149 388 1082 q 254 1325 254 1215 l 426 1325 q 446 1274 426 1293 q 497 1254 465 1254 q 549 1274 529 1254 q 568 1325 568 1293 l 740 1325 q 674 1149 740 1215 m 733 0 l 685 150 l 310 150 l 261 0 l 11 0 l 358 986 l 636 986 l 983 0 l 733 0 m 378 358 l 617 358 l 497 729 l 378 358 z "},"ă":{"ha":779,"x_min":42,"x_max":751,"o":"m 583 867 q 550 833 583 867 q 407 800 517 800 q 231 867 297 800 q 164 1043 164 933 l 336 1043 q 356 992 336 1011 q 407 972 375 972 q 458 992 439 972 q 478 1043 478 1011 l 650 1043 q 583 867 650 933 m 717 181 l 751 181 l 751 0 l 633 0 q 485 75 524 0 q 271 -17 418 -17 q 101 36 160 -17 q 42 188 42 89 q 96 320 42 268 q 253 388 150 372 l 414 413 q 467 468 467 421 l 467 471 q 379 531 467 531 q 265 438 285 531 l 69 486 q 179 653 99 594 q 382 711 260 711 q 609 646 529 711 q 689 460 689 581 l 689 219 q 717 181 689 181 m 349 140 q 434 176 401 140 q 467 269 467 211 l 467 285 l 333 264 q 264 200 264 253 q 349 140 264 140 z "},"Ą":{"ha":994,"x_min":11,"x_max":1038,"o":"m 1001 -114 l 1038 -225 q 913 -267 978 -267 q 803 -229 844 -267 q 761 -131 761 -192 q 826 0 761 -51 l 733 0 l 685 150 l 310 150 l 261 0 l 11 0 l 358 986 l 636 986 l 983 0 q 907 -78 907 -31 q 920 -111 907 -99 q 954 -124 933 -124 q 1001 -114 982 -124 m 378 358 l 617 358 l 497 729 l 378 358 z "},"ą":{"ha":779,"x_min":42,"x_max":806,"o":"m 769 -114 l 806 -225 q 681 -267 746 -267 q 571 -229 613 -267 q 529 -131 529 -192 q 599 3 529 -50 q 485 75 517 14 q 271 -17 418 -17 q 101 36 160 -17 q 42 188 42 89 q 96 320 42 268 q 253 388 150 372 l 414 413 q 467 468 467 421 l 467 471 q 379 531 467 531 q 265 438 285 531 l 69 486 q 179 653 99 594 q 382 711 260 711 q 609 646 529 711 q 689 460 689 581 l 689 219 q 717 181 689 181 l 751 181 l 751 0 q 675 -78 675 -31 q 688 -111 675 -99 q 722 -124 701 -124 q 769 -114 750 -124 m 349 140 q 434 176 401 140 q 467 269 467 211 l 467 285 l 333 264 q 264 200 264 253 q 349 140 264 140 z "},"Ć":{"ha":1011,"x_min":42,"x_max":983,"o":"m 506 1326 l 742 1326 l 596 1096 l 429 1096 l 506 1326 m 533 -17 q 177 124 313 -17 q 42 493 42 264 q 177 863 42 722 q 533 1003 313 1003 q 829 915 706 1003 q 983 682 953 826 l 768 604 q 685 727 747 681 q 540 774 622 774 q 360 697 429 774 q 292 493 292 619 q 360 290 292 367 q 540 213 429 213 q 685 259 622 213 q 768 382 747 306 l 983 304 q 829 72 953 160 q 533 -17 706 -17 z "},"ć":{"ha":775,"x_min":49,"x_max":747,"o":"m 389 1044 l 625 1044 l 479 814 l 313 814 l 389 1044 m 431 -17 q 153 83 258 -17 q 49 347 49 183 q 153 611 49 511 q 431 711 258 711 q 620 655 533 711 q 747 506 707 599 l 556 424 q 506 481 540 460 q 429 503 472 503 q 317 460 360 503 q 275 347 275 417 q 317 235 275 278 q 429 192 360 192 q 506 213 472 192 q 556 271 540 235 l 747 189 q 620 40 707 96 q 431 -17 533 -17 z "},"Ċ":{"ha":1011,"x_min":42,"x_max":983,"o":"m 422 1096 l 422 1318 l 644 1318 l 644 1096 l 422 1096 m 533 -17 q 177 124 313 -17 q 42 493 42 264 q 177 863 42 722 q 533 1003 313 1003 q 829 915 706 1003 q 983 682 953 826 l 768 604 q 685 727 747 681 q 540 774 622 774 q 360 697 429 774 q 292 493 292 619 q 360 290 292 367 q 540 213 429 213 q 685 259 622 213 q 768 382 747 306 l 983 304 q 829 72 953 160 q 533 -17 706 -17 z "},"ċ":{"ha":775,"x_min":49,"x_max":747,"o":"m 306 814 l 306 1036 l 528 1036 l 528 814 l 306 814 m 431 -17 q 153 83 258 -17 q 49 347 49 183 q 153 611 49 511 q 431 711 258 711 q 620 655 533 711 q 747 506 707 599 l 556 424 q 506 481 540 460 q 429 503 472 503 q 317 460 360 503 q 275 347 275 417 q 317 235 275 278 q 429 192 360 192 q 506 213 472 192 q 556 271 540 235 l 747 189 q 620 40 707 96 q 431 -17 533 -17 z "},"Č":{"ha":1011,"x_min":42,"x_max":983,"o":"m 642 1096 l 425 1096 l 256 1339 l 476 1339 l 533 1231 l 589 1339 l 811 1339 l 642 1096 m 540 213 q 685 259 622 213 q 768 382 747 306 l 983 304 q 829 72 953 160 q 533 -17 706 -17 q 177 124 313 -17 q 42 493 42 264 q 177 863 42 722 q 533 1003 313 1003 q 829 915 706 1003 q 983 682 953 826 l 768 604 q 685 727 747 681 q 540 774 622 774 q 360 697 429 774 q 292 493 292 619 q 360 290 292 367 q 540 213 429 213 z "},"č":{"ha":775,"x_min":49,"x_max":747,"o":"m 525 814 l 308 814 l 139 1057 l 360 1057 l 417 949 l 472 1057 l 694 1057 l 525 814 m 429 192 q 506 213 472 192 q 556 271 540 235 l 747 189 q 620 40 707 96 q 431 -17 533 -17 q 153 83 258 -17 q 49 347 49 183 q 153 611 49 511 q 431 711 258 711 q 620 655 533 711 q 747 506 707 599 l 556 424 q 506 481 540 460 q 429 503 472 503 q 317 460 360 503 q 275 347 275 417 q 317 235 275 278 q 429 192 360 192 z "},"Ď":{"ha":996,"x_min":83,"x_max":954,"o":"m 526 1096 l 310 1096 l 140 1339 l 361 1339 l 418 1231 l 474 1339 l 696 1339 l 526 1096 m 463 986 q 819 851 683 986 q 954 494 954 715 q 814 136 954 272 q 443 0 674 0 l 83 0 l 83 986 l 463 986 m 438 222 q 631 297 557 222 q 704 494 704 372 q 631 690 704 615 q 439 764 558 764 l 319 764 l 319 222 l 438 222 z "},"ď":{"ha":961,"x_min":49,"x_max":1100,"o":"m 928 1031 l 1100 1031 l 1043 750 l 928 750 l 928 1031 m 567 594 l 567 1028 l 789 1028 l 789 0 l 594 0 l 567 101 l 561 101 q 493 16 547 49 q 364 -17 439 -17 q 135 83 222 -17 q 49 347 49 183 q 135 611 49 511 q 364 711 222 711 q 493 679 439 711 q 561 594 547 647 l 567 594 m 419 185 q 526 229 486 185 q 567 347 567 274 q 526 465 567 421 q 419 508 486 508 q 315 464 354 508 q 275 347 275 419 q 315 230 275 275 q 419 185 354 185 z "},"Đ":{"ha":996,"x_min":-78,"x_max":954,"o":"m 463 986 q 819 851 683 986 q 954 494 954 715 q 814 136 954 272 q 443 0 674 0 l 83 0 l 83 449 l -78 449 l -78 547 l 83 547 l 83 986 l 463 986 m 438 222 q 631 297 557 222 q 704 494 704 372 q 631 690 704 615 q 439 764 558 764 l 319 764 l 319 547 l 496 547 l 496 449 l 319 449 l 319 222 l 438 222 z "},"đ":{"ha":858,"x_min":49,"x_max":928,"o":"m 928 882 l 928 783 l 789 783 l 789 0 l 594 0 l 567 101 l 561 101 q 493 16 547 49 q 364 -17 439 -17 q 135 83 222 -17 q 49 347 49 183 q 135 611 49 511 q 364 711 222 711 q 493 679 439 711 q 561 594 547 647 l 567 594 l 567 783 l 354 783 l 354 882 l 567 882 l 567 1028 l 789 1028 l 789 882 l 928 882 m 419 185 q 526 229 486 185 q 567 347 567 274 q 526 465 567 421 q 419 508 486 508 q 315 464 354 508 q 275 347 275 419 q 315 230 275 275 q 419 185 354 185 z "},"Ē":{"ha":815,"x_min":83,"x_max":774,"o":"m 647 1263 l 647 1096 l 183 1096 l 183 1263 l 647 1263 m 319 222 l 774 222 l 774 0 l 83 0 l 83 986 l 760 986 l 760 764 l 319 764 l 319 597 l 690 597 l 690 389 l 319 389 l 319 222 z "},"ē":{"ha":788,"x_min":49,"x_max":739,"o":"m 626 981 l 626 814 l 163 814 l 163 981 l 626 981 m 739 347 l 739 281 l 260 281 q 413 172 289 172 q 544 236 515 172 l 718 163 q 596 33 681 82 q 411 -17 511 -17 q 148 83 247 -17 q 49 347 49 183 q 144 611 49 511 q 397 711 240 711 q 645 611 551 711 q 739 347 739 511 m 390 522 q 257 406 281 522 l 529 406 q 390 522 514 522 z "},"Ė":{"ha":815,"x_min":83,"x_max":774,"o":"m 526 1318 l 526 1096 l 304 1096 l 304 1318 l 526 1318 m 319 222 l 774 222 l 774 0 l 83 0 l 83 986 l 760 986 l 760 764 l 319 764 l 319 597 l 690 597 l 690 389 l 319 389 l 319 222 z "},"ė":{"ha":788,"x_min":49,"x_max":739,"o":"m 506 1036 l 506 814 l 283 814 l 283 1036 l 506 1036 m 739 347 l 739 281 l 260 281 q 413 172 289 172 q 544 236 515 172 l 718 163 q 596 33 681 82 q 411 -17 511 -17 q 148 83 247 -17 q 49 347 49 183 q 144 611 49 511 q 397 711 240 711 q 645 611 551 711 q 739 347 739 511 m 390 522 q 257 406 281 522 l 529 406 q 390 522 514 522 z "},"Ę":{"ha":815,"x_min":83,"x_max":828,"o":"m 792 -114 l 828 -225 q 703 -267 768 -267 q 593 -229 635 -267 q 551 -131 551 -192 q 617 0 551 -51 l 83 0 l 83 986 l 760 986 l 760 764 l 319 764 l 319 597 l 690 597 l 690 389 l 319 389 l 319 222 l 774 222 l 774 0 q 697 -78 697 -31 q 710 -111 697 -99 q 744 -124 724 -124 q 792 -114 772 -124 z "},"ę":{"ha":788,"x_min":49,"x_max":739,"o":"m 739 347 l 739 281 l 260 281 q 413 172 289 172 q 544 236 515 172 l 718 163 q 581 24 675 74 q 504 -54 504 -7 q 517 -87 504 -75 q 551 -100 531 -100 q 599 -90 579 -100 l 635 -201 q 510 -243 575 -243 q 400 -206 442 -243 q 358 -107 358 -168 q 386 -17 358 -56 q 141 91 233 -8 q 49 347 49 190 q 144 611 49 511 q 397 711 240 711 q 645 611 551 711 q 739 347 739 511 m 390 522 q 257 406 281 522 l 529 406 q 390 522 514 522 z "},"Ě":{"ha":815,"x_min":83,"x_max":774,"o":"m 524 1096 l 307 1096 l 138 1339 l 358 1339 l 415 1231 l 471 1339 l 693 1339 l 524 1096 m 319 222 l 774 222 l 774 0 l 83 0 l 83 986 l 760 986 l 760 764 l 319 764 l 319 597 l 690 597 l 690 389 l 319 389 l 319 222 z "},"ě":{"ha":788,"x_min":49,"x_max":739,"o":"m 503 814 l 286 814 l 117 1057 l 338 1057 l 394 949 l 450 1057 l 672 1057 l 503 814 m 739 347 l 739 281 l 260 281 q 413 172 289 172 q 544 236 515 172 l 718 163 q 596 33 681 82 q 411 -17 511 -17 q 148 83 247 -17 q 49 347 49 183 q 144 611 49 511 q 397 711 240 711 q 645 611 551 711 q 739 347 739 511 m 390 522 q 257 406 281 522 l 529 406 q 390 522 514 522 z "},"Ğ":{"ha":1072,"x_min":42,"x_max":996,"o":"m 710 1149 q 676 1115 710 1149 q 533 1082 643 1082 q 357 1149 424 1082 q 290 1325 290 1215 l 463 1325 q 482 1274 463 1293 q 533 1254 501 1254 q 585 1274 565 1254 q 604 1325 604 1293 l 776 1325 q 710 1149 776 1215 m 511 574 l 996 574 l 996 0 l 836 0 l 783 113 q 499 -17 689 -17 q 167 124 293 -17 q 42 493 42 264 q 177 863 42 722 q 533 1003 313 1003 q 819 921 697 1003 q 978 704 942 839 l 763 626 q 677 733 738 693 q 543 774 617 774 q 360 697 429 774 q 292 493 292 619 q 364 290 292 367 q 554 213 436 213 q 693 258 638 213 q 756 379 749 304 l 511 379 l 511 574 z "},"ğ":{"ha":854,"x_min":49,"x_max":785,"o":"m 618 867 q 585 833 618 867 q 442 800 551 800 q 265 867 332 800 q 199 1043 199 933 l 371 1043 q 390 992 371 1011 q 442 972 410 972 q 493 992 474 972 q 513 1043 513 1011 l 685 1043 q 618 867 685 933 m 590 694 l 785 694 l 785 68 q 680 -195 785 -96 q 401 -294 575 -294 q 192 -238 289 -294 q 49 -89 94 -182 l 232 13 q 297 -69 251 -39 q 396 -100 342 -100 q 517 -52 471 -100 q 563 75 563 -4 l 563 138 l 557 138 q 490 58 544 89 q 360 28 436 28 q 134 122 219 28 q 49 369 49 215 q 134 617 49 524 q 360 711 219 711 q 490 681 436 711 q 557 600 544 650 l 563 600 l 590 694 m 415 218 q 522 260 482 218 q 563 369 563 301 q 522 481 563 439 q 415 522 482 522 q 310 480 350 522 q 271 369 271 438 q 310 260 271 301 q 415 218 350 218 z "},"Ġ":{"ha":1072,"x_min":42,"x_max":996,"o":"m 644 1318 l 644 1096 l 422 1096 l 422 1318 l 644 1318 m 511 574 l 996 574 l 996 0 l 836 0 l 783 113 q 499 -17 689 -17 q 167 124 293 -17 q 42 493 42 264 q 177 863 42 722 q 533 1003 313 1003 q 819 921 697 1003 q 978 704 942 839 l 763 626 q 677 733 738 693 q 543 774 617 774 q 360 697 429 774 q 292 493 292 619 q 364 290 292 367 q 554 213 436 213 q 693 258 638 213 q 756 379 749 304 l 511 379 l 511 574 z "},"ġ":{"ha":854,"x_min":49,"x_max":785,"o":"m 553 1036 l 553 814 l 331 814 l 331 1036 l 553 1036 m 590 694 l 785 694 l 785 68 q 680 -195 785 -96 q 401 -294 575 -294 q 192 -238 289 -294 q 49 -89 94 -182 l 232 13 q 297 -69 251 -39 q 396 -100 342 -100 q 517 -52 471 -100 q 563 75 563 -4 l 563 138 l 557 138 q 490 58 544 89 q 360 28 436 28 q 134 122 219 28 q 49 369 49 215 q 134 617 49 524 q 360 711 219 711 q 490 681 436 711 q 557 600 544 650 l 563 600 l 590 694 m 415 218 q 522 260 482 218 q 563 369 563 301 q 522 481 563 439 q 415 522 482 522 q 310 480 350 522 q 271 369 271 438 q 310 260 271 301 q 415 218 350 218 z "},"Ģ":{"ha":1072,"x_min":42,"x_max":996,"o":"m 511 574 l 996 574 l 996 0 l 836 0 l 783 113 q 499 -17 689 -17 q 167 124 293 -17 q 42 493 42 264 q 177 863 42 722 q 533 1003 313 1003 q 819 921 697 1003 q 978 704 942 839 l 763 626 q 677 733 738 693 q 543 774 617 774 q 360 697 429 774 q 292 493 292 619 q 364 290 292 367 q 554 213 436 213 q 693 258 638 213 q 756 379 749 304 l 511 379 l 511 574 m 468 -278 l 468 -97 l 663 -97 l 663 -278 l 610 -361 l 492 -361 l 544 -278 l 468 -278 z "},"ģ":{"ha":854,"x_min":49,"x_max":785,"o":"m 590 694 l 785 694 l 785 68 q 680 -195 785 -96 q 401 -294 575 -294 q 192 -238 289 -294 q 49 -89 94 -182 l 232 13 q 297 -69 251 -39 q 396 -100 342 -100 q 517 -52 471 -100 q 563 75 563 -4 l 563 138 l 557 138 q 490 58 544 89 q 360 28 436 28 q 134 122 219 28 q 49 369 49 215 q 134 617 49 524 q 360 711 219 711 q 490 681 436 711 q 557 600 544 650 l 563 600 l 590 694 m 415 218 q 522 260 482 218 q 563 369 563 301 q 522 481 563 439 q 415 522 482 522 q 310 480 350 522 q 271 369 271 438 q 310 260 271 301 q 415 218 350 218 m 317 -572 l 317 -392 l 511 -392 l 511 -572 l 458 -656 l 340 -656 l 393 -572 l 317 -572 z "},"Ħ":{"ha":1000,"x_min":-83,"x_max":1083,"o":"m 1083 846 l 1083 747 l 917 747 l 917 0 l 681 0 l 681 382 l 319 382 l 319 0 l 83 0 l 83 747 l -83 747 l -83 846 l 83 846 l 83 986 l 319 986 l 319 846 l 681 846 l 681 986 l 917 986 l 917 846 l 1083 846 m 681 604 l 681 747 l 319 747 l 319 604 l 681 604 z "},"ħ":{"ha":813,"x_min":-69,"x_max":750,"o":"m 503 711 q 682 640 614 711 q 750 453 750 569 l 750 0 l 528 0 l 528 375 q 496 467 528 432 q 411 503 464 503 q 324 467 357 503 q 292 375 292 432 l 292 0 l 69 0 l 69 783 l -69 783 l -69 882 l 69 882 l 69 1028 l 292 1028 l 292 882 l 504 882 l 504 783 l 292 783 l 292 592 l 297 592 q 370 678 314 646 q 503 711 426 711 z "},"Ī":{"ha":403,"x_min":-33,"x_max":431,"o":"m -33 1096 l -33 1263 l 431 1263 l 431 1096 l -33 1096 m 83 0 l 83 986 l 319 986 l 319 0 l 83 0 z "},"ī":{"ha":361,"x_min":-49,"x_max":415,"o":"m -49 814 l -49 981 l 415 981 l 415 814 l -49 814 m 69 0 l 69 694 l 292 694 l 292 0 l 69 0 z "},"Į":{"ha":403,"x_min":83,"x_max":374,"o":"m 338 -114 l 374 -225 q 249 -267 314 -267 q 139 -229 181 -267 q 97 -131 97 -192 q 163 0 97 -51 l 83 0 l 83 986 l 319 986 l 319 0 q 243 -78 243 -31 q 256 -111 243 -99 q 290 -124 269 -124 q 338 -114 318 -124 z "},"į":{"ha":361,"x_min":69,"x_max":346,"o":"m 292 1028 l 292 806 l 69 806 l 69 1028 l 292 1028 m 310 -114 l 346 -225 q 221 -267 286 -267 q 111 -229 153 -267 q 69 -131 69 -192 q 135 0 69 -51 l 69 0 l 69 694 l 292 694 l 292 0 q 215 -78 215 -31 q 228 -111 215 -99 q 263 -124 242 -124 q 310 -114 290 -124 z "},"İ":{"ha":403,"x_min":83,"x_max":319,"o":"m 88 1096 l 88 1318 l 310 1318 l 310 1096 l 88 1096 m 83 0 l 83 986 l 319 986 l 319 0 l 83 0 z "},"ı":{"ha":361,"x_min":69,"x_max":292,"o":"m 69 0 l 69 694 l 292 694 l 292 0 l 69 0 z "},"Ĳ":{"ha":1278,"x_min":83,"x_max":1208,"o":"m 83 0 l 83 986 l 319 986 l 319 0 l 83 0 m 819 -17 q 556 81 664 -17 q 424 340 447 179 l 635 410 q 699 262 647 318 q 825 206 751 206 q 934 251 896 206 q 972 381 972 296 l 972 986 l 1208 986 l 1208 381 q 1101 92 1208 201 q 819 -17 994 -17 z "},"ĳ":{"ha":722,"x_min":69,"x_max":653,"o":"m 69 806 l 69 1028 l 292 1028 l 292 806 l 69 806 m 431 806 l 431 1028 l 653 1028 l 653 806 l 431 806 m 69 0 l 69 694 l 292 694 l 292 0 l 69 0 m 257 -278 l 257 -83 l 361 -83 q 431 -17 431 -83 l 431 694 l 653 694 l 653 -19 q 585 -211 653 -144 q 389 -278 517 -278 l 257 -278 z "},"Ķ":{"ha":990,"x_min":83,"x_max":976,"o":"m 589 569 l 976 0 l 686 0 l 431 388 l 319 261 l 319 0 l 83 0 l 83 986 l 319 986 l 319 585 l 669 986 l 953 986 l 589 569 m 376 -278 l 376 -97 l 571 -97 l 571 -278 l 518 -361 l 400 -361 l 453 -278 l 376 -278 z "},"ķ":{"ha":821,"x_min":69,"x_max":814,"o":"m 531 417 l 814 0 l 549 0 l 375 256 l 292 169 l 292 0 l 69 0 l 69 1028 l 292 1028 l 292 450 l 533 694 l 800 694 l 531 417 m 321 -278 l 321 -97 l 515 -97 l 515 -278 l 463 -361 l 344 -361 l 397 -278 l 321 -278 z "},"ĸ":{"ha":821,"x_min":69,"x_max":814,"o":"m 549 0 l 375 256 l 292 169 l 292 0 l 69 0 l 69 694 l 292 694 l 292 450 l 533 694 l 800 694 l 531 417 l 814 0 l 549 0 z "},"Ĺ":{"ha":760,"x_min":83,"x_max":718,"o":"m 415 1326 l 269 1096 l 103 1096 l 179 1326 l 415 1326 m 319 222 l 718 222 l 718 0 l 83 0 l 83 986 l 319 986 l 319 222 z "},"ĺ":{"ha":471,"x_min":56,"x_max":443,"o":"m 139 1368 l 375 1368 l 229 1138 l 63 1138 l 139 1368 m 443 0 l 319 0 q 124 67 192 0 q 56 258 56 133 l 56 1028 l 278 1028 l 278 275 q 347 208 278 208 l 443 208 l 443 0 z "},"Ļ":{"ha":760,"x_min":83,"x_max":718,"o":"m 319 222 l 718 222 l 718 0 l 83 0 l 83 986 l 319 986 l 319 222 m 311 -278 l 311 -97 l 506 -97 l 506 -278 l 453 -361 l 335 -361 l 388 -278 l 311 -278 z "},"ļ":{"ha":471,"x_min":56,"x_max":443,"o":"m 443 0 l 319 0 q 124 67 192 0 q 56 258 56 133 l 56 1028 l 278 1028 l 278 275 q 347 208 278 208 l 443 208 l 443 0 m 208 -278 l 208 -97 l 403 -97 l 403 -278 l 350 -361 l 232 -361 l 285 -278 l 208 -278 z "},"Ľ":{"ha":760,"x_min":83,"x_max":718,"o":"m 319 222 l 718 222 l 718 0 l 83 0 l 83 986 l 319 986 l 319 222 m 631 986 l 574 706 l 458 706 l 458 986 l 631 986 z "},"ľ":{"ha":617,"x_min":56,"x_max":589,"o":"m 417 1031 l 589 1031 l 532 750 l 417 750 l 417 1031 m 443 0 l 319 0 q 124 67 192 0 q 56 258 56 133 l 56 1028 l 278 1028 l 278 275 q 347 208 278 208 l 443 208 l 443 0 z "},"Ŀ":{"ha":764,"x_min":83,"x_max":722,"o":"m 319 986 l 319 222 l 718 222 l 718 0 l 83 0 l 83 986 l 319 986 m 472 694 l 722 694 l 722 444 l 472 444 l 472 694 z "},"ŀ":{"ha":708,"x_min":56,"x_max":681,"o":"m 443 0 l 319 0 q 124 67 192 0 q 56 258 56 133 l 56 1028 l 278 1028 l 278 275 q 347 208 278 208 l 443 208 l 443 0 m 431 694 l 681 694 l 681 444 l 431 444 l 431 694 z "},"Ł":{"ha":861,"x_min":28,"x_max":819,"o":"m 421 222 l 819 222 l 819 0 l 185 0 l 185 404 l 76 342 l 28 426 l 185 517 l 185 986 l 421 986 l 421 653 l 547 725 l 596 640 l 421 540 l 421 222 z "},"ł":{"ha":582,"x_min":-14,"x_max":554,"o":"m 379 275 q 449 208 379 208 l 544 208 l 544 0 l 421 0 q 228 67 299 0 q 157 258 157 135 l 157 413 l 35 342 l -14 426 l 157 525 l 157 1028 l 379 1028 l 379 653 l 506 725 l 554 640 l 379 540 l 379 275 z "},"Ń":{"ha":1014,"x_min":83,"x_max":931,"o":"m 736 1326 l 590 1096 l 424 1096 l 500 1326 l 736 1326 m 694 986 l 931 986 l 931 0 l 653 0 l 319 624 l 319 0 l 83 0 l 83 986 l 361 986 l 694 363 l 694 986 z "},"ń":{"ha":813,"x_min":69,"x_max":750,"o":"m 617 1044 l 471 814 l 304 814 l 381 1044 l 617 1044 m 503 711 q 682 640 614 711 q 750 453 750 569 l 750 0 l 528 0 l 528 375 q 496 467 528 432 q 411 503 464 503 q 324 467 357 503 q 292 375 292 432 l 292 0 l 69 0 l 69 694 l 264 694 l 292 592 l 297 592 q 370 678 314 646 q 503 711 426 711 z "},"Ņ":{"ha":1014,"x_min":83,"x_max":931,"o":"m 694 986 l 931 986 l 931 0 l 653 0 l 319 624 l 319 0 l 83 0 l 83 986 l 361 986 l 694 363 l 694 986 m 431 -278 l 431 -97 l 625 -97 l 625 -278 l 572 -361 l 454 -361 l 507 -278 l 431 -278 z "},"ņ":{"ha":813,"x_min":69,"x_max":750,"o":"m 503 711 q 682 640 614 711 q 750 453 750 569 l 750 0 l 528 0 l 528 375 q 496 467 528 432 q 411 503 464 503 q 324 467 357 503 q 292 375 292 432 l 292 0 l 69 0 l 69 694 l 264 694 l 292 592 l 297 592 q 370 678 314 646 q 503 711 426 711 m 306 -278 l 306 -97 l 500 -97 l 500 -278 l 447 -361 l 329 -361 l 382 -278 l 306 -278 z "},"Ň":{"ha":1014,"x_min":83,"x_max":931,"o":"m 636 1096 l 419 1096 l 250 1339 l 471 1339 l 528 1231 l 583 1339 l 806 1339 l 636 1096 m 694 986 l 931 986 l 931 0 l 653 0 l 319 624 l 319 0 l 83 0 l 83 986 l 361 986 l 694 363 l 694 986 z "},"ň":{"ha":813,"x_min":69,"x_max":750,"o":"m 517 814 l 300 814 l 131 1057 l 351 1057 l 408 949 l 464 1057 l 686 1057 l 517 814 m 503 711 q 682 640 614 711 q 750 453 750 569 l 750 0 l 528 0 l 528 375 q 496 467 528 432 q 411 503 464 503 q 324 467 357 503 q 292 375 292 432 l 292 0 l 69 0 l 69 694 l 264 694 l 292 592 l 297 592 q 370 678 314 646 q 503 711 426 711 z "},"Ŋ":{"ha":1014,"x_min":83,"x_max":931,"o":"m 681 986 l 931 986 l 931 -64 q 886 -226 931 -175 q 747 -278 842 -278 l 543 -278 l 543 -69 l 613 -69 q 653 -28 653 -69 l 653 0 l 319 624 l 319 0 l 83 0 l 83 986 l 361 986 l 681 389 l 681 986 z "},"ŋ":{"ha":813,"x_min":69,"x_max":750,"o":"m 503 711 q 682 640 614 711 q 750 453 750 569 l 750 -19 q 682 -211 750 -144 q 486 -278 614 -278 l 396 -278 l 396 -83 l 458 -83 q 528 -17 528 -83 l 528 375 q 496 467 528 432 q 411 503 464 503 q 324 467 357 503 q 292 375 292 432 l 292 0 l 69 0 l 69 694 l 264 694 l 292 592 l 297 592 q 370 678 314 646 q 503 711 426 711 z "},"Ō":{"ha":1089,"x_min":42,"x_max":1047,"o":"m 313 1096 l 313 1263 l 776 1263 l 776 1096 l 313 1096 m 909 123 q 840 53 909 123 q 544 -17 771 -17 q 180 124 318 -17 q 42 493 42 264 q 180 863 42 722 q 544 1003 318 1003 q 909 863 771 1003 q 1047 492 1047 722 q 909 123 1047 263 m 361 290 q 396 251 361 290 q 544 213 431 213 q 728 289 658 213 q 797 492 797 365 q 728 696 797 618 q 544 774 658 774 q 361 697 431 774 q 292 493 292 619 q 361 290 292 367 z "},"ō":{"ha":843,"x_min":49,"x_max":794,"o":"m 190 814 l 190 981 l 654 981 l 654 814 l 190 814 m 692 85 q 641 35 692 85 q 422 -15 590 -15 q 151 85 254 -15 q 49 349 49 185 q 151 613 49 513 q 422 714 254 714 q 692 613 590 714 q 794 349 794 513 q 692 85 794 185 m 422 193 q 528 236 488 193 q 568 349 568 279 q 528 463 568 419 q 422 506 488 506 q 315 463 356 506 q 275 349 275 419 q 315 236 275 279 q 422 193 356 193 z "},"Ő":{"ha":1089,"x_min":42,"x_max":1047,"o":"m 450 1326 l 617 1326 l 499 1096 l 332 1096 l 450 1326 m 700 1326 l 867 1326 l 749 1096 l 582 1096 l 700 1326 m 909 123 q 840 53 909 123 q 544 -17 771 -17 q 180 124 318 -17 q 42 493 42 264 q 180 863 42 722 q 544 1003 318 1003 q 909 863 771 1003 q 1047 492 1047 722 q 909 123 1047 263 m 361 290 q 396 251 361 290 q 544 213 431 213 q 728 289 658 213 q 797 492 797 365 q 728 696 797 618 q 544 774 658 774 q 361 697 431 774 q 292 493 292 619 q 361 290 292 367 z "},"ő":{"ha":843,"x_min":49,"x_max":794,"o":"m 328 1044 l 494 1044 l 376 814 l 210 814 l 328 1044 m 578 1044 l 744 1044 l 626 814 l 460 814 l 578 1044 m 692 85 q 641 35 692 85 q 422 -15 590 -15 q 151 85 254 -15 q 49 349 49 185 q 151 613 49 513 q 422 714 254 714 q 692 613 590 714 q 794 349 794 513 q 692 85 794 185 m 422 193 q 528 236 488 193 q 568 349 568 279 q 528 463 568 419 q 422 506 488 506 q 315 463 356 506 q 275 349 275 419 q 315 236 275 279 q 422 193 356 193 z "},"Œ":{"ha":1524,"x_min":42,"x_max":1482,"o":"m 1028 222 l 1482 222 l 1482 0 l 792 0 l 792 61 q 535 -17 682 -17 q 177 124 313 -17 q 42 493 42 264 q 177 863 42 722 q 535 1003 313 1003 q 792 925 682 1003 l 792 986 l 1468 986 l 1468 764 l 1028 764 l 1028 597 l 1399 597 l 1399 389 l 1028 389 l 1028 222 m 358 290 q 392 251 358 290 q 535 213 425 213 q 711 290 644 213 q 778 493 778 367 q 711 697 778 619 q 535 774 644 774 q 358 697 425 774 q 292 493 292 619 q 358 290 292 367 z "},"œ":{"ha":1325,"x_min":49,"x_max":1276,"o":"m 1276 347 l 1276 281 l 797 281 q 950 172 826 172 q 1082 236 1053 172 l 1256 163 q 1133 33 1218 82 q 949 -17 1049 -17 q 676 93 778 -17 q 426 -15 585 -15 q 153 85 257 -15 q 49 349 49 185 q 153 613 49 513 q 426 714 257 714 q 676 606 583 714 q 935 711 774 711 q 1183 611 1089 711 q 1276 347 1276 511 m 928 522 q 794 406 818 522 l 1067 406 q 928 522 1051 522 m 317 236 q 338 215 317 236 q 426 193 358 193 q 535 236 494 193 q 576 349 576 279 q 535 463 576 419 q 426 506 494 506 q 317 463 358 506 q 275 349 275 419 q 317 236 275 279 z "},"Ŕ":{"ha":932,"x_min":83,"x_max":883,"o":"m 624 1326 l 478 1096 l 311 1096 l 388 1326 l 624 1326 m 621 0 l 481 319 l 319 319 l 319 0 l 83 0 l 83 986 l 513 986 q 765 894 669 986 q 861 653 861 803 q 820 483 861 557 q 706 367 779 408 l 883 0 l 621 0 m 319 764 l 319 542 l 490 542 q 583 572 547 542 q 618 653 618 603 q 583 733 618 703 q 490 764 547 764 l 319 764 z "},"ŕ":{"ha":563,"x_min":69,"x_max":542,"o":"m 483 1044 l 338 814 l 171 814 l 247 1044 l 483 1044 m 463 694 l 542 694 l 542 472 l 435 472 q 331 424 371 472 q 292 296 292 375 l 292 0 l 69 0 l 69 694 l 264 694 l 292 561 l 294 561 q 355 658 308 621 q 463 694 401 694 z "},"Ŗ":{"ha":932,"x_min":83,"x_max":883,"o":"m 706 367 l 883 0 l 621 0 l 481 319 l 319 319 l 319 0 l 83 0 l 83 986 l 513 986 q 765 894 669 986 q 861 653 861 803 q 820 483 861 557 q 706 367 779 408 m 319 764 l 319 542 l 490 542 q 583 572 547 542 q 618 653 618 603 q 583 733 618 703 q 490 764 547 764 l 319 764 m 357 -278 l 357 -97 l 551 -97 l 551 -278 l 499 -361 l 381 -361 l 433 -278 l 357 -278 z "},"ŗ":{"ha":563,"x_min":69,"x_max":542,"o":"m 463 694 l 542 694 l 542 472 l 435 472 q 331 424 371 472 q 292 296 292 375 l 292 0 l 69 0 l 69 694 l 264 694 l 292 561 l 294 561 q 355 658 308 621 q 463 694 401 694 m 85 -278 l 85 -97 l 279 -97 l 279 -278 l 226 -361 l 108 -361 l 161 -278 l 85 -278 z "},"Ř":{"ha":932,"x_min":83,"x_max":883,"o":"m 524 1096 l 307 1096 l 138 1339 l 358 1339 l 415 1231 l 471 1339 l 693 1339 l 524 1096 m 621 0 l 481 319 l 319 319 l 319 0 l 83 0 l 83 986 l 513 986 q 765 894 669 986 q 861 653 861 803 q 820 483 861 557 q 706 367 779 408 l 883 0 l 621 0 m 319 764 l 319 542 l 490 542 q 583 572 547 542 q 618 653 618 603 q 583 733 618 703 q 490 764 547 764 l 319 764 z "},"ř":{"ha":563,"x_min":-3,"x_max":553,"o":"m 383 814 l 167 814 l -3 1057 l 218 1057 l 275 949 l 331 1057 l 553 1057 l 383 814 m 294 561 q 355 658 308 621 q 463 694 401 694 l 542 694 l 542 472 l 435 472 q 331 424 371 472 q 292 296 292 375 l 292 0 l 69 0 l 69 694 l 264 694 l 292 561 l 294 561 z "},"Ś":{"ha":872,"x_min":35,"x_max":831,"o":"m 411 1326 l 647 1326 l 501 1096 l 335 1096 l 411 1326 m 435 -17 q 156 69 267 -17 q 35 294 46 154 l 254 328 q 312 224 258 264 q 449 185 365 185 q 549 212 511 185 q 588 282 588 239 q 506 364 588 347 l 313 410 q 125 513 190 439 q 60 699 60 588 q 167 919 60 835 q 449 1003 274 1003 q 678 932 581 1003 q 803 744 776 861 l 592 681 q 542 768 585 735 q 435 801 499 801 q 339 773 375 801 q 303 699 303 744 q 393 621 303 642 l 585 572 q 831 282 831 510 q 722 65 831 147 q 435 -17 613 -17 z "},"ś":{"ha":672,"x_min":28,"x_max":644,"o":"m 310 1044 l 546 1044 l 400 814 l 233 814 l 310 1044 m 217 232 q 252 176 218 197 q 339 154 286 154 q 399 168 376 154 q 422 206 422 182 q 386 244 422 238 l 268 268 q 103 344 160 290 q 46 479 46 399 q 129 647 46 583 q 347 711 213 711 q 524 660 447 711 q 626 528 600 610 l 440 472 q 407 522 433 503 q 342 540 381 540 q 288 526 308 540 q 268 489 268 513 q 319 444 268 454 l 438 421 q 591 349 538 401 q 644 219 644 297 q 562 49 644 114 q 343 -17 479 -17 q 128 44 215 -17 q 28 203 42 104 l 217 232 z "},"Ş":{"ha":872,"x_min":35,"x_max":831,"o":"m 831 282 q 747 87 831 165 q 521 -11 664 8 l 499 -44 q 589 -164 589 -76 q 544 -258 589 -222 q 428 -294 500 -294 q 330 -272 378 -294 q 254 -211 282 -249 l 342 -149 q 426 -192 374 -192 q 476 -156 476 -192 q 465 -131 476 -140 q 436 -121 454 -121 l 382 -121 l 353 -81 l 393 -15 q 142 80 240 -4 q 35 294 44 164 l 254 328 q 312 224 258 264 q 449 185 365 185 q 549 212 511 185 q 588 282 588 239 q 506 364 588 347 l 313 410 q 125 513 190 439 q 60 699 60 588 q 167 919 60 835 q 449 1003 274 1003 q 678 932 581 1003 q 803 744 776 861 l 592 681 q 542 768 585 735 q 435 801 499 801 q 339 773 375 801 q 303 699 303 744 q 393 621 303 642 l 585 572 q 831 282 831 510 z "},"ş":{"ha":672,"x_min":28,"x_max":644,"o":"m 644 219 q 590 74 644 133 q 439 -7 535 14 l 414 -44 q 504 -164 504 -76 q 460 -258 504 -222 q 343 -294 415 -294 q 245 -272 293 -294 q 169 -211 197 -249 l 257 -149 q 342 -192 289 -192 q 392 -156 392 -192 q 381 -131 392 -140 q 351 -121 369 -121 l 297 -121 l 268 -81 l 308 -15 q 118 52 194 -7 q 28 203 42 111 l 217 232 q 252 176 218 197 q 339 154 286 154 q 399 168 376 154 q 422 206 422 182 q 386 244 422 238 l 268 268 q 103 344 160 290 q 46 479 46 399 q 129 647 46 583 q 347 711 213 711 q 524 660 447 711 q 626 528 600 610 l 440 472 q 407 522 433 503 q 342 540 381 540 q 288 526 308 540 q 268 489 268 513 q 319 444 268 454 l 438 421 q 591 349 538 401 q 644 219 644 297 z "},"Š":{"ha":872,"x_min":35,"x_max":831,"o":"m 547 1096 l 331 1096 l 161 1339 l 382 1339 l 439 1231 l 494 1339 l 717 1339 l 547 1096 m 585 572 q 831 282 831 510 q 722 65 831 147 q 435 -17 613 -17 q 156 69 267 -17 q 35 294 46 154 l 254 328 q 312 224 258 264 q 449 185 365 185 q 549 212 511 185 q 588 282 588 239 q 506 364 588 347 l 313 410 q 125 513 190 439 q 60 699 60 588 q 167 919 60 835 q 449 1003 274 1003 q 678 932 581 1003 q 803 744 776 861 l 592 681 q 542 768 585 735 q 435 801 499 801 q 339 773 375 801 q 303 699 303 744 q 393 621 303 642 l 585 572 z "},"š":{"ha":672,"x_min":28,"x_max":644,"o":"m 446 814 l 229 814 l 60 1057 l 281 1057 l 338 949 l 393 1057 l 615 1057 l 446 814 m 438 421 q 591 349 538 401 q 644 219 644 297 q 562 49 644 114 q 343 -17 479 -17 q 128 44 215 -17 q 28 203 42 104 l 217 232 q 252 176 218 197 q 339 154 286 154 q 399 168 376 154 q 422 206 422 182 q 386 244 422 238 l 268 268 q 103 344 160 290 q 46 479 46 399 q 129 647 46 583 q 347 711 213 711 q 524 660 447 711 q 626 528 600 610 l 440 472 q 407 522 433 503 q 342 540 381 540 q 288 526 308 540 q 268 489 268 513 q 319 444 268 454 l 438 421 z "},"Ţ":{"ha":875,"x_min":28,"x_max":847,"o":"m 556 0 l 501 0 l 472 -44 q 563 -164 563 -76 q 518 -258 563 -222 q 401 -294 474 -294 q 303 -272 351 -294 q 228 -211 256 -249 l 315 -149 q 400 -192 347 -192 q 450 -156 450 -192 q 439 -131 450 -140 q 410 -121 428 -121 l 356 -121 l 326 -81 l 376 0 l 319 0 l 319 764 l 28 764 l 28 986 l 847 986 l 847 764 l 556 764 l 556 0 z "},"ţ":{"ha":622,"x_min":7,"x_max":581,"o":"m 581 500 l 379 500 l 379 275 q 476 194 379 194 l 581 194 l 581 0 l 499 0 l 469 -44 q 560 -164 560 -76 q 515 -258 560 -222 q 399 -294 471 -294 q 301 -272 349 -294 q 225 -211 253 -249 l 313 -149 q 397 -192 344 -192 q 447 -156 447 -192 q 436 -131 447 -140 q 407 -121 425 -121 l 353 -121 l 324 -81 l 375 3 q 213 80 269 14 q 157 258 157 146 l 157 500 l 7 500 l 7 694 l 157 694 l 157 908 l 379 908 l 379 694 l 581 694 l 581 500 z "},"Ť":{"ha":875,"x_min":28,"x_max":847,"o":"m 546 1096 l 329 1096 l 160 1339 l 381 1339 l 438 1231 l 493 1339 l 715 1339 l 546 1096 m 847 986 l 847 764 l 556 764 l 556 0 l 319 0 l 319 764 l 28 764 l 28 986 l 847 986 z "},"ť":{"ha":739,"x_min":7,"x_max":697,"o":"m 525 1044 l 697 1044 l 640 764 l 525 764 l 525 1044 m 379 908 l 379 694 l 581 694 l 581 500 l 379 500 l 379 275 q 476 194 379 194 l 581 194 l 581 0 l 421 0 q 225 67 293 0 q 157 258 157 133 l 157 500 l 7 500 l 7 694 l 157 694 l 157 908 l 379 908 z "},"Ŧ":{"ha":875,"x_min":28,"x_max":847,"o":"m 847 764 l 556 764 l 556 547 l 724 547 l 724 449 l 556 449 l 556 0 l 319 0 l 319 449 l 150 449 l 150 547 l 319 547 l 319 764 l 28 764 l 28 986 l 847 986 l 847 764 z "},"ŧ":{"ha":622,"x_min":7,"x_max":581,"o":"m 581 500 l 379 500 l 379 426 l 581 426 l 581 328 l 379 328 l 379 275 q 476 194 379 194 l 581 194 l 581 0 l 421 0 q 225 67 293 0 q 157 258 157 133 l 157 328 l 7 328 l 7 426 l 157 426 l 157 500 l 7 500 l 7 694 l 157 694 l 157 908 l 379 908 l 379 694 l 581 694 l 581 500 z "},"Ũ":{"ha":975,"x_min":69,"x_max":906,"o":"m 232 1096 l 351 1096 q 365 1141 351 1124 q 399 1158 378 1158 q 481 1127 431 1158 q 585 1096 531 1096 q 695 1142 653 1096 q 738 1261 738 1188 l 738 1303 l 619 1303 q 606 1258 619 1275 q 571 1240 593 1240 q 483 1272 536 1240 q 385 1303 429 1303 q 274 1257 317 1303 q 232 1138 232 1211 l 232 1096 m 792 96 q 735 40 792 96 q 488 -17 678 -17 q 183 96 297 -17 q 69 394 69 208 l 69 986 l 306 986 l 306 394 q 354 257 306 308 q 488 206 403 206 q 621 257 572 206 q 669 394 669 308 l 669 986 l 906 986 l 906 394 q 792 96 906 208 z "},"ũ":{"ha":813,"x_min":63,"x_max":743,"o":"m 317 876 q 283 859 296 876 q 269 814 269 842 l 150 814 l 150 856 q 192 975 150 929 q 303 1021 235 1021 q 401 990 347 1021 q 489 958 454 958 q 524 976 511 958 q 538 1021 538 993 l 656 1021 l 656 979 q 613 860 656 906 q 503 814 571 814 q 400 845 450 814 q 317 876 350 876 m 521 694 l 743 694 l 743 0 l 549 0 l 521 101 l 515 101 q 442 16 499 49 q 310 -17 386 -17 q 131 54 199 -17 q 63 242 63 125 l 63 694 l 285 694 l 285 319 q 317 227 285 263 q 401 192 349 192 q 488 227 456 192 q 521 319 521 263 l 521 694 z "},"Ū":{"ha":975,"x_min":69,"x_max":906,"o":"m 253 1096 l 253 1263 l 717 1263 l 717 1096 l 253 1096 m 792 96 q 735 40 792 96 q 488 -17 678 -17 q 183 96 297 -17 q 69 394 69 208 l 69 986 l 306 986 l 306 394 q 354 257 306 308 q 488 206 403 206 q 621 257 572 206 q 669 394 669 308 l 669 986 l 906 986 l 906 394 q 792 96 906 208 z "},"ū":{"ha":813,"x_min":63,"x_max":743,"o":"m 635 981 l 635 814 l 171 814 l 171 981 l 635 981 m 521 694 l 743 694 l 743 0 l 549 0 l 521 101 l 515 101 q 442 16 499 49 q 310 -17 386 -17 q 131 54 199 -17 q 63 242 63 125 l 63 694 l 285 694 l 285 319 q 317 227 285 263 q 401 192 349 192 q 488 227 456 192 q 521 319 521 263 l 521 694 z "},"Ů":{"ha":975,"x_min":69,"x_max":906,"o":"m 486 1082 q 375 1122 417 1082 q 333 1229 333 1163 q 375 1341 333 1299 q 486 1383 417 1383 q 595 1341 554 1383 q 636 1229 636 1299 q 595 1122 636 1163 q 486 1082 554 1082 m 451 1196 q 458 1190 451 1196 q 485 1183 464 1183 q 518 1196 506 1183 q 531 1229 531 1208 q 518 1263 531 1250 q 485 1275 506 1275 q 451 1263 464 1275 q 439 1229 439 1250 q 451 1196 439 1208 m 792 96 q 735 40 792 96 q 488 -17 678 -17 q 183 96 297 -17 q 69 394 69 208 l 69 986 l 306 986 l 306 394 q 354 257 306 308 q 488 206 403 206 q 621 257 572 206 q 669 394 669 308 l 669 986 l 906 986 l 906 394 q 792 96 906 208 z "},"ů":{"ha":813,"x_min":63,"x_max":743,"o":"m 404 800 q 293 840 335 800 q 251 947 251 881 q 293 1059 251 1017 q 404 1101 335 1101 q 513 1059 472 1101 q 554 947 554 1017 q 513 840 554 881 q 404 800 472 800 m 436 981 q 430 987 436 981 q 403 993 424 993 q 369 981 382 993 q 357 947 357 968 q 369 914 357 926 q 403 901 382 901 q 436 914 424 901 q 449 947 449 926 q 436 981 449 968 m 521 694 l 743 694 l 743 0 l 549 0 l 521 101 l 515 101 q 442 16 499 49 q 310 -17 386 -17 q 131 54 199 -17 q 63 242 63 125 l 63 694 l 285 694 l 285 319 q 317 227 285 263 q 401 192 349 192 q 488 227 456 192 q 521 319 521 263 l 521 694 z "},"Ű":{"ha":975,"x_min":69,"x_max":906,"o":"m 390 1326 l 557 1326 l 439 1096 l 272 1096 l 390 1326 m 640 1326 l 807 1326 l 689 1096 l 522 1096 l 640 1326 m 792 96 q 735 40 792 96 q 488 -17 678 -17 q 183 96 297 -17 q 69 394 69 208 l 69 986 l 306 986 l 306 394 q 354 257 306 308 q 488 206 403 206 q 621 257 572 206 q 669 394 669 308 l 669 986 l 906 986 l 906 394 q 792 96 906 208 z "},"ű":{"ha":813,"x_min":63,"x_max":743,"o":"m 475 1044 l 357 814 l 190 814 l 308 1044 l 475 1044 m 607 814 l 440 814 l 558 1044 l 725 1044 l 607 814 m 521 694 l 743 694 l 743 0 l 549 0 l 521 101 l 515 101 q 442 16 499 49 q 310 -17 386 -17 q 131 54 199 -17 q 63 242 63 125 l 63 694 l 285 694 l 285 319 q 317 227 285 263 q 401 192 349 192 q 488 227 456 192 q 521 319 521 263 l 521 694 z "},"Ų":{"ha":975,"x_min":69,"x_max":906,"o":"m 669 986 l 906 986 l 906 394 q 849 168 906 264 q 688 24 792 72 q 611 -54 611 -7 q 624 -87 611 -75 q 658 -100 638 -100 q 706 -90 686 -100 l 742 -201 q 617 -243 682 -243 q 507 -206 549 -243 q 465 -107 465 -168 q 493 -17 465 -57 l 488 -17 q 183 96 297 -17 q 69 394 69 208 l 69 986 l 306 986 l 306 394 q 354 257 306 308 q 488 206 403 206 q 621 257 572 206 q 669 394 669 308 l 669 986 z "},"ų":{"ha":813,"x_min":63,"x_max":797,"o":"m 761 -114 l 797 -225 q 672 -267 738 -267 q 563 -229 604 -267 q 521 -131 521 -192 q 586 0 521 -51 l 549 0 l 521 101 l 515 101 q 442 16 499 49 q 310 -17 386 -17 q 131 54 199 -17 q 63 242 63 125 l 63 694 l 285 694 l 285 319 q 317 227 285 263 q 401 192 349 192 q 488 227 456 192 q 521 319 521 263 l 521 694 l 743 694 l 743 0 q 667 -78 667 -31 q 680 -111 667 -99 q 714 -124 693 -124 q 761 -114 742 -124 z "},"Ŵ":{"ha":1449,"x_min":11,"x_max":1438,"o":"m 733 1204 l 676 1096 l 456 1096 l 625 1339 l 842 1339 l 1011 1096 l 789 1096 l 733 1204 m 1176 986 l 1438 986 l 1151 0 l 894 0 l 725 592 l 554 0 l 297 0 l 11 986 l 276 986 l 440 328 l 590 986 l 858 986 l 1011 319 l 1176 986 z "},"ŵ":{"ha":1132,"x_min":7,"x_max":1125,"o":"m 571 913 l 514 804 l 293 804 l 463 1047 l 679 1047 l 849 804 l 626 804 l 571 913 m 878 694 l 1125 694 l 926 0 l 644 0 l 567 371 l 488 0 l 206 0 l 7 694 l 258 694 l 356 221 l 468 694 l 664 694 l 778 211 l 878 694 z "},"Ŷ":{"ha":925,"x_min":0,"x_max":925,"o":"m 467 1204 l 410 1096 l 189 1096 l 358 1339 l 575 1339 l 744 1096 l 522 1096 l 467 1204 m 925 986 l 581 322 l 581 0 l 344 0 l 344 322 l 0 986 l 278 986 l 463 581 l 647 986 l 925 986 z "},"ŷ":{"ha":753,"x_min":7,"x_max":746,"o":"m 381 922 l 324 814 l 103 814 l 272 1057 l 489 1057 l 658 814 l 436 814 l 381 922 m 500 694 l 746 694 l 518 0 l 499 -58 q 394 -224 461 -171 q 221 -278 326 -278 l 36 -278 l 36 -83 l 203 -83 q 249 -54 249 -83 q 244 -33 249 -46 l 7 694 l 257 694 l 378 185 l 500 694 z "},"Ÿ":{"ha":925,"x_min":0,"x_max":925,"o":"m 379 1290 l 379 1096 l 157 1096 l 157 1290 l 379 1290 m 768 1290 l 768 1096 l 546 1096 l 546 1290 l 768 1290 m 925 986 l 581 322 l 581 0 l 344 0 l 344 322 l 0 986 l 278 986 l 463 581 l 647 986 l 925 986 z "},"Ź":{"ha":844,"x_min":49,"x_max":796,"o":"m 618 1326 l 472 1096 l 306 1096 l 382 1326 l 618 1326 m 796 986 l 796 778 l 340 222 l 796 222 l 796 0 l 49 0 l 49 208 l 506 764 l 60 764 l 60 986 l 796 986 z "},"ź":{"ha":719,"x_min":49,"x_max":671,"o":"m 568 1044 l 422 814 l 256 814 l 332 1044 l 568 1044 m 671 694 l 671 554 l 361 194 l 671 194 l 671 0 l 49 0 l 49 140 l 360 500 l 57 500 l 57 694 l 671 694 z "},"Ż":{"ha":844,"x_min":49,"x_max":796,"o":"m 521 1318 l 521 1096 l 299 1096 l 299 1318 l 521 1318 m 796 986 l 796 778 l 340 222 l 796 222 l 796 0 l 49 0 l 49 208 l 506 764 l 60 764 l 60 986 l 796 986 z "},"ż":{"ha":719,"x_min":49,"x_max":671,"o":"m 471 1036 l 471 814 l 249 814 l 249 1036 l 471 1036 m 671 694 l 671 554 l 361 194 l 671 194 l 671 0 l 49 0 l 49 140 l 360 500 l 57 500 l 57 694 l 671 694 z "},"Ž":{"ha":844,"x_min":49,"x_max":796,"o":"m 518 1096 l 301 1096 l 132 1339 l 353 1339 l 410 1231 l 465 1339 l 688 1339 l 518 1096 m 796 986 l 796 778 l 340 222 l 796 222 l 796 0 l 49 0 l 49 208 l 506 764 l 60 764 l 60 986 l 796 986 z "},"ž":{"ha":719,"x_min":49,"x_max":671,"o":"m 468 814 l 251 814 l 82 1057 l 303 1057 l 360 949 l 415 1057 l 638 1057 l 468 814 m 671 694 l 671 554 l 361 194 l 671 194 l 671 0 l 49 0 l 49 140 l 360 500 l 57 500 l 57 694 l 671 694 z "},"ƒ":{"ha":772,"x_min":42,"x_max":731,"o":"m 626 833 q 561 811 588 833 q 529 753 535 789 l 517 653 l 671 653 l 671 458 l 492 458 l 465 258 q 378 71 451 142 q 201 0 306 0 l 42 0 l 42 194 l 146 194 q 211 217 185 194 q 243 275 238 239 l 267 458 l 111 458 l 111 653 l 292 653 l 307 769 q 394 957 321 886 q 571 1028 467 1028 l 731 1028 l 731 833 l 626 833 z "},"Ǫ":{"ha":1089,"x_min":42,"x_max":1047,"o":"m 732 13 q 678 -54 678 -17 q 691 -87 678 -75 q 725 -100 704 -100 q 772 -90 753 -100 l 808 -201 q 683 -243 749 -243 q 574 -206 615 -243 q 532 -107 532 -168 q 560 -17 532 -57 l 544 -17 q 180 124 318 -17 q 42 493 42 264 q 180 863 42 722 q 544 1003 318 1003 q 909 863 771 1003 q 1047 492 1047 722 q 963 189 1047 315 q 732 13 879 63 m 361 697 q 326 658 361 697 q 292 493 292 619 q 361 290 292 367 q 544 213 431 213 q 728 289 658 213 q 797 492 797 365 q 728 696 797 618 q 544 774 658 774 q 361 697 431 774 z "},"ǫ":{"ha":843,"x_min":49,"x_max":794,"o":"m 572 10 q 524 -54 524 -19 q 537 -87 524 -75 q 571 -100 550 -100 q 618 -90 599 -100 l 654 -201 q 529 -243 594 -243 q 419 -206 461 -243 q 378 -107 378 -168 q 407 -15 378 -56 q 147 90 246 -10 q 49 349 49 189 q 151 613 49 513 q 422 714 254 714 q 692 613 590 714 q 794 349 794 513 q 735 136 794 225 q 572 10 676 47 m 275 349 q 315 236 275 279 q 422 193 356 193 q 528 236 488 193 q 568 349 568 279 q 528 463 568 419 q 422 506 488 506 q 315 463 356 506 q 275 349 275 419 z "},"Ǽ":{"ha":1344,"x_min":11,"x_max":1303,"o":"m 1011 1326 l 865 1096 l 699 1096 l 775 1326 l 1011 1326 m 849 222 l 1303 222 l 1303 0 l 613 0 l 613 164 l 335 164 l 265 0 l 11 0 l 456 986 l 1289 986 l 1289 764 l 849 764 l 849 597 l 1219 597 l 1219 389 l 849 389 l 849 222 m 422 372 l 613 372 l 613 764 l 588 764 l 422 372 z "},"ǽ":{"ha":1225,"x_min":42,"x_max":1176,"o":"m 810 1044 l 664 814 l 497 814 l 574 1044 l 810 1044 m 1176 347 l 1176 281 l 697 281 q 850 172 726 172 q 982 236 953 172 l 1156 163 q 1034 33 1118 82 q 851 -17 950 -17 q 565 107 667 -17 q 453 16 526 49 q 285 -17 379 -17 q 104 36 167 -17 q 42 188 42 89 q 96 320 42 268 q 253 388 150 372 l 414 413 q 467 468 467 421 l 467 469 q 379 531 467 531 q 265 438 285 531 l 69 486 q 179 653 99 594 q 382 711 260 711 q 615 642 535 711 q 832 711 704 711 q 1082 611 988 711 q 1176 347 1176 511 m 828 522 q 694 406 718 522 l 967 406 q 828 522 951 522 m 349 140 q 434 176 401 140 q 467 269 467 211 l 467 285 l 333 264 q 264 200 264 253 q 349 140 264 140 z "},"Ǿ":{"ha":1089,"x_min":42,"x_max":1047,"o":"m 778 1326 l 632 1096 l 465 1096 l 542 1326 l 778 1326 m 944 822 q 1047 492 1047 686 q 909 123 1047 263 q 544 -17 771 -17 q 214 93 344 -17 l 117 -4 l 47 65 l 146 164 q 42 493 42 296 q 180 863 42 722 q 544 1003 318 1003 q 875 893 744 1003 l 971 989 l 1040 918 l 944 822 m 292 493 q 325 343 292 406 l 703 721 q 544 774 636 774 q 361 697 431 774 q 292 493 292 619 m 544 213 q 728 289 658 213 q 797 492 797 365 q 764 643 797 578 l 386 265 q 544 213 454 213 z "},"ǿ":{"ha":843,"x_min":49,"x_max":796,"o":"m 617 1044 l 471 814 l 304 814 l 381 1044 l 617 1044 m 796 651 l 724 579 q 794 349 794 485 q 692 85 794 185 q 422 -15 590 -15 q 194 50 290 -15 l 118 -26 l 49 43 l 122 117 q 49 349 49 213 q 151 613 49 513 q 422 714 254 714 q 653 647 558 714 l 726 721 l 796 651 m 275 349 q 288 282 275 311 l 494 489 q 422 506 464 506 q 315 463 356 506 q 275 349 275 419 m 568 349 q 557 413 568 383 l 353 208 q 422 193 383 193 q 528 236 488 193 q 568 349 568 279 z "},"Ș":{"ha":872,"x_min":35,"x_max":831,"o":"m 435 -17 q 156 69 267 -17 q 35 294 46 154 l 254 328 q 312 224 258 264 q 449 185 365 185 q 549 212 511 185 q 588 282 588 239 q 506 364 588 347 l 313 410 q 125 513 190 439 q 60 699 60 588 q 167 919 60 835 q 449 1003 274 1003 q 678 932 581 1003 q 803 744 776 861 l 592 681 q 542 768 585 735 q 435 801 499 801 q 339 773 375 801 q 303 699 303 744 q 393 621 303 642 l 585 572 q 831 282 831 510 q 722 65 831 147 q 435 -17 613 -17 m 381 -278 l 381 -97 l 575 -97 l 575 -278 l 522 -361 l 404 -361 l 457 -278 l 381 -278 z "},"ș":{"ha":672,"x_min":28,"x_max":644,"o":"m 217 232 q 252 176 218 197 q 339 154 286 154 q 399 168 376 154 q 422 206 422 182 q 386 244 422 238 l 268 268 q 103 344 160 290 q 46 479 46 399 q 129 647 46 583 q 347 711 213 711 q 524 660 447 711 q 626 528 600 610 l 440 472 q 407 522 433 503 q 342 540 381 540 q 288 526 308 540 q 268 489 268 513 q 319 444 268 454 l 438 421 q 591 349 538 401 q 644 219 644 297 q 562 49 644 114 q 343 -17 479 -17 q 128 44 215 -17 q 28 203 42 104 l 217 232 m 296 -278 l 296 -97 l 490 -97 l 490 -278 l 438 -361 l 319 -361 l 372 -278 l 296 -278 z "},"Ț":{"ha":875,"x_min":28,"x_max":847,"o":"m 847 986 l 847 764 l 556 764 l 556 0 l 319 0 l 319 764 l 28 764 l 28 986 l 847 986 m 340 -278 l 340 -97 l 535 -97 l 535 -278 l 482 -361 l 364 -361 l 417 -278 l 340 -278 z "},"ț":{"ha":622,"x_min":7,"x_max":581,"o":"m 581 500 l 379 500 l 379 275 q 476 194 379 194 l 581 194 l 581 0 l 421 0 q 225 67 293 0 q 157 258 157 133 l 157 500 l 7 500 l 7 694 l 157 694 l 157 908 l 379 908 l 379 694 l 581 694 l 581 500 m 351 -278 l 351 -97 l 546 -97 l 546 -278 l 493 -361 l 375 -361 l 428 -278 l 351 -278 z "},"ȷ":{"ha":361,"x_min":-104,"x_max":292,"o":"m -104 -278 l -104 -83 l 0 -83 q 69 -17 69 -83 l 69 694 l 292 694 l 292 -19 q 224 -211 292 -144 q 28 -278 156 -278 l -104 -278 z "},"ˆ":{"ha":694,"x_min":69,"x_max":625,"o":"m 625 804 l 403 804 l 347 913 l 290 804 l 69 804 l 239 1047 l 456 1047 l 625 804 z "},"ˇ":{"ha":694,"x_min":69,"x_max":625,"o":"m 403 1047 l 625 1047 l 456 804 l 239 804 l 69 1047 l 290 1047 l 347 939 l 403 1047 z "},"˘":{"ha":625,"x_min":69,"x_max":556,"o":"m 556 1033 q 489 857 556 924 q 313 790 422 790 q 136 857 203 790 q 69 1033 69 924 l 242 1033 q 261 982 242 1001 q 313 963 281 963 q 364 982 344 963 q 383 1033 383 1001 l 556 1033 z "},"˙":{"ha":361,"x_min":69,"x_max":292,"o":"m 69 804 l 69 1026 l 292 1026 l 292 804 l 69 804 z "},"˚":{"ha":442,"x_min":69,"x_max":372,"o":"m 222 790 q 111 831 153 790 q 69 938 69 871 q 111 1049 69 1007 q 222 1092 153 1092 q 331 1049 290 1092 q 372 938 372 1007 q 331 831 372 871 q 222 790 290 790 m 188 904 q 194 898 188 904 q 221 892 200 892 q 254 904 242 892 q 267 938 267 917 q 254 971 267 958 q 221 983 242 983 q 188 971 200 983 q 175 938 175 958 q 188 904 175 917 z "},"˛":{"ha":415,"x_min":69,"x_max":346,"o":"m 221 -267 q 111 -229 153 -267 q 69 -131 69 -192 q 117 -16 69 -64 q 243 44 165 32 l 292 0 q 215 -78 215 -31 q 228 -111 215 -99 q 263 -124 242 -124 q 310 -114 290 -124 l 346 -225 q 221 -267 286 -267 z "},"˜":{"ha":644,"x_min":69,"x_max":575,"o":"m 69 804 l 189 804 q 202 849 189 832 q 236 867 215 867 q 319 835 269 867 q 422 804 369 804 q 533 850 490 804 q 575 969 575 896 l 575 1011 l 457 1011 q 444 966 457 983 q 408 949 431 949 q 320 980 374 949 q 222 1011 267 1011 q 112 965 154 1011 q 69 846 69 919 l 69 804 z "},"˝":{"ha":674,"x_min":69,"x_max":604,"o":"m 188 1035 l 354 1035 l 236 804 l 69 804 l 188 1035 m 438 1035 l 604 1035 l 486 804 l 319 804 l 438 1035 z "},"̀":{"ha":0,"x_min":-382,"x_max":-69,"o":"m -146 1035 l -69 804 l -236 804 l -382 1035 l -146 1035 z "},"́":{"ha":0,"x_min":-382,"x_max":-69,"o":"m -306 1035 l -69 1035 l -215 804 l -382 804 l -306 1035 z "},"̂":{"ha":0,"x_min":-625,"x_max":-69,"o":"m -69 804 l -292 804 l -347 913 l -404 804 l -625 804 l -456 1047 l -239 1047 l -69 804 z "},"̃":{"ha":0,"x_min":-575,"x_max":-69,"o":"m -575 804 l -456 804 q -442 849 -456 832 q -408 867 -429 867 q -325 835 -375 867 q -222 804 -275 804 q -112 850 -154 804 q -69 969 -69 896 l -69 1011 l -187 1011 q -201 966 -187 983 q -236 949 -214 949 q -324 980 -271 949 q -422 1011 -378 1011 q -533 965 -490 1011 q -575 846 -575 919 l -575 804 z "},"̄":{"ha":0,"x_min":-533,"x_max":-69,"o":"m -533 804 l -533 971 l -69 971 l -69 804 l -533 804 z "},"̆":{"ha":0,"x_min":-556,"x_max":-69,"o":"m -69 1033 q -136 857 -69 924 q -312 790 -203 790 q -489 857 -422 790 q -556 1033 -556 924 l -383 1033 q -364 982 -383 1001 q -312 963 -344 963 q -261 982 -281 963 q -242 1033 -242 1001 l -69 1033 z "},"̇":{"ha":0,"x_min":-292,"x_max":-69,"o":"m -292 804 l -292 1026 l -69 1026 l -69 804 l -292 804 z "},"̈":{"ha":0,"x_min":-681,"x_max":-69,"o":"m -681 804 l -681 999 l -458 999 l -458 804 l -681 804 m -292 804 l -292 999 l -69 999 l -69 804 l -292 804 z "},"̊":{"ha":0,"x_min":-372,"x_max":-69,"o":"m -219 790 q -331 831 -289 790 q -372 938 -372 871 q -331 1049 -372 1007 q -219 1092 -289 1092 q -110 1049 -151 1092 q -69 938 -69 1007 q -110 831 -69 871 q -219 790 -151 790 m -254 904 q -248 898 -254 904 q -221 892 -242 892 q -187 904 -200 892 q -175 938 -175 917 q -187 971 -175 958 q -221 983 -200 983 q -254 971 -242 983 q -267 938 -267 958 q -254 904 -267 917 z "},"̋":{"ha":0,"x_min":-604,"x_max":-69,"o":"m -486 1035 l -319 1035 l -437 804 l -604 804 l -486 1035 m -236 1035 l -69 1035 l -187 804 l -354 804 l -236 1035 z "},"̌":{"ha":0,"x_min":-625,"x_max":-69,"o":"m -292 1047 l -69 1047 l -239 804 l -456 804 l -625 1047 l -404 1047 l -347 939 l -292 1047 z "},"̦":{"ha":0,"x_min":-264,"x_max":-69,"o":"m -264 -278 l -264 -97 l -69 -97 l -69 -278 l -122 -361 l -240 -361 l -187 -278 l -264 -278 z "},"̧":{"ha":0,"x_min":-404,"x_max":-69,"o":"m -160 -44 q -69 -164 -69 -76 q -114 -258 -69 -222 q -231 -294 -158 -294 q -328 -272 -281 -294 q -404 -211 -376 -249 l -317 -149 q -232 -192 -285 -192 q -182 -156 -182 -192 q -193 -131 -182 -140 q -222 -121 -204 -121 l -276 -121 l -306 -81 l -237 31 l -111 31 l -160 -44 z "},"̨":{"ha":0,"x_min":-346,"x_max":-69,"o":"m -194 -267 q -304 -229 -262 -267 q -346 -131 -346 -192 q -298 -16 -346 -64 q -172 44 -250 32 l -124 0 q -200 -78 -200 -31 q -187 -111 -200 -99 q -153 -124 -174 -124 q -106 -114 -125 -124 l -69 -225 q -194 -267 -129 -267 z "},"̵":{"ha":0,"x_min":-643,"x_max":-69,"o":"m -643 364 l -643 463 l -69 463 l -69 364 l -643 364 z "},"̶":{"ha":0,"x_min":-1236,"x_max":-69,"o":"m -1236 364 l -1236 463 l -69 463 l -69 364 l -1236 364 z "},"̷":{"ha":0,"x_min":-817,"x_max":-69,"o":"m -817 47 l -139 725 l -69 656 l -747 -22 l -817 47 z "},"̸":{"ha":0,"x_min":-1062,"x_max":-69,"o":"m -1062 65 l -139 989 l -69 918 l -993 -4 l -1062 65 z "},"Ẁ":{"ha":1449,"x_min":11,"x_max":1438,"o":"m 822 1096 l 656 1096 l 510 1326 l 746 1326 l 822 1096 m 1176 986 l 1438 986 l 1151 0 l 894 0 l 725 592 l 554 0 l 297 0 l 11 986 l 276 986 l 440 328 l 590 986 l 858 986 l 1011 319 l 1176 986 z "},"ẁ":{"ha":1132,"x_min":7,"x_max":1125,"o":"m 660 804 l 493 804 l 347 1035 l 583 1035 l 660 804 m 878 694 l 1125 694 l 926 0 l 644 0 l 567 371 l 488 0 l 206 0 l 7 694 l 258 694 l 356 221 l 468 694 l 664 694 l 778 211 l 878 694 z "},"Ẃ":{"ha":1449,"x_min":11,"x_max":1438,"o":"m 938 1326 l 792 1096 l 625 1096 l 701 1326 l 938 1326 m 1176 986 l 1438 986 l 1151 0 l 894 0 l 725 592 l 554 0 l 297 0 l 11 986 l 276 986 l 440 328 l 590 986 l 858 986 l 1011 319 l 1176 986 z "},"ẃ":{"ha":1132,"x_min":7,"x_max":1125,"o":"m 775 1035 l 629 804 l 463 804 l 539 1035 l 775 1035 m 878 694 l 1125 694 l 926 0 l 644 0 l 567 371 l 488 0 l 206 0 l 7 694 l 258 694 l 356 221 l 468 694 l 664 694 l 778 211 l 878 694 z "},"Ẅ":{"ha":1449,"x_min":11,"x_max":1438,"o":"m 646 1290 l 646 1096 l 424 1096 l 424 1290 l 646 1290 m 1035 1290 l 1035 1096 l 813 1096 l 813 1290 l 1035 1290 m 1176 986 l 1438 986 l 1151 0 l 894 0 l 725 592 l 554 0 l 297 0 l 11 986 l 276 986 l 440 328 l 590 986 l 858 986 l 1011 319 l 1176 986 z "},"ẅ":{"ha":1132,"x_min":7,"x_max":1125,"o":"m 483 999 l 483 804 l 261 804 l 261 999 l 483 999 m 872 999 l 872 804 l 650 804 l 650 999 l 872 999 m 878 694 l 1125 694 l 926 0 l 644 0 l 567 371 l 488 0 l 206 0 l 7 694 l 258 694 l 356 221 l 468 694 l 664 694 l 778 211 l 878 694 z "},"Ỳ":{"ha":925,"x_min":0,"x_max":925,"o":"m 556 1096 l 389 1096 l 243 1326 l 479 1326 l 556 1096 m 925 986 l 581 322 l 581 0 l 344 0 l 344 322 l 0 986 l 278 986 l 463 581 l 647 986 l 925 986 z "},"ỳ":{"ha":753,"x_min":7,"x_max":746,"o":"m 469 814 l 303 814 l 157 1044 l 393 1044 l 469 814 m 500 694 l 746 694 l 518 0 l 499 -58 q 394 -224 461 -171 q 221 -278 326 -278 l 36 -278 l 36 -83 l 203 -83 q 249 -54 249 -83 q 244 -33 249 -46 l 7 694 l 257 694 l 378 185 l 500 694 z "},"Ỹ":{"ha":925,"x_min":0,"x_max":925,"o":"m 376 1158 q 342 1141 356 1158 q 329 1096 329 1124 l 210 1096 l 210 1138 q 252 1257 210 1211 q 363 1303 294 1303 q 460 1272 407 1303 q 549 1240 514 1240 q 584 1258 571 1240 q 597 1303 597 1275 l 715 1303 l 715 1261 q 673 1142 715 1188 q 563 1096 631 1096 q 458 1127 508 1096 q 376 1158 408 1158 m 925 986 l 581 322 l 581 0 l 344 0 l 344 322 l 0 986 l 278 986 l 463 581 l 647 986 l 925 986 z "},"ỹ":{"ha":753,"x_min":7,"x_max":746,"o":"m 290 876 q 256 859 269 876 q 243 814 243 842 l 124 814 l 124 856 q 166 975 124 929 q 276 1021 208 1021 q 374 990 321 1021 q 463 958 428 958 q 498 976 485 958 q 511 1021 511 993 l 629 1021 l 629 979 q 587 860 629 906 q 476 814 544 814 q 372 845 422 814 q 290 876 322 876 m 500 694 l 746 694 l 518 0 l 499 -58 q 394 -224 461 -171 q 221 -278 326 -278 l 36 -278 l 36 -83 l 203 -83 q 249 -54 249 -83 q 244 -33 249 -46 l 7 694 l 257 694 l 378 185 l 500 694 z "},"–":{"ha":917,"x_min":42,"x_max":875,"o":"m 42 344 l 42 518 l 875 518 l 875 344 l 42 344 z "},"—":{"ha":1333,"x_min":42,"x_max":1292,"o":"m 42 344 l 42 518 l 1292 518 l 1292 344 l 42 344 z "},"‘":{"ha":347,"x_min":56,"x_max":292,"o":"m 56 636 l 56 874 q 97 988 56 949 q 213 1028 138 1028 l 292 1028 l 292 926 l 215 926 q 174 886 174 926 l 174 858 l 292 858 l 292 636 l 56 636 z "},"’":{"ha":347,"x_min":56,"x_max":292,"o":"m 56 638 l 56 739 l 132 739 q 174 779 174 739 l 174 807 l 56 807 l 56 1029 l 292 1029 l 292 792 q 251 677 292 717 q 135 638 210 638 l 56 638 z "},"‚":{"ha":347,"x_min":56,"x_max":292,"o":"m 56 -169 l 56 -68 l 132 -68 q 174 -28 174 -68 l 174 0 l 56 0 l 56 222 l 292 222 l 292 -15 q 251 -130 292 -90 q 135 -169 210 -169 l 56 -169 z "},"“":{"ha":653,"x_min":56,"x_max":597,"o":"m 56 636 l 56 874 q 97 988 56 949 q 213 1028 138 1028 l 292 1028 l 292 926 l 215 926 q 174 886 174 926 l 174 858 l 292 858 l 292 636 l 56 636 m 361 636 l 361 874 q 402 988 361 949 q 518 1028 443 1028 l 597 1028 l 597 926 l 521 926 q 479 886 479 926 l 479 858 l 597 858 l 597 636 l 361 636 z "},"”":{"ha":653,"x_min":56,"x_max":597,"o":"m 56 638 l 56 739 l 132 739 q 174 779 174 739 l 174 807 l 56 807 l 56 1029 l 292 1029 l 292 792 q 251 677 292 717 q 135 638 210 638 l 56 638 m 361 638 l 361 739 l 438 739 q 479 779 479 739 l 479 807 l 361 807 l 361 1029 l 597 1029 l 597 792 q 556 677 597 717 q 440 638 515 638 l 361 638 z "},"„":{"ha":653,"x_min":56,"x_max":597,"o":"m 56 -169 l 56 -68 l 132 -68 q 174 -28 174 -68 l 174 0 l 56 0 l 56 222 l 292 222 l 292 -15 q 251 -130 292 -90 q 135 -169 210 -169 l 56 -169 m 361 -169 l 361 -68 l 438 -68 q 479 -28 479 -68 l 479 0 l 361 0 l 361 222 l 597 222 l 597 -15 q 556 -130 597 -90 q 440 -169 515 -169 l 361 -169 z "},"†":{"ha":681,"x_min":56,"x_max":625,"o":"m 625 778 l 625 611 q 406 625 506 611 q 424 194 424 449 l 257 194 q 275 625 257 449 q 56 611 175 611 l 56 778 q 271 764 171 778 q 257 986 257 865 l 424 986 q 410 764 424 865 q 625 778 510 778 z "},"‡":{"ha":681,"x_min":56,"x_max":625,"o":"m 625 819 l 625 653 q 410 667 510 653 q 410 514 421 590 q 625 528 510 528 l 625 361 q 411 375 511 361 q 424 194 424 299 l 257 194 q 269 375 257 299 q 56 361 169 361 l 56 528 q 271 514 171 528 q 271 667 260 590 q 56 653 171 653 l 56 819 q 269 806 169 819 q 257 986 257 883 l 424 986 q 411 806 424 883 q 625 819 511 819 z "},"•":{"ha":599,"x_min":56,"x_max":543,"o":"m 300 208 q 127 279 199 208 q 56 451 56 350 q 127 624 56 553 q 300 694 199 694 q 472 624 400 694 q 543 451 543 553 q 472 279 543 350 q 300 208 400 208 z "},"…":{"ha":1139,"x_min":56,"x_max":1083,"o":"m 56 0 l 56 250 l 306 250 l 306 0 l 56 0 m 444 0 l 444 250 l 694 250 l 694 0 l 444 0 m 833 0 l 833 250 l 1083 250 l 1083 0 l 833 0 z "},"‰":{"ha":1625,"x_min":56,"x_max":1569,"o":"m 439 617 q 408 586 439 617 q 278 556 378 556 q 117 617 178 556 q 56 776 56 678 q 117 940 56 878 q 278 1003 178 1003 q 439 940 378 1003 q 500 776 500 878 q 439 617 500 678 m 185 0 l 61 122 l 926 986 l 1050 863 l 185 0 m 219 718 q 230 707 219 718 q 278 696 242 696 q 337 718 314 696 q 360 776 360 740 q 337 839 360 815 q 278 863 314 863 q 219 839 242 863 q 196 776 196 815 q 219 718 196 740 m 994 44 q 964 14 994 44 q 833 -17 933 -17 q 672 44 733 -17 q 611 204 611 106 q 672 368 611 306 q 833 431 733 431 q 994 368 933 431 q 1056 204 1056 306 q 994 44 1056 106 m 1508 44 q 1478 14 1508 44 q 1347 -17 1447 -17 q 1186 44 1247 -17 q 1125 204 1125 106 q 1186 368 1125 306 q 1347 431 1247 431 q 1508 368 1447 431 q 1569 204 1569 306 q 1508 44 1569 106 m 774 146 q 786 135 774 146 q 833 124 797 124 q 892 146 869 124 q 915 204 915 168 q 892 267 915 243 q 833 290 869 290 q 774 267 797 290 q 751 204 751 243 q 774 146 751 168 m 1288 146 q 1300 135 1288 146 q 1347 124 1311 124 q 1406 146 1383 124 q 1429 204 1429 168 q 1406 267 1429 243 q 1347 290 1383 290 q 1288 267 1311 290 q 1265 204 1265 243 q 1288 146 1265 168 z "},"‹":{"ha":500,"x_min":42,"x_max":458,"o":"m 458 694 l 247 347 l 458 0 l 253 0 l 42 347 l 253 694 l 458 694 z "},"›":{"ha":500,"x_min":42,"x_max":458,"o":"m 247 694 l 458 347 l 247 0 l 42 0 l 253 347 l 42 694 l 247 694 z "},"⁄":{"ha":976,"x_min":49,"x_max":928,"o":"m 49 0 l 754 1028 l 928 1028 l 222 0 l 49 0 z "},"⁰":{"ha":643,"x_min":49,"x_max":594,"o":"m 524 731 q 489 687 524 731 q 322 643 454 643 q 119 731 190 643 q 49 982 49 818 q 119 1234 49 1146 q 322 1322 190 1322 q 524 1234 454 1322 q 594 982 594 1146 q 524 731 594 818 m 322 796 q 401 844 374 796 q 428 982 428 892 q 322 1169 428 1169 q 215 982 215 1169 q 322 796 215 796 z "},"⁴":{"ha":586,"x_min":28,"x_max":558,"o":"m 558 929 l 558 794 l 461 794 l 461 665 l 308 665 l 308 794 l 28 794 l 28 933 l 304 1322 l 461 1322 l 461 929 l 558 929 m 179 929 l 308 929 l 308 1111 l 179 929 z "},"⁵":{"ha":569,"x_min":42,"x_max":528,"o":"m 325 1097 q 472 1035 417 1097 q 528 874 528 974 q 459 706 528 769 q 279 643 390 643 q 113 701 178 643 q 42 853 47 758 l 176 874 q 206 804 178 831 q 281 778 235 778 q 353 805 325 778 q 381 875 381 832 q 352 944 381 918 q 278 971 324 971 q 192 928 214 971 l 192 926 l 44 960 l 111 1311 l 483 1311 l 483 1172 l 219 1172 l 197 1050 q 325 1097 249 1097 z "},"⁶":{"ha":593,"x_min":49,"x_max":551,"o":"m 185 1017 q 338 1092 242 1092 q 492 1031 433 1092 q 551 869 551 969 q 484 706 551 768 q 307 643 417 643 q 119 733 190 643 q 49 969 49 822 q 121 1226 49 1129 q 311 1322 193 1322 q 460 1275 399 1322 q 535 1151 522 1228 l 401 1132 q 375 1173 399 1157 q 317 1189 351 1189 q 222 1142 257 1189 q 185 1017 188 1096 m 313 775 q 378 801 353 775 q 403 869 403 826 q 378 939 403 913 q 313 965 353 965 q 245 939 271 965 q 219 869 219 913 q 245 801 219 826 q 313 775 271 775 z "},"⁷":{"ha":518,"x_min":14,"x_max":504,"o":"m 14 1311 l 504 1311 l 504 1176 q 272 654 282 1018 l 115 654 q 326 1172 125 1010 l 14 1172 l 14 1311 z "},"⁸":{"ha":599,"x_min":49,"x_max":550,"o":"m 454 1007 q 550 843 550 951 q 481 698 550 753 q 300 643 413 643 q 117 698 186 643 q 49 843 49 753 q 144 1007 49 951 q 71 1136 71 1054 q 134 1272 71 1221 q 300 1322 197 1322 q 465 1272 403 1322 q 528 1136 528 1221 q 454 1007 528 1054 m 300 1188 q 238 1168 261 1188 q 214 1118 214 1149 q 238 1072 214 1089 q 300 1054 261 1054 q 360 1072 338 1054 q 383 1118 383 1089 q 360 1169 383 1150 q 300 1188 338 1188 m 300 776 q 374 799 346 776 q 401 861 401 822 q 374 922 401 899 q 300 944 346 944 q 225 922 253 944 q 197 861 197 899 q 225 799 197 822 q 300 776 253 776 z "},"⁹":{"ha":593,"x_min":42,"x_max":544,"o":"m 286 1322 q 473 1233 401 1322 q 544 996 544 1143 q 472 740 544 836 q 281 643 400 643 q 132 690 193 643 q 57 813 71 736 l 192 833 q 216 792 193 807 q 275 776 239 776 q 370 822 336 776 q 407 949 404 868 q 256 874 350 874 q 100 935 158 874 q 42 1096 42 996 q 109 1260 42 1199 q 286 1322 176 1322 m 214 1025 q 226 1012 214 1025 q 281 999 239 999 q 347 1025 322 999 q 372 1096 372 1051 q 347 1164 372 1138 q 281 1190 322 1190 q 214 1164 239 1190 q 189 1096 189 1138 q 214 1025 189 1051 z "},"₀":{"ha":643,"x_min":49,"x_max":594,"o":"m 524 -196 q 489 -240 524 -196 q 322 -283 454 -283 q 119 -196 190 -283 q 49 56 49 -108 q 119 308 49 219 q 322 396 190 396 q 524 308 454 396 q 594 56 594 219 q 524 -196 594 -108 m 322 -131 q 401 -83 374 -131 q 428 56 428 -35 q 322 243 428 243 q 215 56 215 243 q 322 -131 215 -131 z "},"₁":{"ha":425,"x_min":28,"x_max":342,"o":"m 342 374 l 342 -283 l 185 -283 l 185 133 l 28 133 l 28 253 l 36 253 q 199 374 175 256 l 342 374 z "},"₂":{"ha":556,"x_min":35,"x_max":514,"o":"m 257 -92 q 218 -144 218 -117 l 514 -144 l 514 -283 l 35 -283 l 35 -260 q 64 -95 35 -157 q 165 14 93 -33 l 306 106 q 347 169 347 133 q 328 215 347 197 q 276 232 308 232 q 216 211 239 232 q 192 156 193 190 l 39 179 q 115 328 50 272 q 274 385 179 385 q 448 328 382 385 q 514 181 514 272 q 393 -3 514 76 l 257 -92 z "},"₃":{"ha":561,"x_min":35,"x_max":519,"o":"m 426 49 q 519 -100 519 11 q 453 -241 519 -187 q 279 -294 388 -294 q 113 -238 181 -294 q 35 -89 44 -182 l 174 -67 q 204 -131 175 -107 q 278 -156 233 -156 q 342 -135 318 -156 q 367 -83 367 -115 q 341 -33 367 -53 q 274 -14 315 -14 l 231 -14 l 231 114 l 261 114 q 331 132 304 114 q 358 179 358 150 q 335 228 358 210 q 275 246 313 246 q 203 222 231 246 q 174 158 175 197 l 35 179 q 113 328 46 272 q 278 385 179 385 q 447 328 382 385 q 511 181 511 272 q 426 49 511 85 z "},"₄":{"ha":586,"x_min":28,"x_max":558,"o":"m 558 -19 l 558 -154 l 461 -154 l 461 -283 l 308 -283 l 308 -154 l 28 -154 l 28 -15 l 304 374 l 461 374 l 461 -19 l 558 -19 m 179 -19 l 308 -19 l 308 163 l 179 -19 z "},"₅":{"ha":569,"x_min":42,"x_max":528,"o":"m 325 160 q 472 98 417 160 q 528 -64 528 36 q 459 -231 528 -168 q 279 -294 390 -294 q 113 -237 178 -294 q 42 -85 47 -179 l 176 -64 q 206 -133 178 -107 q 281 -160 235 -160 q 353 -133 325 -160 q 381 -62 381 -106 q 352 7 381 -19 q 278 33 324 33 q 192 -10 214 33 l 192 -11 l 44 22 l 111 374 l 483 374 l 483 235 l 219 235 l 197 113 q 325 160 249 160 z "},"₆":{"ha":593,"x_min":49,"x_max":551,"o":"m 185 79 q 338 154 242 154 q 492 93 433 154 q 551 -68 551 32 q 484 -232 551 -169 q 307 -294 417 -294 q 119 -205 190 -294 q 49 32 49 -115 q 121 288 49 192 q 311 385 193 385 q 460 338 399 385 q 535 214 522 290 l 401 194 q 375 235 399 219 q 317 251 351 251 q 222 205 257 251 q 185 79 188 158 m 313 -162 q 378 -137 353 -162 q 403 -68 403 -111 q 378 1 403 -25 q 313 28 353 28 q 245 1 271 28 q 219 -68 219 -25 q 245 -137 219 -111 q 313 -162 271 -162 z "},"₇":{"ha":518,"x_min":14,"x_max":504,"o":"m 14 374 l 504 374 l 504 239 q 272 -283 282 81 l 115 -283 q 326 235 125 72 l 14 235 l 14 374 z "},"₈":{"ha":599,"x_min":49,"x_max":550,"o":"m 454 69 q 550 -94 550 14 q 481 -240 550 -185 q 300 -294 413 -294 q 117 -240 186 -294 q 49 -94 49 -185 q 144 69 49 14 q 71 199 71 117 q 134 334 71 283 q 300 385 197 385 q 465 334 403 385 q 528 199 528 283 q 454 69 528 117 m 300 250 q 238 231 261 250 q 214 181 214 211 q 238 134 214 151 q 300 117 261 117 q 360 134 338 117 q 383 181 383 151 q 360 231 383 211 q 300 250 338 250 m 300 -161 q 374 -138 346 -161 q 401 -76 401 -115 q 374 -16 401 -39 q 300 7 346 7 q 225 -16 253 7 q 197 -76 197 -39 q 225 -138 197 -115 q 300 -161 253 -161 z "},"₉":{"ha":593,"x_min":42,"x_max":544,"o":"m 286 385 q 473 295 401 385 q 544 58 544 206 q 472 -198 544 -101 q 281 -294 400 -294 q 132 -248 193 -294 q 57 -125 71 -201 l 192 -104 q 216 -146 193 -131 q 275 -161 239 -161 q 370 -115 336 -161 q 407 11 404 -69 q 256 -64 350 -64 q 100 -3 158 -64 q 42 158 42 58 q 109 323 42 261 q 286 385 176 385 m 214 88 q 226 74 214 88 q 281 61 239 61 q 347 88 322 61 q 372 158 372 114 q 347 226 372 200 q 281 253 322 253 q 214 226 239 253 q 189 158 189 200 q 214 88 189 114 z "},"€":{"ha":846,"x_min":42,"x_max":818,"o":"m 554 278 q 681 321 628 278 l 818 158 q 698 94 771 118 q 553 69 625 69 q 301 146 406 69 q 161 354 197 222 l 42 354 l 42 465 l 143 465 l 143 493 l 143 521 l 42 521 l 42 632 l 161 632 q 301 840 197 764 q 553 917 406 917 q 698 892 625 917 q 818 828 771 868 l 681 665 q 554 708 628 708 q 404 632 454 708 l 593 632 l 593 521 l 367 521 q 365 493 365 513 q 367 465 365 474 l 593 465 l 593 354 l 404 354 q 554 278 454 278 z "},"™":{"ha":1157,"x_min":42,"x_max":1101,"o":"m 42 863 l 42 988 l 472 988 l 472 863 l 326 863 l 326 468 l 188 468 l 188 863 l 42 863 m 921 988 l 1101 988 l 1101 468 l 963 468 l 963 754 l 867 468 l 757 468 l 663 750 l 663 468 l 524 468 l 524 988 l 703 988 l 813 665 l 921 988 z "},"⅛":{"ha":1425,"x_min":28,"x_max":1342,"o":"m 342 376 l 185 376 l 185 793 l 28 793 l 28 913 l 36 913 q 199 1033 175 915 l 342 1033 l 342 376 m 911 1028 l 1085 1028 l 379 0 l 206 0 l 911 1028 m 1246 349 q 1342 185 1342 293 q 1273 40 1342 94 q 1092 -15 1204 -15 q 909 40 978 -15 q 840 185 840 94 q 936 349 840 293 q 863 478 863 396 q 926 613 863 563 q 1092 664 989 664 q 1257 613 1194 664 q 1319 478 1319 563 q 1246 349 1319 396 m 1092 529 q 1029 510 1053 529 q 1006 460 1006 490 q 1029 413 1006 431 q 1092 396 1053 396 q 1152 413 1129 396 q 1175 460 1175 431 q 1152 510 1175 492 q 1092 529 1129 529 m 1092 118 q 1165 141 1138 118 q 1193 203 1193 164 q 1165 263 1193 240 q 1092 286 1138 286 q 1017 263 1044 286 q 989 203 989 240 q 1017 141 989 164 q 1092 118 1044 118 z "},"⅜":{"ha":1479,"x_min":35,"x_max":1438,"o":"m 519 560 q 453 419 519 472 q 279 365 388 365 q 113 422 181 365 q 35 571 44 478 l 174 593 q 204 528 175 553 q 278 504 233 504 q 342 524 318 504 q 367 576 367 544 q 341 626 367 607 q 274 646 315 646 l 231 646 l 231 774 l 261 774 q 331 792 304 774 q 358 839 358 810 q 335 888 358 869 q 275 906 313 906 q 203 881 231 906 q 174 818 175 857 l 35 839 q 113 988 46 932 q 278 1044 179 1044 q 447 988 382 1044 q 511 840 511 932 q 426 708 511 744 q 519 560 519 671 m 1006 1028 l 1179 1028 l 474 0 l 300 0 l 1006 1028 m 1342 349 q 1438 185 1438 293 q 1369 40 1438 94 q 1188 -15 1300 -15 q 1005 40 1074 -15 q 936 185 936 94 q 1032 349 936 293 q 958 478 958 396 q 1022 613 958 563 q 1188 664 1085 664 q 1353 613 1290 664 q 1415 478 1415 563 q 1342 349 1415 396 m 1188 529 q 1125 510 1149 529 q 1101 460 1101 490 q 1125 413 1101 431 q 1188 396 1149 396 q 1248 413 1225 396 q 1271 460 1271 431 q 1248 510 1271 492 q 1188 529 1225 529 m 1188 118 q 1261 141 1233 118 q 1289 203 1289 164 q 1261 263 1289 240 q 1188 286 1233 286 q 1113 263 1140 286 q 1085 203 1085 240 q 1113 141 1085 164 q 1188 118 1140 118 z "},"⅝":{"ha":1471,"x_min":42,"x_max":1429,"o":"m 528 596 q 459 428 528 492 q 279 365 390 365 q 113 423 178 365 q 42 575 47 481 l 176 596 q 206 526 178 553 q 281 500 235 500 q 353 527 325 500 q 381 597 381 554 q 352 667 381 640 q 278 693 324 693 q 192 650 214 693 l 192 649 l 44 682 l 111 1033 l 483 1033 l 483 894 l 219 894 l 197 772 q 325 819 249 819 q 472 758 417 819 q 528 596 528 696 m 997 1028 l 1171 1028 l 465 0 l 292 0 l 997 1028 m 1333 349 q 1429 185 1429 293 q 1360 40 1429 94 q 1179 -15 1292 -15 q 997 40 1065 -15 q 928 185 928 94 q 1024 349 928 293 q 950 478 950 396 q 1013 613 950 563 q 1179 664 1076 664 q 1344 613 1282 664 q 1407 478 1407 563 q 1333 349 1407 396 m 1179 529 q 1117 510 1140 529 q 1093 460 1093 490 q 1117 413 1093 431 q 1179 396 1140 396 q 1240 413 1217 396 q 1263 460 1263 431 q 1240 510 1263 492 q 1179 529 1217 529 m 1179 118 q 1253 141 1225 118 q 1281 203 1281 164 q 1253 263 1281 240 q 1179 286 1225 286 q 1104 263 1132 286 q 1076 203 1076 240 q 1104 141 1076 164 q 1179 118 1132 118 z "},"⅞":{"ha":1321,"x_min":14,"x_max":1307,"o":"m 115 376 q 326 894 125 732 l 14 894 l 14 1033 l 504 1033 l 504 899 q 272 376 282 740 l 115 376 m 875 1028 l 1049 1028 l 343 0 l 169 0 l 875 1028 m 1211 349 q 1307 185 1307 293 q 1238 40 1307 94 q 1057 -15 1169 -15 q 874 40 943 -15 q 806 185 806 94 q 901 349 806 293 q 828 478 828 396 q 891 613 828 563 q 1057 664 954 664 q 1222 613 1160 664 q 1285 478 1285 563 q 1211 349 1285 396 m 1057 529 q 994 510 1018 529 q 971 460 971 490 q 994 413 971 431 q 1057 396 1018 396 q 1117 413 1094 396 q 1140 460 1140 431 q 1117 510 1140 492 q 1057 529 1094 529 m 1057 118 q 1131 141 1103 118 q 1158 203 1158 164 q 1131 263 1158 240 q 1057 286 1103 286 q 982 263 1010 286 q 954 203 954 240 q 982 141 954 164 q 1057 118 1010 118 z "},"←":{"ha":883,"x_min":56,"x_max":828,"o":"m 449 101 l 56 493 l 449 886 l 571 764 l 386 579 l 828 579 l 828 406 l 388 406 l 571 224 l 449 101 z "},"↑":{"ha":897,"x_min":56,"x_max":842,"o":"m 363 115 l 363 554 l 178 371 l 56 493 l 450 888 l 842 493 l 718 371 l 536 554 l 536 114 l 363 115 z "},"→":{"ha":883,"x_min":56,"x_max":828,"o":"m 435 101 l 313 224 l 496 406 l 56 406 l 56 579 l 497 579 l 313 764 l 435 886 l 828 493 l 435 101 z "},"↓":{"ha":896,"x_min":56,"x_max":840,"o":"m 447 107 l 56 500 l 178 622 l 360 440 l 360 879 l 533 879 l 533 439 l 718 622 l 840 500 l 447 107 z "},"↔":{"ha":1435,"x_min":56,"x_max":1379,"o":"m 449 101 l 56 493 l 449 886 l 571 764 l 386 579 l 1049 579 l 864 764 l 986 886 l 1379 493 l 986 101 l 864 224 l 1047 406 l 388 406 l 571 224 l 449 101 z "},"↕":{"ha":896,"x_min":56,"x_max":840,"o":"m 447 -168 l 56 225 l 178 347 l 360 164 l 360 824 l 178 640 l 56 763 l 447 1156 l 840 763 l 718 640 l 533 825 l 533 163 l 718 347 l 840 225 l 447 -168 z "},"↖":{"ha":719,"x_min":56,"x_max":664,"o":"m 540 189 l 228 501 l 228 240 l 56 240 l 56 796 l 610 794 l 610 622 l 351 622 l 664 311 l 540 189 z "},"↗":{"ha":718,"x_min":56,"x_max":663,"o":"m 178 189 l 56 313 l 367 624 l 106 624 l 106 797 l 663 797 l 661 242 l 488 242 l 489 500 l 178 189 z "},"↘":{"ha":719,"x_min":56,"x_max":664,"o":"m 108 190 l 108 363 l 367 363 l 56 674 l 178 796 l 490 483 l 490 744 l 664 744 l 664 189 l 108 190 z "},"↙":{"ha":718,"x_min":56,"x_max":663,"o":"m 56 189 l 57 744 l 229 744 l 229 486 l 540 797 l 663 675 l 350 363 l 611 363 l 611 189 l 56 189 z "},"∂":{"ha":911,"x_min":56,"x_max":856,"o":"m 389 986 q 735 747 614 899 q 856 400 856 594 q 755 98 856 213 q 475 -17 654 -17 q 216 77 314 -17 q 118 324 118 171 q 207 567 118 476 q 436 657 296 657 q 569 636 499 657 q 56 986 456 792 l 389 986 m 378 221 q 397 201 378 221 q 476 182 415 182 q 576 221 538 182 q 614 324 614 260 q 576 428 614 388 q 476 468 538 468 q 378 428 415 468 q 340 324 340 389 q 378 221 340 260 z "},"∅":{"ha":1018,"x_min":56,"x_max":963,"o":"m 963 824 l 864 725 q 933 493 933 621 q 809 193 933 317 q 510 69 685 69 q 278 139 382 69 l 179 39 l 56 161 l 156 261 q 85 493 85 367 q 210 792 85 668 q 510 917 335 917 q 742 847 638 917 l 840 946 l 963 824 m 265 493 q 289 394 265 442 l 600 706 q 510 722 558 722 q 337 655 408 722 q 265 493 265 588 m 753 493 q 729 590 753 546 l 419 281 q 510 264 461 264 q 681 331 610 264 q 753 493 753 399 z "},"∏":{"ha":1069,"x_min":28,"x_max":1042,"o":"m 1042 986 l 1042 778 l 861 778 l 861 -278 l 625 -278 l 625 778 l 444 778 l 444 -278 l 208 -278 l 208 778 l 28 778 l 28 986 l 1042 986 z "},"∑":{"ha":804,"x_min":56,"x_max":749,"o":"m 749 986 l 749 764 l 325 764 l 638 354 l 325 -56 l 749 -56 l 749 -278 l 56 -278 l 56 -56 l 378 354 l 56 764 l 56 986 l 749 986 z "},"−":{"ha":722,"x_min":83,"x_max":639,"o":"m 83 344 l 83 518 l 639 518 l 639 344 l 83 344 z "},"√":{"ha":1329,"x_min":83,"x_max":1371,"o":"m 1371 1319 l 1371 1125 l 976 1125 l 604 0 l 313 0 l 83 694 l 335 694 l 460 210 l 789 1319 l 1371 1319 z "},"∞":{"ha":1129,"x_min":56,"x_max":1074,"o":"m 796 711 q 997 634 921 711 q 1074 431 1074 557 q 997 227 1074 304 q 796 150 921 150 q 565 282 660 150 q 333 150 469 150 q 132 227 208 150 q 56 431 56 304 q 132 634 56 557 q 333 711 208 711 q 564 579 469 711 q 796 711 660 711 m 333 331 q 471 431 406 331 q 333 531 407 531 q 263 503 290 531 q 236 431 236 475 q 263 358 236 386 q 333 331 290 331 m 796 331 q 866 358 839 331 q 893 431 893 386 q 866 503 893 475 q 796 531 839 531 q 657 431 722 531 q 796 331 722 331 z "},"∫":{"ha":736,"x_min":56,"x_max":681,"o":"m 56 -278 l 56 -83 l 160 -83 q 257 -3 257 -83 l 257 769 q 325 961 257 894 q 521 1028 393 1028 l 681 1028 l 681 833 l 576 833 q 479 753 479 833 l 479 -19 q 411 -211 479 -144 q 215 -278 343 -278 l 56 -278 z "},"≈":{"ha":718,"x_min":56,"x_max":663,"o":"m 56 536 l 199 536 q 215 590 199 569 q 256 611 231 611 q 362 574 297 611 q 479 536 426 536 q 612 591 561 536 q 663 735 663 646 l 663 785 l 521 785 q 505 730 521 750 q 463 710 489 710 q 358 747 422 710 q 239 785 293 785 q 106 730 157 785 q 56 586 56 675 l 56 536 m 56 203 l 199 203 q 215 257 199 236 q 256 278 231 278 q 362 240 297 278 q 479 203 426 203 q 612 258 561 203 q 663 401 663 313 l 663 451 l 521 451 q 505 397 521 417 q 463 376 489 376 q 358 414 422 376 q 239 451 293 451 q 106 397 157 451 q 56 253 56 342 l 56 203 z "},"≠":{"ha":722,"x_min":83,"x_max":639,"o":"m 639 486 l 451 486 l 386 375 l 639 375 l 639 215 l 294 215 l 239 118 l 125 118 l 181 215 l 83 215 l 83 375 l 274 375 l 338 486 l 83 486 l 83 646 l 431 646 l 486 743 l 599 743 l 543 646 l 639 646 l 639 486 z "},"≤":{"ha":722,"x_min":83,"x_max":639,"o":"m 639 708 l 639 576 l 235 521 l 639 465 l 639 333 l 83 424 l 83 618 l 639 708 m 83 153 l 83 299 l 639 299 l 639 153 l 83 153 z "},"≥":{"ha":722,"x_min":83,"x_max":639,"o":"m 83 708 l 639 618 l 639 424 l 83 333 l 83 465 l 488 521 l 83 576 l 83 708 m 83 153 l 83 299 l 639 299 l 639 153 l 83 153 z "},"◊":{"ha":576,"x_min":56,"x_max":521,"o":"m 368 744 l 521 432 l 368 119 l 208 119 l 56 432 l 208 744 l 368 744 m 215 432 l 289 283 l 361 432 l 289 581 l 215 432 z "},"➀":{"ha":1103,"x_min":42,"x_max":1061,"o":"m 911 133 q 836 58 911 133 q 551 -17 761 -17 q 192 133 342 -17 q 42 493 42 283 q 192 853 42 703 q 551 1003 342 1003 q 911 853 761 1003 q 1061 493 1061 703 q 911 133 1061 283 m 553 101 q 829 217 714 101 q 944 493 944 332 q 829 769 944 654 q 553 885 714 885 q 275 769 390 885 q 160 493 160 654 q 275 217 160 332 q 553 101 390 101 m 517 258 l 517 557 l 404 557 l 404 642 l 411 642 q 526 728 508 642 l 629 728 l 629 258 l 517 258 z "},"➁":{"ha":1103,"x_min":42,"x_max":1061,"o":"m 192 853 q 267 928 192 853 q 551 1003 342 1003 q 911 853 761 1003 q 1061 493 1061 703 q 911 133 1061 283 q 551 -17 761 -17 q 192 133 342 -17 q 42 493 42 283 q 192 853 42 703 m 553 101 q 829 217 714 101 q 944 493 944 332 q 829 769 944 654 q 553 885 714 885 q 275 769 390 885 q 160 493 160 654 q 275 217 160 332 q 553 101 390 101 m 538 396 q 510 358 510 378 l 721 358 l 721 258 l 378 258 l 378 276 q 399 392 378 349 q 472 471 419 436 l 572 536 q 601 583 601 556 q 588 615 601 603 q 551 628 574 628 q 508 613 525 628 q 490 574 492 597 l 382 590 q 436 696 390 656 q 549 736 482 736 q 674 696 626 736 q 721 590 721 656 q 635 460 721 515 l 538 396 z "},"➂":{"ha":1103,"x_min":42,"x_max":1061,"o":"m 192 853 q 267 928 192 853 q 551 1003 342 1003 q 911 853 761 1003 q 1061 493 1061 703 q 911 133 1061 283 q 551 -17 761 -17 q 192 133 342 -17 q 42 493 42 283 q 192 853 42 703 m 553 101 q 829 217 714 101 q 944 493 944 332 q 829 769 944 654 q 553 885 714 885 q 275 769 390 885 q 160 493 160 654 q 275 217 160 332 q 553 101 390 101 m 663 497 q 728 390 728 468 q 681 290 728 328 q 556 251 633 251 q 436 292 485 251 q 381 399 388 332 l 481 414 q 502 367 482 385 q 554 350 522 350 q 600 365 582 350 q 618 403 618 379 q 600 439 618 425 q 551 453 582 453 l 521 453 l 521 543 l 543 543 q 592 556 574 543 q 611 590 611 569 q 594 624 611 611 q 551 638 578 638 q 500 620 519 638 q 481 575 481 603 l 381 590 q 437 696 389 656 q 554 736 485 736 q 675 696 629 736 q 721 590 721 656 q 663 497 721 524 z "},"➃":{"ha":1103,"x_min":42,"x_max":1061,"o":"m 911 133 q 836 58 911 133 q 551 -17 761 -17 q 192 133 342 -17 q 42 493 42 283 q 192 853 42 703 q 551 1003 342 1003 q 911 853 761 1003 q 1061 493 1061 703 q 911 133 1061 283 m 553 101 q 829 217 714 101 q 944 493 944 332 q 829 769 944 654 q 553 885 714 885 q 275 769 390 885 q 160 493 160 654 q 275 217 160 332 q 553 101 390 101 m 547 258 l 547 350 l 346 350 l 346 450 l 543 728 l 656 728 l 656 446 l 725 446 l 725 350 l 656 350 l 656 258 l 547 258 m 454 446 l 547 446 l 547 578 l 454 446 z "},"➄":{"ha":1103,"x_min":42,"x_max":1061,"o":"m 192 853 q 267 928 192 853 q 551 1003 342 1003 q 911 853 761 1003 q 1061 493 1061 703 q 911 133 1061 283 q 551 -17 761 -17 q 192 133 342 -17 q 42 493 42 283 q 192 853 42 703 m 553 101 q 829 217 714 101 q 944 493 944 332 q 829 769 944 654 q 553 885 714 885 q 275 769 390 885 q 160 493 160 654 q 275 217 160 332 q 553 101 390 101 m 581 576 q 686 532 646 576 q 726 415 726 488 q 678 297 726 342 q 549 251 629 251 q 430 292 476 251 q 379 401 383 333 l 475 417 q 497 366 476 385 q 549 347 517 347 q 601 367 581 347 q 621 417 621 386 q 601 466 621 447 q 547 485 581 485 q 486 454 501 485 l 381 478 l 428 729 l 694 729 l 694 629 l 507 629 l 490 543 q 581 576 526 576 z "},"➅":{"ha":1103,"x_min":42,"x_max":1061,"o":"m 192 853 q 267 928 192 853 q 551 1003 342 1003 q 911 853 761 1003 q 1061 493 1061 703 q 911 133 1061 283 q 551 -17 761 -17 q 192 133 342 -17 q 42 493 42 283 q 192 853 42 703 m 553 101 q 829 217 714 101 q 944 493 944 332 q 829 769 944 654 q 553 885 714 885 q 275 769 390 885 q 160 493 160 654 q 275 217 160 332 q 553 101 390 101 m 467 517 q 576 572 508 572 q 687 528 644 572 q 729 413 729 485 q 681 296 729 340 q 554 251 632 251 q 420 315 471 251 q 369 485 369 379 q 421 667 369 599 q 557 736 472 736 q 664 703 619 736 q 718 615 708 669 l 622 600 q 603 631 619 619 q 561 642 588 642 q 493 608 518 642 q 467 517 468 575 m 558 346 q 606 364 588 346 q 624 413 624 382 q 606 463 624 443 q 558 482 588 482 q 510 463 528 482 q 492 413 492 444 q 510 364 492 382 q 558 346 528 346 z "},"➆":{"ha":1103,"x_min":42,"x_max":1061,"o":"m 192 853 q 267 928 192 853 q 551 1003 342 1003 q 911 853 761 1003 q 1061 493 1061 703 q 911 133 1061 283 q 551 -17 761 -17 q 192 133 342 -17 q 42 493 42 283 q 192 853 42 703 m 553 101 q 829 217 714 101 q 944 493 944 332 q 829 769 944 654 q 553 885 714 885 q 275 769 390 885 q 160 493 160 654 q 275 217 160 332 q 553 101 390 101 m 389 628 l 389 728 l 739 728 l 739 632 q 574 258 579 515 l 461 258 q 611 628 467 511 l 389 628 z "},"➇":{"ha":1103,"x_min":42,"x_max":1061,"o":"m 911 133 q 836 58 911 133 q 551 -17 761 -17 q 192 133 342 -17 q 42 493 42 283 q 192 853 42 703 q 551 1003 342 1003 q 911 853 761 1003 q 1061 493 1061 703 q 911 133 1061 283 m 553 101 q 829 217 714 101 q 944 493 944 332 q 829 769 944 654 q 553 885 714 885 q 275 769 390 885 q 160 493 160 654 q 275 217 160 332 q 553 101 390 101 m 680 291 q 655 271 680 291 q 550 251 631 251 q 420 291 469 251 q 371 394 371 331 q 440 511 371 472 q 388 604 388 546 q 432 700 388 664 q 550 736 476 736 q 668 700 624 736 q 713 604 713 664 q 661 511 713 544 q 729 394 729 472 q 680 291 729 331 m 506 558 q 515 551 506 558 q 550 544 524 544 q 593 558 576 544 q 610 592 610 571 q 593 627 610 614 q 550 640 576 640 q 506 627 522 640 q 489 592 489 614 q 506 558 489 571 m 497 364 q 507 356 497 364 q 550 347 517 347 q 603 364 583 347 q 624 407 624 381 q 603 450 624 433 q 550 467 583 467 q 497 450 517 467 q 476 407 476 433 q 497 364 476 381 z "},"➈":{"ha":1103,"x_min":42,"x_max":1061,"o":"m 192 853 q 267 928 192 853 q 551 1003 342 1003 q 911 853 761 1003 q 1061 493 1061 703 q 911 133 1061 283 q 551 -17 761 -17 q 192 133 342 -17 q 42 493 42 283 q 192 853 42 703 m 553 101 q 829 217 714 101 q 944 493 944 332 q 829 769 944 654 q 553 885 714 885 q 275 769 390 885 q 160 493 160 654 q 275 217 160 332 q 553 101 390 101 m 558 736 q 692 672 642 736 q 743 503 743 608 q 692 320 743 389 q 556 251 640 251 q 449 285 493 251 q 394 372 404 318 l 490 388 q 509 357 493 368 q 551 346 525 346 q 619 379 594 346 q 646 471 644 413 q 536 415 604 415 q 425 459 467 415 q 383 575 383 503 q 432 692 383 647 q 558 736 481 736 m 554 506 q 603 524 585 506 q 621 575 621 543 q 603 624 621 606 q 554 642 585 642 q 507 624 525 642 q 489 575 489 606 q 507 525 489 544 q 554 506 525 506 z "},"➊":{"ha":1104,"x_min":42,"x_max":1063,"o":"m 913 133 q 839 58 913 133 q 553 -17 764 -17 q 192 133 342 -17 q 42 494 42 283 q 192 853 42 704 q 553 1003 342 1003 q 913 853 763 1003 q 1063 494 1063 704 q 913 133 1063 283 m 517 258 l 629 258 l 629 728 l 526 728 q 411 642 508 642 l 404 642 l 404 557 l 517 557 l 517 258 z "},"➋":{"ha":1104,"x_min":42,"x_max":1063,"o":"m 913 133 q 839 58 913 133 q 553 -17 764 -17 q 192 133 342 -17 q 42 494 42 283 q 192 853 42 704 q 553 1003 342 1003 q 913 853 763 1003 q 1063 494 1063 704 q 913 133 1063 283 m 378 258 l 721 258 l 721 358 l 510 358 q 538 396 510 378 l 635 460 q 721 590 721 515 q 674 696 721 656 q 549 736 626 736 q 436 696 482 736 q 382 590 390 656 l 490 574 q 508 613 492 597 q 551 628 525 628 q 588 615 574 628 q 601 583 601 603 q 572 536 601 556 l 472 471 q 399 392 419 436 q 378 276 378 349 l 378 258 z "},"➌":{"ha":1104,"x_min":42,"x_max":1063,"o":"m 913 133 q 839 58 913 133 q 553 -17 764 -17 q 192 133 342 -17 q 42 494 42 283 q 192 853 42 704 q 553 1003 342 1003 q 913 853 763 1003 q 1063 494 1063 704 q 913 133 1063 283 m 556 251 q 681 290 633 251 q 728 390 728 328 q 663 497 728 468 q 721 590 721 524 q 675 696 721 656 q 554 736 629 736 q 437 696 485 736 q 381 590 389 656 l 481 575 q 500 620 481 603 q 551 638 519 638 q 594 624 578 638 q 611 590 611 611 q 592 556 611 569 q 543 543 574 543 l 521 543 l 521 453 l 551 453 q 600 439 582 453 q 618 403 618 425 q 600 365 618 379 q 554 350 582 350 q 502 367 522 350 q 481 414 482 385 l 381 399 q 436 292 388 332 q 556 251 485 251 z "},"➍":{"ha":1104,"x_min":42,"x_max":1063,"o":"m 913 133 q 839 58 913 133 q 553 -17 764 -17 q 192 133 342 -17 q 42 494 42 283 q 192 853 42 704 q 553 1003 342 1003 q 913 853 763 1003 q 1063 494 1063 704 q 913 133 1063 283 m 547 258 l 656 258 l 656 350 l 725 350 l 725 446 l 656 446 l 656 728 l 543 728 l 346 450 l 346 350 l 547 350 l 547 258 m 454 446 l 547 578 l 547 446 l 454 446 z "},"➎":{"ha":1104,"x_min":42,"x_max":1063,"o":"m 913 133 q 839 58 913 133 q 553 -17 764 -17 q 192 133 342 -17 q 42 494 42 283 q 192 853 42 704 q 553 1003 342 1003 q 913 853 763 1003 q 1063 494 1063 704 q 913 133 1063 283 m 549 251 q 678 297 629 251 q 726 415 726 342 q 686 532 726 488 q 581 576 646 576 q 490 543 526 576 l 507 629 l 694 629 l 694 729 l 428 729 l 381 478 l 486 454 q 547 485 501 485 q 601 466 581 485 q 621 417 621 447 q 601 367 621 386 q 549 347 581 347 q 497 366 517 347 q 475 417 476 385 l 379 401 q 430 292 383 333 q 549 251 476 251 z "},"➏":{"ha":1104,"x_min":42,"x_max":1063,"o":"m 913 133 q 839 58 913 133 q 553 -17 764 -17 q 192 133 342 -17 q 42 494 42 283 q 192 853 42 704 q 553 1003 342 1003 q 913 853 763 1003 q 1063 494 1063 704 q 913 133 1063 283 m 554 251 q 681 296 632 251 q 729 413 729 340 q 687 528 729 485 q 576 572 644 572 q 467 517 508 572 q 493 608 468 575 q 561 642 518 642 q 603 631 588 642 q 622 600 619 619 l 718 615 q 664 703 708 669 q 557 736 619 736 q 421 667 472 736 q 369 485 369 599 q 420 315 369 379 q 554 251 471 251 m 558 346 q 510 364 528 346 q 492 413 492 382 q 510 463 492 444 q 558 482 528 482 q 606 463 588 482 q 624 413 624 443 q 606 364 624 382 q 558 346 588 346 z "},"➐":{"ha":1104,"x_min":42,"x_max":1063,"o":"m 913 133 q 839 58 913 133 q 553 -17 764 -17 q 192 133 342 -17 q 42 494 42 283 q 192 853 42 704 q 553 1003 342 1003 q 913 853 763 1003 q 1063 494 1063 704 q 913 133 1063 283 m 461 258 l 574 258 q 739 632 579 515 l 739 728 l 389 728 l 389 628 l 611 628 q 461 258 467 511 z "},"➑":{"ha":1104,"x_min":42,"x_max":1063,"o":"m 553 -17 q 192 133 342 -17 q 42 494 42 283 q 192 853 42 704 q 553 1003 342 1003 q 913 853 763 1003 q 1063 494 1063 704 q 913 133 1063 283 q 553 -17 763 -17 m 420 291 q 445 271 420 291 q 550 251 469 251 q 680 291 631 251 q 729 394 729 331 q 661 511 729 472 q 713 604 713 544 q 668 700 713 664 q 550 736 624 736 q 432 700 476 736 q 388 604 388 664 q 440 511 388 546 q 371 394 371 472 q 420 291 371 331 m 593 558 q 585 551 593 558 q 550 544 576 544 q 506 558 524 544 q 489 592 489 571 q 506 627 489 614 q 550 640 522 640 q 593 627 576 640 q 610 592 610 614 q 593 558 610 571 m 603 364 q 593 356 603 364 q 550 347 583 347 q 497 364 517 347 q 476 407 476 381 q 497 450 476 433 q 550 467 517 467 q 603 450 583 467 q 624 407 624 433 q 603 364 624 381 z "},"➒":{"ha":1104,"x_min":42,"x_max":1063,"o":"m 913 133 q 839 58 913 133 q 553 -17 764 -17 q 192 133 342 -17 q 42 494 42 283 q 192 853 42 704 q 553 1003 342 1003 q 913 853 763 1003 q 1063 494 1063 704 q 913 133 1063 283 m 556 251 q 692 320 640 251 q 743 503 743 389 q 692 672 743 608 q 558 736 642 736 q 432 692 481 736 q 383 575 383 647 q 425 459 383 503 q 536 415 467 415 q 646 471 604 415 q 619 379 644 413 q 551 346 594 346 q 509 357 525 346 q 490 388 493 368 l 394 372 q 449 285 404 318 q 556 251 493 251 m 554 506 q 507 525 525 506 q 489 575 489 544 q 507 624 489 606 q 554 642 525 642 q 603 624 585 642 q 621 575 621 606 q 603 524 621 543 q 554 506 585 506 z "},"":{"ha":875,"x_min":56,"x_max":819,"o":"m 56 -49 l 56 1018 l 819 1018 l 819 -49 l 56 -49 m 160 61 l 715 61 l 715 908 l 160 908 l 160 61 m 271 129 l 221 386 l 221 392 l 321 392 l 342 210 l 349 210 l 388 392 l 486 392 l 525 210 l 533 210 l 554 392 l 653 392 l 653 386 l 601 129 l 467 129 l 451 213 l 440 282 l 433 282 l 424 213 l 407 129 l 271 129 z "},"ﬁ":{"ha":936,"x_min":21,"x_max":867,"o":"m 867 694 l 867 0 l 644 0 l 644 500 l 381 500 l 381 0 l 158 0 l 158 500 l 21 500 l 21 694 l 158 694 l 158 769 q 226 961 158 894 q 422 1028 294 1028 l 582 1028 l 582 833 l 478 833 q 381 753 381 833 l 381 694 l 867 694 m 644 1028 l 867 1028 l 867 806 l 644 806 l 644 1028 z "},"ﬂ":{"ha":1068,"x_min":21,"x_max":1040,"o":"m 936 194 l 1040 194 l 1040 0 l 908 0 q 713 67 781 0 q 644 258 644 133 l 644 833 l 478 833 q 381 753 381 833 l 381 694 l 568 694 l 568 500 l 381 500 l 381 0 l 158 0 l 158 500 l 21 500 l 21 694 l 158 694 l 158 769 q 226 961 158 894 q 422 1028 294 1028 l 867 1028 l 867 261 q 936 194 867 194 z "}}}
